<svg width="82" height="70" viewBox="0 0 82 70" fill="none" xmlns="http://www.w3.org/2000/svg">
<path d="M43.1285 21.5623H43.0509L45.3405 14.4137H36.1948L38.4715 21.5623H38.5621L33.2971 28.8532L40.7871 50.9843L48.2382 28.8532L43.1285 21.5623Z" fill="#26AAE2"/>
<path d="M73.929 70H7.58047C5.56882 69.9966 3.64073 69.1956 2.21948 67.7729C0.79824 66.3502 -2.91909e-06 64.4221 0 62.4118V21.265C-2.91909e-06 19.2547 0.79824 17.3266 2.21948 15.9039C3.64073 14.4812 5.56882 13.6802 7.58047 13.6768H73.929C74.9262 13.6768 75.9136 13.8731 76.8348 14.2544C77.7561 14.6358 78.5932 15.1947 79.2983 15.8993C80.0034 16.604 80.5628 17.4405 80.9444 18.3611C81.326 19.2818 81.5224 20.2685 81.5224 21.265V62.4118C81.5224 63.4083 81.326 64.395 80.9444 65.3157C80.5628 66.2363 80.0034 67.0728 79.2983 67.7775C78.5932 68.4821 77.7561 69.041 76.8348 69.4224C75.9136 69.8037 74.9262 70 73.929 70ZM7.58047 15.1376C5.95426 15.1376 4.39465 15.7831 3.24474 16.9323C2.09484 18.0814 1.44883 19.6399 1.44883 21.265V62.4118C1.44882 64.0381 2.09442 65.598 3.24396 66.7491C4.39349 67.9003 5.95307 68.5487 7.58047 68.5522H73.929C74.7413 68.5607 75.5473 68.4082 76.3003 68.1034C77.0533 67.7987 77.7383 67.3477 78.3157 66.7767C78.8932 66.2057 79.3516 65.5259 79.6644 64.7766C79.9772 64.0274 80.1383 63.2236 80.1382 62.4118V21.265C80.1348 19.6387 79.4859 18.0802 78.334 16.9315C77.182 15.7827 75.6211 15.1376 73.9937 15.1376H7.58047Z" fill="#333333"/>
<path d="M47.3585 58.4303C46.879 58.4328 46.4095 58.2929 46.0097 58.0283C45.61 57.7636 45.2979 57.3862 45.1132 56.944C44.9285 56.5018 44.8795 56.0146 44.9725 55.5445C45.0654 55.0744 45.296 54.6425 45.6351 54.3036C45.9742 53.9648 46.4064 53.7343 46.8769 53.6414C47.3473 53.5486 47.8348 53.5975 48.2773 53.7821C48.7199 53.9666 49.0975 54.2785 49.3623 54.678C49.6272 55.0775 49.7672 55.5467 49.7646 56.0259C49.7612 56.6625 49.5066 57.2721 49.0561 57.7223C48.6056 58.1725 47.9956 58.4269 47.3585 58.4303ZM47.3585 55.0046C47.0875 55.0046 46.8276 55.1122 46.6359 55.3037C46.4443 55.4952 46.3366 55.755 46.3366 56.0259C46.3366 56.2967 46.4443 56.5565 46.6359 56.748C46.8276 56.9395 47.0875 57.0471 47.3585 57.0471C47.6296 57.0471 47.8895 56.9395 48.0812 56.748C48.2728 56.5565 48.3805 56.2967 48.3805 56.0259C48.3805 55.755 48.2728 55.4952 48.0812 55.3037C47.8895 55.1122 47.6296 55.0046 47.3585 55.0046Z" fill="#333333"/>
<path d="M47.3585 66.6519C46.8796 66.6545 46.4106 66.5149 46.0111 66.2508C45.6116 65.9867 45.2995 65.6101 45.1144 65.1686C44.9294 64.7271 44.8796 64.2407 44.9715 63.7709C45.0634 63.3011 45.2927 62.8692 45.6305 62.5298C45.9683 62.1905 46.3993 61.9589 46.8689 61.8646C47.3385 61.7703 47.8255 61.8174 48.2683 62C48.7111 62.1826 49.0896 62.4924 49.356 62.8902C49.6224 63.288 49.7646 63.7559 49.7646 64.2345C49.7646 64.8734 49.5115 65.4863 49.0607 65.9393C48.6098 66.3923 47.9979 66.6485 47.3585 66.6519ZM47.3585 63.2262C47.2156 63.2101 47.0708 63.2243 46.9337 63.2679C46.7966 63.3115 46.6702 63.3836 46.5629 63.4794C46.4556 63.5752 46.3698 63.6926 46.311 63.8238C46.2522 63.955 46.2218 64.0972 46.2218 64.241C46.2218 64.3848 46.2522 64.527 46.311 64.6582C46.3698 64.7895 46.4556 64.9068 46.5629 65.0026C46.6702 65.0984 46.7966 65.1705 46.9337 65.2141C47.0708 65.2577 47.2156 65.2719 47.3585 65.2558C47.5015 65.2719 47.6463 65.2577 47.7834 65.2141C47.9205 65.1705 48.0469 65.0984 48.1542 65.0026C48.2615 64.9068 48.3473 64.7895 48.4061 64.6582C48.4649 64.527 48.4953 64.3848 48.4953 64.241C48.4953 64.0972 48.4649 63.955 48.4061 63.8238C48.3473 63.6926 48.2615 63.5752 48.1542 63.4794C48.0469 63.3836 47.9205 63.3115 47.7834 63.2679C47.6463 63.2243 47.5015 63.2101 47.3585 63.2262Z" fill="#333333"/>
<path d="M40.7612 51.6565C40.6245 51.6608 40.4895 51.6248 40.3731 51.5531C40.2393 51.4724 40.1346 51.3512 40.0741 51.2072C40.0137 51.0631 40.0006 50.9036 40.0368 50.7516L52.3906 14.1681C52.4392 14.0249 52.5315 13.9005 52.6545 13.8124C52.7774 13.7243 52.9249 13.6769 53.0762 13.6768H66.8013C66.9327 13.676 67.0619 13.7109 67.175 13.7778C67.2881 13.8447 67.3809 13.9411 67.4433 14.0567C67.5058 14.1722 67.5356 14.3026 67.5296 14.4338C67.5236 14.565 67.482 14.6921 67.4093 14.8015L58.6387 28.1164H64.1623C64.3167 28.1067 64.4701 28.1467 64.6001 28.2304C64.7301 28.3141 64.8298 28.4372 64.8848 28.5817C64.9397 28.7262 64.9469 28.8844 64.9054 29.0333C64.8638 29.1822 64.7757 29.3138 64.6539 29.4091L41.3304 51.5143C41.1922 51.6393 41.0123 51.7085 40.8259 51.7082M53.6583 15.1376L42.3782 48.4635L62.3384 29.5642H57.2933C57.1632 29.5669 57.0349 29.5332 56.9229 29.467C56.811 29.4008 56.7197 29.3046 56.6595 29.1893C56.5923 29.0758 56.5569 28.9463 56.5569 28.8144C56.5569 28.6825 56.5923 28.5531 56.6595 28.4395L65.4301 15.1376H53.6583Z" fill="#333333"/>
<path d="M40.7612 51.6565C40.5748 51.6567 40.3949 51.5876 40.2567 51.4626L16.8685 29.3703C16.7601 29.2739 16.6844 29.1462 16.652 29.0049C16.6195 28.8636 16.6319 28.7157 16.6874 28.5817C16.738 28.4444 16.8297 28.326 16.9501 28.2427C17.0705 28.1595 17.2136 28.1153 17.3601 28.1163H22.8837L14.1649 14.8015C14.0946 14.6914 14.0573 14.5636 14.0573 14.4331C14.0573 14.3025 14.0946 14.1747 14.1649 14.0646C14.2288 13.9487 14.3224 13.8517 14.436 13.7836C14.5496 13.7155 14.6792 13.6786 14.8117 13.6768H28.3944C28.5453 13.6788 28.6919 13.7269 28.8145 13.8148C28.9371 13.9026 29.0298 14.0259 29.08 14.168L41.3562 50.6353C41.4135 50.7429 41.4445 50.8625 41.4468 50.9843C41.4468 51.1763 41.3705 51.3604 41.2346 51.4962C41.0988 51.6319 40.9145 51.7082 40.7224 51.7082L40.7612 51.6565ZM19.184 29.5642L39.1442 48.4635L27.9287 15.1376H16.0665L24.837 28.3878C24.9042 28.5013 24.9396 28.6308 24.9396 28.7627C24.9396 28.8946 24.9042 29.024 24.837 29.1376C24.7746 29.251 24.6828 29.3456 24.5713 29.4115C24.4599 29.4775 24.3327 29.5123 24.2032 29.5125L19.184 29.5642Z" fill="#333333"/>
<path d="M71.6264 42.8661H60.191" stroke="#333333" stroke-width="2.4" stroke-linecap="round" stroke-linejoin="round"/>
<path d="M40.7612 70C40.5691 70 40.3848 69.9237 40.2489 69.788C40.1131 69.6522 40.0368 69.4681 40.0368 69.2761V50.3638C40.0368 50.1718 40.1131 49.9877 40.2489 49.8519C40.3848 49.7162 40.5691 49.6399 40.7612 49.6399C40.9533 49.6399 41.1376 49.7162 41.2734 49.8519C41.4093 49.9877 41.4856 50.1718 41.4856 50.3638V69.2761C41.4856 69.4681 41.4093 69.6522 41.2734 69.788C41.1376 69.9237 40.9533 70 40.7612 70Z" fill="#333333"/>
<path d="M71.6264 40.6556H60.191L65.9087 35.084L71.6264 40.6556Z" fill="#26AAE2"/>
<path d="M65.9087 53.1302C64.1933 53.1302 62.5481 52.4492 61.3351 51.2371C60.1221 50.0249 59.4407 48.3809 59.4407 46.6667V42.7885C59.4407 42.5966 59.517 42.4124 59.6529 42.2767C59.7887 42.1409 59.973 42.0646 60.1651 42.0646H71.6134C71.8056 42.0646 71.9898 42.1409 72.1257 42.2767C72.2615 42.4124 72.3379 42.5966 72.3379 42.7885V46.6667C72.3379 48.3809 71.6564 50.0249 70.4434 51.2371C69.2304 52.4492 67.5853 53.1302 65.8699 53.1302M60.8766 43.5771V46.6925C60.8766 48.0159 61.4027 49.2851 62.3391 50.2209C63.2755 51.1566 64.5456 51.6824 65.8699 51.6824C67.1942 51.6824 68.4642 51.1566 69.4007 50.2209C70.3371 49.2851 70.8632 48.0159 70.8632 46.6925V43.5771H60.8766Z" fill="#333333"/>
<path d="M57.9143 15.1376H52.9727C52.7794 15.1342 52.5952 15.0551 52.4597 14.9172C52.3242 14.7794 52.2483 14.5939 52.2483 14.4007V7.93721C52.2382 7.52687 52.067 7.13698 51.7718 6.85161C51.4765 6.56625 51.0809 6.4083 50.6701 6.41181H30.8523C30.4371 6.41181 30.039 6.57661 29.7455 6.86995C29.4519 7.16329 29.287 7.56114 29.287 7.97599V14.4395C29.287 14.6327 29.2111 14.8182 29.0756 14.956C28.9401 15.0938 28.7559 15.173 28.5626 15.1764H23.5952C23.4019 15.173 23.2176 15.0938 23.0821 14.956C22.9467 14.8182 22.8707 14.6327 22.8708 14.4395V5.39057C22.8742 3.98595 23.4341 2.63984 24.428 1.64662C25.4219 0.653395 26.7689 0.0938981 28.1745 0.0904846H53.3479C54.7535 0.0938981 56.1005 0.653395 57.0944 1.64662C58.0883 2.63984 58.6482 3.98595 58.6516 5.39057V14.4395C58.6483 14.6339 58.5695 14.8194 58.432 14.9569C58.2944 15.0943 58.1088 15.173 57.9143 15.1764M53.6842 13.7156H57.1899V5.30009C57.1899 4.27155 56.781 3.28513 56.0532 2.55785C55.3254 1.83056 54.3383 1.42197 53.3091 1.42197H28.1745C27.1453 1.42197 26.1582 1.83056 25.4304 2.55785C24.7026 3.28513 24.2937 4.27155 24.2937 5.30009V13.6768H27.8123V7.96306C27.8123 7.56752 27.8903 7.17585 28.0417 6.81042C28.1932 6.44498 28.4152 6.11294 28.6951 5.83325C28.975 5.55356 29.3073 5.3317 29.6729 5.18033C30.0386 5.02896 30.4306 4.95106 30.8264 4.95106H50.6701C51.4695 4.95106 52.2362 5.26839 52.8014 5.83325C53.3667 6.39811 53.6842 7.16423 53.6842 7.96306V13.7156Z" fill="#333333"/>
</svg>
