<svg width="28" height="91" viewBox="0 0 28 91" fill="none" xmlns="http://www.w3.org/2000/svg">
<g clip-path="url(#clip0_23_374)">
<path d="M4.85302e-05 90.6901C4.86555e-05 87.8223 1.52703 86.3386 2.75382 85.1637C3.98061 83.9888 4.68106 83.2263 4.68106 81.6535C4.68106 80.0808 3.98461 79.3328 2.75382 78.1434C1.52303 76.954 4.91947e-05 75.4869 4.93202e-05 72.617C4.94456e-05 69.7471 1.52703 68.2654 2.75382 67.0905C3.98061 65.9156 4.68106 65.1531 4.68106 63.5804C4.68106 62.0076 3.98461 61.2596 2.75382 60.0702C1.52303 58.8808 4.99848e-05 57.4117 5.01102e-05 54.5438C5.02355e-05 51.676 1.52703 50.1923 2.75382 49.0153C3.98061 47.8384 4.68106 47.0779 4.68106 45.5052C4.68106 43.9324 3.98461 43.1823 2.75382 41.995C1.52303 40.8076 5.07749e-05 39.3365 5.09004e-05 36.4666C5.10258e-05 33.5967 1.52703 32.1151 2.75382 30.9381C3.98061 29.7611 4.68106 29.0007 4.68106 27.4279C4.68106 25.8552 3.98461 25.1051 2.75382 23.9178C1.52303 22.7304 5.15651e-05 21.2592 5.16905e-05 18.3893C5.1816e-05 15.5194 1.52704 14.0378 2.75382 12.8608C3.98061 11.6838 4.68106 10.9234 4.68106 9.34858C4.68106 7.77376 3.98462 7.02573 2.75382 5.8384C1.52303 4.65107 5.23554e-05 3.17982 5.24808e-05 0.309917C-0.0231006 0.134086 -0.00962978 -0.0448013 0.0395554 -0.214794C0.0887407 -0.384787 0.172501 -0.541973 0.285209 -0.675661C0.397917 -0.80935 0.536959 -0.916497 0.692991 -0.989921C0.849022 -1.06335 1.01843 -1.10132 1.18982 -1.10132C1.36121 -1.10132 1.53062 -1.06335 1.68665 -0.989921C1.84268 -0.916497 1.98172 -0.80935 2.09443 -0.675661C2.20714 -0.541973 2.2909 -0.384787 2.34008 -0.214794C2.38927 -0.0448012 2.40274 0.134086 2.37958 0.309917C2.37958 1.88266 3.07603 2.63276 4.30682 3.8201C5.53762 5.00743 7.05859 6.47868 7.05859 9.34858C7.05859 12.2185 5.53361 13.7 4.30682 14.877C3.08004 16.0539 2.37958 16.8165 2.37958 18.3893C2.37958 19.962 3.07603 20.7121 4.30682 21.8994C5.53762 23.0868 7.05859 24.558 7.05859 27.4279C7.05859 30.2978 5.53361 31.7793 4.30682 32.9563C3.08003 34.1333 2.37958 34.8938 2.37958 36.4666C2.37958 38.0393 3.07603 38.7894 4.30682 39.9768C5.53761 41.1641 7.05859 42.6353 7.05859 45.5052C7.05859 48.3751 5.53361 49.8566 4.30682 51.0315C3.08003 52.2064 2.37958 52.9711 2.37958 54.5438C2.37958 56.1166 3.07603 56.8646 4.30682 58.054C5.53761 59.2434 7.05859 60.7105 7.05859 63.5804C7.05859 66.4503 5.53361 67.9319 4.30682 69.1068C3.08003 70.2817 2.37958 71.0443 2.37958 72.617C2.37958 74.1898 3.07603 74.9378 4.30682 76.1272C5.53761 77.3166 7.05859 78.7836 7.05859 81.6535C7.05859 84.5234 5.53361 86.005 4.30682 87.1799C3.08003 88.3548 2.37958 89.1173 2.37958 90.6901C2.40273 90.8659 2.38926 91.0449 2.34008 91.2149C2.29089 91.3849 2.20713 91.542 2.09442 91.6757C1.98172 91.8094 1.84267 91.9165 1.68664 91.9899C1.53061 92.0633 1.3612 92.1013 1.18981 92.1013C1.01842 92.1013 0.849018 92.0633 0.692987 91.9899C0.536955 91.9165 0.397913 91.8094 0.285205 91.6757C0.172497 91.542 0.0887366 91.3849 0.0395514 91.2149C-0.00963376 91.0449 -0.0231046 90.8659 4.85302e-05 90.6901Z" fill="#26AAE2"/>
<path d="M10.4708 90.6901C10.4708 87.8223 11.9977 86.3386 13.2225 85.1637C14.4473 83.9888 15.1498 83.2263 15.1498 81.6535C15.1498 80.0808 14.4533 79.3328 13.2225 78.1434C11.9917 76.954 10.4708 75.4869 10.4708 72.617C10.4708 69.7471 11.9977 68.2654 13.2225 67.0905C14.4473 65.9156 15.1498 65.1531 15.1498 63.5804C15.1498 62.0076 14.4533 61.2596 13.2225 60.0702C11.9917 58.8808 10.4708 57.4117 10.4708 54.5438C10.4708 51.676 11.9977 50.1923 13.2225 49.0153C14.4473 47.8384 15.1498 47.0779 15.1498 45.5052C15.1498 43.9324 14.4533 43.1823 13.2225 41.995C11.9917 40.8076 10.4708 39.3365 10.4708 36.4666C10.4708 33.5967 11.9977 32.1151 13.2225 30.9381C14.4473 29.7611 15.1498 29.0007 15.1498 27.4279C15.1498 25.8552 14.4533 25.1051 13.2225 23.9178C11.9917 22.7304 10.4708 21.2592 10.4708 18.3893C10.4708 15.5194 11.9977 14.0378 13.2225 12.8608C14.4473 11.6838 15.1498 10.9234 15.1498 9.34858C15.1498 7.77376 14.4533 7.02573 13.2225 5.8384C11.9917 4.65107 10.4708 3.17982 10.4708 0.309917C10.4476 0.134086 10.4611 -0.0448013 10.5103 -0.214794C10.5594 -0.384787 10.6432 -0.541973 10.7559 -0.675661C10.8686 -0.80935 11.0077 -0.916497 11.1637 -0.989921C11.3197 -1.06335 11.4891 -1.10132 11.6605 -1.10132C11.8319 -1.10132 12.0013 -1.06335 12.1574 -0.989921C12.3134 -0.916497 12.4524 -0.80935 12.5651 -0.675661C12.6778 -0.541973 12.7616 -0.384787 12.8108 -0.214794C12.86 -0.0448012 12.8734 0.134086 12.8503 0.309917C12.8503 1.88266 13.5467 2.63276 14.7775 3.8201C16.0083 5.00743 17.5293 6.47868 17.5293 9.34858C17.5293 12.2185 16.0023 13.7 14.7775 14.877C13.5527 16.0539 12.8503 16.8165 12.8503 18.3893C12.8503 19.962 13.5467 20.7121 14.7775 21.8994C16.0083 23.0868 17.5293 24.558 17.5293 27.4279C17.5293 30.2978 16.0023 31.7793 14.7775 32.9563C13.5527 34.1333 12.8503 34.8938 12.8503 36.4666C12.8503 38.0393 13.5467 38.7894 14.7775 39.9768C16.0083 41.1641 17.5293 42.6353 17.5293 45.5052C17.5293 48.3751 16.0023 49.8566 14.7775 51.0315C13.5527 52.2064 12.8503 52.9711 12.8503 54.5438C12.8503 56.1166 13.5467 56.8646 14.7775 58.054C16.0083 59.2434 17.5293 60.7105 17.5293 63.5804C17.5293 66.4503 16.0023 67.9319 14.7775 69.1068C13.5527 70.2817 12.8503 71.0443 12.8503 72.617C12.8503 74.1898 13.5467 74.9378 14.7775 76.1272C16.0083 77.3166 17.5293 78.7836 17.5293 81.6535C17.5293 84.5234 16.0023 86.005 14.7775 87.1799C13.5527 88.3548 12.8503 89.1173 12.8503 90.6901C12.8734 90.8659 12.86 91.0449 12.8108 91.2149C12.7616 91.3849 12.6778 91.542 12.5651 91.6757C12.4524 91.8094 12.3134 91.9165 12.1573 91.9899C12.0013 92.0633 11.8319 92.1013 11.6605 92.1013C11.4891 92.1013 11.3197 92.0633 11.1637 91.9899C11.0077 91.9165 10.8686 91.8094 10.7559 91.6757C10.6432 91.542 10.5594 91.3849 10.5103 91.2149C10.4611 91.0449 10.4476 90.8659 10.4708 90.6901Z" fill="#26AAE2"/>
<path d="M20.9415 90.6901C20.9415 87.8223 22.4664 86.3386 23.6932 85.1637C24.92 83.9888 25.6205 83.2263 25.6205 81.6535C25.6205 80.0808 24.924 79.3328 23.6932 78.1434C22.4624 76.954 20.9415 75.4869 20.9415 72.617C20.9415 69.7471 22.4664 68.2654 23.6932 67.0905C24.92 65.9156 25.6205 65.1531 25.6205 63.5804C25.6205 62.0076 24.924 61.2596 23.6932 60.0702C22.4624 58.8808 20.9415 57.4117 20.9415 54.5438C20.9415 51.676 22.4664 50.1923 23.6932 49.0153C24.92 47.8384 25.6205 47.0779 25.6205 45.5052C25.6205 43.9324 24.924 43.1823 23.6932 41.995C22.4624 40.8076 20.9415 39.3365 20.9415 36.4666C20.9415 33.5967 22.4664 32.1151 23.6932 30.9381C24.92 29.7611 25.6205 29.0007 25.6205 27.4279C25.6205 25.8552 24.924 25.1051 23.6932 23.9178C22.4624 22.7304 20.9415 21.2592 20.9415 18.3893C20.9415 15.5194 22.4664 14.0378 23.6932 12.8608C24.92 11.6838 25.6205 10.9234 25.6205 9.34858C25.6205 7.77376 24.924 7.02573 23.6932 5.8384C22.4624 4.65107 20.9415 3.17982 20.9415 0.309917C20.9183 0.134086 20.9318 -0.0448013 20.981 -0.214794C21.0301 -0.384787 21.1139 -0.541973 21.2266 -0.675661C21.3393 -0.80935 21.4784 -0.916497 21.6344 -0.989921C21.7904 -1.06335 21.9598 -1.10132 22.1312 -1.10132C22.3026 -1.10132 22.472 -1.06335 22.6281 -0.989921C22.7841 -0.916497 22.9231 -0.80935 23.0358 -0.675661C23.1485 -0.541973 23.2323 -0.384787 23.2815 -0.214794C23.3307 -0.0448012 23.3441 0.134086 23.321 0.309917C23.321 1.88266 24.0154 2.63276 25.2482 3.8201C26.481 5.00743 28 6.47868 28 9.34858C28 12.2185 26.473 13.7 25.2482 14.877C24.0234 16.0539 23.321 16.8165 23.321 18.3893C23.321 19.962 24.0154 20.7121 25.2462 21.8994C26.477 23.0868 28 24.558 28 27.4279C28 30.2978 26.473 31.7793 25.2462 32.9563C24.0194 34.1333 23.321 34.8939 23.321 36.4666C23.321 38.0393 24.0154 38.7894 25.2462 39.9768C26.477 41.1641 28 42.6353 28 45.5052C28 48.3751 26.473 49.8566 25.2462 51.0315C24.0194 52.2064 23.321 52.9711 23.321 54.5438C23.321 56.1166 24.0154 56.8646 25.2462 58.054C26.477 59.2434 28 60.7105 28 63.5804C28 66.4503 26.473 67.9319 25.2462 69.1068C24.0194 70.2817 23.321 71.0443 23.321 72.617C23.321 74.1898 24.0154 74.9378 25.2462 76.1272C26.477 77.3166 28 78.7836 28 81.6535C28 84.5234 26.473 86.005 25.2462 87.1799C24.0194 88.3548 23.321 89.1173 23.321 90.6901C23.3441 90.8659 23.3307 91.0449 23.2815 91.2149C23.2323 91.3849 23.1485 91.542 23.0358 91.6757C22.9231 91.8094 22.7841 91.9165 22.628 91.9899C22.472 92.0633 22.3026 92.1013 22.1312 92.1013C21.9598 92.1013 21.7904 92.0633 21.6344 91.9899C21.4784 91.9165 21.3393 91.8094 21.2266 91.6757C21.1139 91.542 21.0301 91.3849 20.981 91.2149C20.9318 91.0449 20.9183 90.8659 20.9415 90.6901Z" fill="#26AAE2"/>
</g>
<defs>
<clipPath id="clip0_23_374">
<rect width="91" height="28" fill="white" transform="translate(28) rotate(90)"/>
</clipPath>
</defs>
</svg>
