<svg width="208" height="77" viewBox="0 0 208 77" fill="none" xmlns="http://www.w3.org/2000/svg">
<path d="M28.3869 41.7069L64.6582 0L0 44.874L29.6823 70L26.7178 48.8857L31.0649 45.5199L28.3869 41.7069ZM20.5521 44.1909L14.947 39.9556L24.0149 33.7456L20.5521 44.1909Z" fill="#003399"/>
<path d="M68.6939 36.2296H60.0496V44.0667H72.2438L67.1245 49.544H60.0496V62.1008H53.8217V30.7026H73.751L68.6939 36.2296Z" fill="#003399"/>
<path d="M79.8045 36.9872C78.8649 36.9743 77.9676 36.5955 77.3043 35.9318C76.641 35.268 76.2643 34.372 76.2546 33.435C76.2553 32.9725 76.3481 32.5147 76.5277 32.0883C76.7073 31.6618 76.9701 31.2753 77.3009 30.951C77.62 30.6115 78.006 30.3414 78.4347 30.1576C78.8633 29.9738 79.3255 29.8802 79.7921 29.8829C80.2584 29.8825 80.7198 29.977 81.1482 30.1607C81.5765 30.3443 81.9628 30.6133 82.2832 30.951C82.6157 31.2746 82.8805 31.6608 83.0622 32.0872C83.244 32.5136 83.3391 32.9717 83.342 33.435C83.3411 33.8986 83.247 34.3574 83.0651 34.7841C82.8833 35.2107 82.6174 35.5967 82.2832 35.9191C81.9612 36.2514 81.5764 36.5168 81.1509 36.7001C80.7255 36.8834 80.2679 36.981 79.8045 36.9872ZM76.9272 62.1008V39.67H82.7317V62.1008H76.9272Z" fill="#003399"/>
<path d="M105.077 30.7026H110.857V62.1008H105.077V59.4553C104.213 60.5417 103.101 61.4061 101.833 61.9765C100.566 62.5469 99.1796 62.8067 97.7908 62.7342C96.3261 62.7453 94.876 62.4441 93.5377 61.8508C92.1993 61.2574 91.0036 60.3856 90.0308 59.2938C87.9004 57.0314 86.7464 54.0252 86.8172 50.9227C86.7392 47.8077 87.8936 44.7873 90.0308 42.5142C91.0043 41.4241 92.2004 40.5542 93.5388 39.9629C94.8772 39.3717 96.327 39.0728 97.7908 39.0862C99.1785 39.0123 100.564 39.2701 101.831 39.8383C103.099 40.4066 104.212 41.2686 105.077 42.3527V30.7026ZM93.1572 55.4436C93.7426 56.026 94.4413 56.4828 95.2103 56.7861C95.9792 57.0894 96.8023 57.2327 97.6288 57.2073C98.4621 57.2424 99.2936 57.1037 100.07 56.8C100.846 56.4963 101.551 56.0343 102.138 55.4436C103.26 54.1914 103.88 52.5709 103.88 50.8916C103.88 49.2123 103.26 47.5918 102.138 46.3396C101.557 45.7535 100.861 45.2933 100.094 44.9877C99.3268 44.6821 98.5045 44.5377 97.6787 44.5635C96.8513 44.5404 96.0279 44.686 95.259 44.9914C94.4901 45.2968 93.7918 45.7556 93.207 46.3396C92.0612 47.5802 91.4251 49.2051 91.4251 50.8916C91.4251 52.5781 92.0612 54.203 93.207 55.4436H93.1572Z" fill="#003399"/>
<path d="M121.096 53.2701C121.88 56.0771 123.985 57.4806 127.436 57.4806C128.385 57.5305 129.332 57.3537 130.199 56.9648C131.065 56.576 131.826 55.9863 132.418 55.2449L137.089 57.9277C136.007 59.5012 134.536 60.77 132.819 61.6119C131.102 62.4539 129.197 62.8404 127.286 62.7343C125.643 62.8081 124.001 62.5478 122.461 61.9692C120.922 61.3906 119.516 60.5057 118.33 59.3684C117.235 58.2568 116.376 56.9353 115.807 55.4838C115.237 54.0322 114.969 52.4807 115.017 50.9227C114.964 49.3568 115.23 47.7964 115.8 46.3362C116.369 44.8759 117.23 43.5461 118.33 42.4273C119.444 41.3066 120.778 40.4279 122.248 39.8465C123.719 39.2651 125.294 38.9936 126.875 39.0491C128.4 39.0037 129.916 39.2839 131.324 39.8708C132.731 40.4577 133.996 41.3379 135.034 42.4522C137.19 44.7395 138.35 47.785 138.26 50.9227C138.25 51.723 138.171 52.5208 138.023 53.3074L121.096 53.2701ZM121.008 48.7865H132.48C132.251 47.4307 131.517 46.2111 130.425 45.3709C129.402 44.6282 128.165 44.2361 126.9 44.2531C125.513 44.205 124.15 44.6203 123.026 45.433C121.975 46.2758 121.259 47.4648 121.008 48.7865Z" fill="#003399"/>
<path d="M146.78 46.0414C146.78 46.6376 147.178 47.1344 148.025 47.507C148.959 47.9257 149.931 48.2542 150.927 48.4882C152.086 48.7804 153.225 49.1412 154.34 49.5688C155.492 50.0086 156.498 50.7616 157.242 51.7423C158.084 52.8332 158.524 54.1794 158.488 55.5553C158.52 56.5931 158.29 57.6223 157.82 58.5488C157.35 59.4752 156.655 60.2694 155.798 60.8587C153.903 62.1534 151.641 62.8065 149.345 62.7217C144.724 62.7217 141.573 60.9332 139.904 57.381L144.886 54.5492C145.169 55.4691 145.764 56.2627 146.568 56.7949C147.371 57.327 148.336 57.5649 149.296 57.468C151.363 57.468 152.397 56.8221 152.397 55.5429C152.397 54.9467 151.999 54.4623 151.152 54.0773C150.216 53.6569 149.245 53.3202 148.249 53.0712C147.086 52.7663 145.943 52.393 144.824 51.9534C143.715 51.4987 142.741 50.7674 141.997 49.8296C141.158 48.7994 140.716 47.5044 140.751 46.1781C140.722 45.1776 140.934 44.1847 141.367 43.2819C141.8 42.379 142.443 41.5921 143.242 40.9864C145.002 39.6818 147.154 39.0118 149.345 39.0861C151.085 39.073 152.799 39.5003 154.328 40.3282C155.82 41.1475 157.051 42.3701 157.878 43.8555L152.895 46.5382C152.601 45.8365 152.098 45.2413 151.455 44.8328C150.811 44.4243 150.058 44.2219 149.296 44.2529C148.636 44.2233 147.984 44.3968 147.427 44.7497C147.221 44.8951 147.054 45.0891 146.941 45.3145C146.828 45.5398 146.772 45.7896 146.78 46.0414Z" fill="#003399"/>
<path d="M172.513 62.7341C170.952 62.7575 169.401 62.468 167.954 61.8826C166.507 61.2971 165.193 60.4278 164.089 59.3261C162.985 58.2244 162.115 56.9128 161.529 55.4693C160.944 54.0257 160.655 52.4795 160.68 50.9225C160.692 48.8476 161.247 46.8118 162.29 45.0166C163.334 43.2214 164.829 41.7292 166.629 40.6876C168.429 39.646 170.47 39.0913 172.551 39.0784C174.631 39.0654 176.68 39.5947 178.492 40.6138C180.233 41.6041 181.655 43.069 182.59 44.8366L177.608 47.7429C177.159 46.8254 176.448 46.0606 175.565 45.5446C174.627 45.0029 173.56 44.724 172.476 44.7372C171.675 44.7134 170.878 44.8544 170.134 45.1515C169.391 45.4485 168.717 45.8952 168.154 46.4636C167.577 47.0507 167.128 47.7491 166.832 48.5159C166.537 49.2827 166.401 50.1017 166.435 50.9225C166.413 51.7233 166.554 52.5201 166.85 53.265C167.145 54.01 167.589 54.6876 168.154 55.2571C168.713 55.8264 169.385 56.2738 170.127 56.571C170.869 56.8681 171.664 57.0086 172.464 56.9835C173.556 57.0008 174.635 56.7309 175.59 56.2011C176.482 55.7039 177.2 54.9451 177.645 54.0275L182.627 56.8966C181.644 58.6615 180.198 60.1257 178.442 61.1319C176.65 62.1952 174.599 62.7492 172.513 62.7341Z" fill="#003399"/>
<path d="M204.537 59.2938C202.878 60.9651 200.758 62.1063 198.446 62.5721C196.134 63.038 193.736 62.8074 191.556 61.9097C189.376 61.0121 187.514 59.4879 186.205 57.5313C184.897 55.5747 184.202 53.2742 184.209 50.9226C184.216 48.9751 184.704 47.0593 185.63 45.3443C186.555 43.6294 187.89 42.1681 189.516 41.0894C191.142 40.0108 193.01 39.348 194.954 39.1596C196.898 38.9712 198.858 39.263 200.663 40.0093C202.467 40.7555 204.059 41.9332 205.298 43.4383C206.537 44.9435 207.386 46.7298 207.769 48.6395C208.152 50.5492 208.057 52.5235 207.494 54.3882C206.93 56.2528 205.915 57.9504 204.537 59.331V59.2938ZM191.745 55.3317C192.302 55.9158 192.976 56.3776 193.722 56.6877C194.468 56.9978 195.271 57.1493 196.08 57.1327C196.888 57.1547 197.692 57.0106 198.442 56.7093C199.192 56.408 199.872 55.956 200.439 55.3814C201.567 54.1763 202.194 52.5895 202.194 50.9412C202.194 49.2929 201.567 47.7061 200.439 46.501C199.872 45.9264 199.192 45.4744 198.442 45.1731C197.692 44.8718 196.888 44.7277 196.08 44.7498C195.275 44.7267 194.474 44.8704 193.728 45.1718C192.982 45.4733 192.307 45.9259 191.745 46.501C190.631 47.7128 190.013 49.2971 190.013 50.9412C190.013 52.5853 190.631 54.1696 191.745 55.3814V55.3317Z" fill="#003399"/>
</svg>
