<svg width="225" height="78" viewBox="0 0 225 78" fill="none" xmlns="http://www.w3.org/2000/svg">
<path fill-rule="evenodd" clip-rule="evenodd" d="M4.7056 18.7861L0 16.9048V22.5468H26.3502V16.9048L21.6446 18.7861L13.1761 16.9048L4.7056 18.7861ZM28.2336 77.0855V51.6965H30.8017L26.3483 39.4728H15.0556V42.2938L18.8205 43.3013V54.3896L9.40927 44.9869V35.7121H26.3483V26.3094H0V48.8735L28.2317 77.0835L28.2336 77.0855ZM95.5784 58.2588V62.0388H90.5043C87.3233 62.0388 86.6347 61.5215 86.6347 58.3867V45.1729H83.7543V41.4781L91.8368 35.8206V41.4781H95.5765V45.1729H91.8368V56.8405C91.8368 58.129 91.9687 58.2588 93.2547 58.2588H95.5784ZM104.728 45.9169V62.0388H99.6556V41.4781H104.728V42.9254C106.404 41.5498 107.822 41.2514 109.499 41.2514C111.22 41.2514 112.768 41.635 113.93 43.0107C115.087 41.6796 116.893 41.2514 118.526 41.2514C120.505 41.2514 123.298 42.3655 123.298 44.1693V62.0369H118.228V46.1262C118.228 45.4868 118.141 45.3957 117.497 45.3957H114.486C114.187 45.3957 114.013 45.6127 114.013 45.913V62.0388H108.898V46.1281C108.898 45.4887 108.811 45.3996 108.209 45.3996H105.156C104.9 45.3996 104.73 45.6147 104.73 45.915L104.728 45.9169ZM132.841 56.9703C132.841 58.2588 132.932 58.2588 134.218 58.2588H137.054V51.8185H134.176C132.884 51.8185 132.841 51.8612 132.841 53.1496V56.9703ZM142.171 45.1322V62.0388H131.641C128.504 62.0388 127.773 61.5215 127.773 58.3867V51.7759C127.773 48.7728 128.335 48.1237 131.386 48.1237H137.058V46.2908C137.058 45.1807 137.058 45.1729 135.939 45.1729H128.081L133.361 41.4781H138.303C141.434 41.4781 142.171 41.9954 142.171 45.1303V45.1322ZM151.902 45.915V62.0388H146.834V41.4781H151.906V42.9254C153.582 41.5498 154.872 41.2514 156.55 41.2514C158.528 41.2514 161.189 42.3228 161.189 44.1286V62.0388H156.074V46.1281C156.074 45.4848 155.987 45.3996 155.386 45.3996H152.333C152.075 45.3996 151.902 45.6147 151.902 45.915ZM173.671 35.559C172.982 35.559 172.767 35.7295 172.767 36.46L172.781 40.0056L181.431 50.1503L183.379 48.7863V52.4347L189.301 59.3787L185.181 62.2597L183.148 59.8766C182.696 61.415 181.583 62.033 179.342 62.033L174.951 62.0369L170.564 62.0388C167.511 62.0388 166.49 61.0062 166.479 57.9158L166.434 47.6064C166.428 45.8898 168.215 44.5568 169.887 44.5142C168.215 44.4735 167.439 42.968 167.439 41.2514V34.567C167.439 32.3854 168.393 31.9495 170.406 31.9495H177.917C179.926 31.9495 180.923 32.3777 180.923 34.567V40.4377L176.196 43.7488V36.46C176.196 35.7373 175.981 35.559 175.292 35.559H173.671ZM171.809 56.6739C171.815 57.8345 172.026 57.9623 173.054 57.9623L177.399 57.9585C178.431 57.9585 178.671 57.8287 178.646 56.67L178.602 54.5523L171.71 46.4691L171.809 56.6739ZM204.052 58.0883V62.0408H194.592C192.573 62.0408 191.624 61.6087 191.624 59.462V44.1015C191.624 41.9082 192.575 41.4781 194.592 41.4781H202.199C204.22 41.4781 205.21 41.9082 205.21 44.1015V47.8118L200.481 51.1191V46.0738C200.481 45.3473 200.266 45.1729 199.577 45.1729H197.556C196.867 45.1729 196.654 45.3434 196.654 46.0738V57.1854C196.654 57.8713 196.96 58.0863 197.6 58.0863L204.052 58.0883ZM71.517 50.193V46.4342C71.5267 45.295 71.6858 45.1729 72.8942 45.1729H74.3993C75.6077 45.1729 75.7629 45.2911 75.7746 46.4323V50.191C75.7668 51.3342 75.6077 51.4543 74.3993 51.4543H72.8942C71.6838 51.4543 71.5267 51.3342 71.517 50.193ZM71.517 56.9703V55.1491H77.0198C80.1737 55.1491 80.8468 54.6163 80.8468 51.4988V45.1303C80.8468 42.0109 80.1737 41.4781 77.0218 41.4781H70.2718C67.1198 41.4781 66.4468 42.0128 66.4468 45.1303V58.3867C66.4468 61.5196 67.1392 62.0388 70.2737 62.0388H80.1077V58.344H72.8922C71.647 58.344 71.517 58.2181 71.517 56.9703ZM216.663 45.1729C217.872 45.1729 218.029 45.2911 218.039 46.4323V57.0808C218.029 58.2239 217.872 58.3421 216.663 58.3421H215.16C213.95 58.3421 213.793 58.2239 213.783 57.0827V46.4342C213.793 45.295 213.95 45.1729 215.16 45.1729H216.663ZM212.534 41.4781C209.38 41.4781 208.707 42.0128 208.707 45.1303V58.3867C208.707 61.506 209.38 62.0388 212.534 62.0388H219.284C222.436 62.0388 223.111 61.5041 223.111 58.3867V45.1303C223.111 42.0109 222.436 41.4781 219.284 41.4781H212.534ZM61.7838 40.4415V62.0388H51.2263C48.0453 62.0388 45.8534 61.2193 45.8534 58.0437V35.9872C45.8534 32.8155 47.7543 31.9514 50.9276 31.9514H61.0817V35.9872H53.1659C51.4474 35.9872 51.1468 36.2875 51.1468 37.576V56.6293C51.1468 57.9178 51.4106 57.9604 53.0825 57.9604H56.5429V49.168H54.6401V45.4461L61.7877 40.4415H61.7838Z" fill="#333333"/>
</svg>
