<svg width="172" height="53" viewBox="0 0 172 53" fill="none" xmlns="http://www.w3.org/2000/svg">
<g clip-path="url(#clip0_31_1028)">
<path d="M170.508 52.9998C165.145 52.9998 162.371 50.1095 160.174 47.7874C157.977 45.4652 156.551 44.1394 153.609 44.1394C150.668 44.1394 149.269 45.4576 147.045 47.7874C144.821 50.1171 142.077 52.9998 136.711 52.9998C131.344 52.9998 128.573 50.1095 126.376 47.7874C124.179 45.4652 122.753 44.1394 119.811 44.1394C116.87 44.1394 115.471 45.4576 113.247 47.7874C111.023 50.1171 108.276 52.9998 102.913 52.9998C97.5495 52.9998 94.7749 50.1095 92.5739 47.7874C90.3729 45.4652 88.9508 44.1394 86.0096 44.1394C83.0685 44.1394 81.6658 45.4576 79.4454 47.7874C77.225 50.1171 74.4738 52.9998 69.1069 52.9998C63.74 52.9998 60.9693 50.1095 58.7683 47.7874C56.5673 45.4652 55.1452 44.1394 52.2041 44.1394C49.2629 44.1394 47.8602 45.4576 45.6398 47.7874C43.4194 50.1171 40.6681 52.9998 35.3012 52.9998C29.9343 52.9998 27.1636 50.1095 24.9626 47.7874C22.7616 45.4652 21.3395 44.1394 18.3945 44.1394C15.4495 44.1394 14.0506 45.4576 11.8303 47.7874C9.60987 50.1171 6.85854 52.9998 1.49164 52.9998C1.16282 53.0437 0.828294 53.0182 0.510397 52.9251C0.192499 52.832 -0.101449 52.6734 -0.351455 52.4601C-0.601461 52.2467 -0.801833 51.9836 -0.939141 51.6882C-1.07645 51.3929 -1.14746 51.0722 -1.14746 50.7478C-1.14746 50.4234 -1.07645 50.1027 -0.939141 49.8074C-0.801833 49.512 -0.601461 49.2488 -0.351455 49.0355C-0.101449 48.8222 0.192499 48.6636 0.510397 48.5705C0.828294 48.4774 1.16282 48.4519 1.49164 48.4957C4.43278 48.4957 5.83551 47.1775 8.0559 44.8477C10.2763 42.518 13.0276 39.639 18.3945 39.639C23.7614 39.639 26.5319 42.5256 28.733 44.8477C30.934 47.1699 32.36 48.4957 35.3012 48.4957C38.2423 48.4957 39.6451 47.1775 41.8654 44.8477C44.0858 42.518 46.8372 39.639 52.2041 39.639C57.571 39.639 60.3415 42.5256 62.5425 44.8477C64.7435 47.1699 66.1658 48.4957 69.1069 48.4957C72.0481 48.4957 73.4508 47.1775 75.6712 44.8477C77.8916 42.518 80.6427 39.639 86.0096 39.639C91.3765 39.639 94.1471 42.5256 96.3443 44.8477C98.5414 47.1699 99.9714 48.4957 102.913 48.4957C105.854 48.4957 107.253 47.1775 109.477 44.8477C111.701 42.518 114.445 39.639 119.811 39.639C125.178 39.639 127.949 42.5256 130.146 44.8477C132.343 47.1699 133.769 48.4957 136.711 48.4957C139.652 48.4957 141.051 47.1775 143.275 44.8477C145.499 42.518 148.243 39.639 153.609 39.639C158.976 39.639 161.747 42.5256 163.944 44.8477C166.141 47.1699 167.567 48.4957 170.508 48.4957C170.837 48.4519 171.172 48.4774 171.49 48.5705C171.808 48.6636 172.101 48.8222 172.351 49.0355C172.601 49.2488 172.802 49.512 172.939 49.8074C173.076 50.1027 173.147 50.4234 173.147 50.7478C173.147 51.0722 173.076 51.3929 172.939 51.6882C172.802 51.9836 172.601 52.2467 172.351 52.4601C172.101 52.6734 171.808 52.832 171.49 52.9251C171.172 53.0182 170.837 53.0437 170.508 52.9998Z" fill="#26AAE2"/>
<path d="M170.508 33.1804C165.145 33.1804 162.371 30.29 160.174 27.9717C157.977 25.6533 156.551 24.3237 153.609 24.3237C150.668 24.3237 149.269 25.642 147.045 27.9717C144.821 30.3014 142.077 33.1804 136.711 33.1804C131.344 33.1804 128.573 30.29 126.376 27.9717C124.179 25.6533 122.753 24.3237 119.811 24.3237C116.87 24.3237 115.471 25.642 113.247 27.9717C111.023 30.3014 108.276 33.1804 102.913 33.1804C97.5495 33.1804 94.7749 30.29 92.5739 27.9717C90.3729 25.6533 88.9508 24.3237 86.0096 24.3237C83.0685 24.3237 81.6658 25.642 79.4454 27.9717C77.225 30.3014 74.4738 33.1804 69.1069 33.1804C63.74 33.1804 60.9693 30.29 58.7683 27.9717C56.5673 25.6533 55.1452 24.3237 52.2041 24.3237C49.2629 24.3237 47.8602 25.642 45.6398 27.9717C43.4194 30.3014 40.6681 33.1804 35.3012 33.1804C29.9343 33.1804 27.1636 30.29 24.9626 27.9717C22.7616 25.6533 21.3395 24.3237 18.3945 24.3237C15.4495 24.3237 14.0506 25.642 11.8303 27.9717C9.60987 30.3014 6.85854 33.1804 1.49164 33.1804C1.16282 33.2242 0.828294 33.1987 0.510397 33.1056C0.192499 33.0125 -0.101449 32.854 -0.351455 32.6406C-0.601461 32.4273 -0.801833 32.1641 -0.939141 31.8688C-1.07645 31.5734 -1.14746 31.2528 -1.14746 30.9283C-1.14746 30.6039 -1.07645 30.2833 -0.939141 29.9879C-0.801833 29.6926 -0.601461 29.4294 -0.351455 29.216C-0.101449 29.0027 0.192499 28.8441 0.510397 28.751C0.828294 28.6579 1.16282 28.6325 1.49164 28.6763C4.43278 28.6763 5.83551 27.358 8.0559 25.0283C10.2763 22.6986 13.0276 19.8196 18.3945 19.8196C23.7614 19.8196 26.5319 22.7099 28.733 25.0283C30.934 27.3466 32.36 28.6763 35.3012 28.6763C38.2423 28.6763 39.6451 27.358 41.8654 25.0283C44.0858 22.6986 46.8372 19.8196 52.2041 19.8196C57.571 19.8196 60.3415 22.7099 62.5425 25.0283C64.7435 27.3466 66.1658 28.6763 69.1069 28.6763C72.0481 28.6763 73.4508 27.358 75.6712 25.0283C77.8916 22.6986 80.6427 19.8196 86.0096 19.8196C91.3765 19.8196 94.1471 22.7099 96.3443 25.0283C98.5414 27.3466 99.9714 28.6763 102.913 28.6763C105.854 28.6763 107.253 27.358 109.477 25.0283C111.701 22.6986 114.445 19.8196 119.811 19.8196C125.178 19.8196 127.949 22.7099 130.146 25.0283C132.343 27.3466 133.769 28.6763 136.711 28.6763C139.652 28.6763 141.051 27.358 143.275 25.0283C145.499 22.6986 148.243 19.8196 153.609 19.8196C158.976 19.8196 161.747 22.7099 163.944 25.0283C166.141 27.3466 167.567 28.6763 170.508 28.6763C170.837 28.6325 171.172 28.6579 171.49 28.751C171.808 28.8441 172.101 29.0027 172.351 29.216C172.601 29.4294 172.802 29.6926 172.939 29.9879C173.076 30.2833 173.147 30.6039 173.147 30.9283C173.147 31.2528 173.076 31.5734 172.939 31.8688C172.802 32.1641 172.601 32.4273 172.351 32.6406C172.101 32.854 171.808 33.0125 171.49 33.1056C171.172 33.1987 170.837 33.2242 170.508 33.1804Z" fill="#26AAE2"/>
<path d="M170.508 13.3608C165.145 13.3608 162.371 10.4742 160.174 8.1521C157.977 5.82997 156.551 4.50412 153.609 4.50412C150.668 4.50412 149.269 5.82239 147.045 8.1521C144.821 10.4818 142.077 13.3608 136.711 13.3608C131.344 13.3608 128.573 10.4742 126.376 8.1521C124.179 5.82997 122.753 4.50412 119.811 4.50412C116.87 4.50412 115.471 5.82239 113.247 8.1521C111.023 10.4818 108.276 13.3608 102.913 13.3608C97.5495 13.3608 94.7749 10.4742 92.5739 8.1521C90.3729 5.82997 88.9508 4.50412 86.0096 4.50412C83.0685 4.50412 81.6658 5.82239 79.4454 8.1521C77.225 10.4818 74.4738 13.3608 69.1069 13.3608C63.74 13.3608 60.9693 10.4742 58.7683 8.1521C56.5673 5.82997 55.1452 4.50412 52.2041 4.50412C49.2629 4.50412 47.8602 5.82239 45.6398 8.1521C43.4194 10.4818 40.6681 13.3608 35.3012 13.3608C29.9343 13.3608 27.1636 10.4742 24.9626 8.1521C22.7616 5.82997 21.3395 4.50412 18.3945 4.50412C15.4495 4.50412 14.0506 5.82239 11.8303 8.1521C9.60987 10.4818 6.85854 13.3608 1.49164 13.3608C1.16282 13.4046 0.828294 13.3791 0.510397 13.286C0.192499 13.1929 -0.101449 13.0344 -0.351455 12.821C-0.601461 12.6077 -0.801833 12.3445 -0.939141 12.0492C-1.07645 11.7538 -1.14746 11.4332 -1.14746 11.1088C-1.14746 10.7843 -1.07645 10.4637 -0.939141 10.1683C-0.801833 9.87298 -0.601461 9.6098 -0.351455 9.39646C-0.101449 9.18311 0.192499 9.02457 0.510397 8.93147C0.828294 8.83837 1.16282 8.81287 1.49164 8.8567C4.43278 8.8567 5.83551 7.54221 8.0559 5.20871C10.2763 2.87521 13.0276 0 18.3945 0C23.7614 0 26.5319 2.89036 28.733 5.20871C30.934 7.52705 32.36 8.8567 35.3012 8.8567C38.2423 8.8567 39.6451 7.54221 41.8654 5.2125C44.0858 2.88279 46.8372 0 52.2041 0C57.571 0 60.3415 2.89036 62.5425 5.2125C64.7435 7.53463 66.1658 8.8567 69.1069 8.8567C72.0481 8.8567 73.4508 7.54221 75.6712 5.2125C77.8916 2.88279 80.6427 0 86.0096 0C91.3765 0 94.1471 2.89036 96.3443 5.2125C98.5414 7.53463 99.9714 8.8567 102.913 8.8567C105.854 8.8567 107.253 7.54221 109.477 5.2125C111.701 2.88279 114.445 0 119.811 0C125.178 0 127.949 2.89036 130.146 5.2125C132.343 7.53463 133.769 8.8567 136.711 8.8567C139.652 8.8567 141.051 7.54221 143.275 5.2125C145.499 2.88279 148.243 0 153.609 0C158.976 0 161.747 2.89036 163.944 5.2125C166.141 7.53463 167.567 8.8567 170.508 8.8567C170.837 8.81287 171.172 8.83837 171.49 8.93147C171.808 9.02457 172.101 9.18311 172.351 9.39646C172.601 9.6098 172.802 9.87298 172.939 10.1683C173.076 10.4637 173.147 10.7843 173.147 11.1088C173.147 11.4332 173.076 11.7538 172.939 12.0492C172.802 12.3445 172.601 12.6077 172.351 12.821C172.101 13.0344 171.808 13.1929 171.49 13.286C171.172 13.3791 170.837 13.4046 170.508 13.3608Z" fill="#26AAE2"/>
</g>
<defs>
<clipPath id="clip0_31_1028">
<rect width="172" height="53" fill="white"/>
</clipPath>
</defs>
</svg>
