<svg width="58" height="186" viewBox="0 0 58 186" fill="none" xmlns="http://www.w3.org/2000/svg">
<g clip-path="url(#clip0_23_374)">
<path d="M0.0769357 184.308C0.0769359 178.513 3.23158 175.516 5.76605 173.142C8.30051 170.768 9.7476 169.227 9.7476 166.049C9.7476 162.872 8.30878 161.36 5.76605 158.957C3.22331 156.554 0.076937 153.589 0.0769373 147.791C0.0769375 141.992 3.23158 138.998 5.76605 136.624C8.30051 134.25 9.7476 132.71 9.7476 129.532C9.7476 126.354 8.30878 124.843 5.76605 122.439C3.22332 120.036 0.0769386 117.068 0.0769388 111.273C0.0769391 105.479 3.23159 102.481 5.76605 100.103C8.30052 97.7247 9.7476 96.1882 9.7476 93.0104C9.7476 89.8326 8.30878 88.3171 5.76605 85.918C3.22332 83.519 0.0769402 80.5465 0.0769404 74.7478C0.0769407 68.949 3.23159 65.9554 5.76605 63.5773C8.30052 61.1992 9.7476 59.6627 9.7476 56.4849C9.7476 53.3071 8.30879 51.7915 5.76605 49.3925C3.22332 46.9934 0.0769418 44.0207 0.076942 38.222C0.0769423 32.4233 3.23159 29.4296 5.76605 27.0515C8.30052 24.6734 9.7476 23.137 9.7476 19.955C9.7476 16.7731 8.30879 15.2616 5.76605 12.8626C3.22332 10.4636 0.0769434 7.49086 0.0769436 1.69214C0.0291109 1.33687 0.0569407 0.975421 0.158554 0.631946C0.260168 0.28847 0.43321 -0.0291284 0.666058 -0.29925C0.898906 -0.569371 1.18616 -0.785866 1.50851 -0.934221C1.83086 -1.08258 2.18084 -1.1593 2.53492 -1.1593C2.889 -1.1593 3.23899 -1.08258 3.56134 -0.934221C3.88369 -0.785866 4.17094 -0.569371 4.40379 -0.29925C4.63663 -0.0291282 4.80968 0.288471 4.91129 0.631946C5.0129 0.975422 5.04073 1.33687 4.9929 1.69214C4.9929 4.86992 6.43172 6.38552 8.97445 8.78456C11.5172 11.1836 14.6594 14.1563 14.6594 19.955C14.6594 25.7537 11.5089 28.7472 8.97445 31.1253C6.43999 33.5034 4.9929 35.0442 4.9929 38.222C4.9929 41.3998 6.43172 42.9154 8.97445 45.3144C11.5172 47.7134 14.6594 50.6862 14.6594 56.4849C14.6594 62.2836 11.5089 65.277 8.97445 67.6551C6.43998 70.0332 4.9929 71.57 4.9929 74.7478C4.9929 77.9255 6.43171 79.4411 8.97445 81.8402C11.5172 84.2392 14.6594 87.2117 14.6594 93.0104C14.6594 98.8092 11.5089 101.803 8.97445 104.177C6.43998 106.551 4.9929 108.096 4.9929 111.273C4.9929 114.451 6.43171 115.963 8.97445 118.366C11.5172 120.769 14.6594 123.733 14.6594 129.532C14.6594 135.331 11.5089 138.324 8.97444 140.698C6.43998 143.072 4.99289 144.613 4.99289 147.791C4.99289 150.968 6.43171 152.48 8.97444 154.883C11.5172 157.286 14.6594 160.251 14.6594 166.049C14.6594 171.848 11.5089 174.842 8.97444 177.215C6.43998 179.589 4.99289 181.13 4.99289 184.308C5.04073 184.663 5.0129 185.025 4.91128 185.368C4.80967 185.712 4.63663 186.029 4.40378 186.299C4.17093 186.569 3.88368 186.786 3.56133 186.934C3.23898 187.083 2.88899 187.159 2.53491 187.159C2.18083 187.159 1.83085 187.083 1.5085 186.934C1.18615 186.786 0.898898 186.569 0.66605 186.299C0.433202 186.029 0.260159 185.712 0.158546 185.368C0.0569327 185.025 0.0291029 184.663 0.0769357 184.308Z" fill="#26AAE2"/>
<path d="M21.7088 184.308C21.7088 178.513 24.8634 175.516 27.3937 173.142C29.9241 170.768 31.3753 169.227 31.3753 166.049C31.3753 162.872 29.9365 161.36 27.3937 158.957C24.851 156.554 21.7088 153.589 21.7088 147.791C21.7088 141.992 24.8634 138.998 27.3937 136.624C29.9241 134.25 31.3753 132.71 31.3753 129.532C31.3753 126.354 29.9365 124.843 27.3937 122.439C24.851 120.036 21.7088 117.068 21.7088 111.273C21.7088 105.479 24.8634 102.481 27.3937 100.103C29.9241 97.7247 31.3753 96.1882 31.3753 93.0104C31.3753 89.8326 29.9365 88.3171 27.3937 85.918C24.851 83.519 21.7088 80.5465 21.7088 74.7478C21.7088 68.949 24.8634 65.9554 27.3937 63.5773C29.9241 61.1992 31.3753 59.6627 31.3753 56.4849C31.3753 53.3071 29.9365 51.7915 27.3938 49.3925C24.851 46.9934 21.7088 44.0207 21.7088 38.222C21.7088 32.4233 24.8634 29.4296 27.3938 27.0515C29.9241 24.6734 31.3753 23.137 31.3753 19.955C31.3753 16.7731 29.9365 15.2616 27.3938 12.8626C24.851 10.4636 21.7088 7.49086 21.7088 1.69214C21.6609 1.33687 21.6888 0.975421 21.7904 0.631946C21.892 0.28847 22.065 -0.0291284 22.2979 -0.29925C22.5307 -0.569371 22.818 -0.785866 23.1403 -0.934221C23.4627 -1.08258 23.8127 -1.1593 24.1668 -1.1593C24.5208 -1.1593 24.8708 -1.08258 25.1932 -0.934221C25.5155 -0.785866 25.8028 -0.569371 26.0356 -0.29925C26.2685 -0.0291282 26.4415 0.288471 26.5431 0.631946C26.6447 0.975422 26.6726 1.33687 26.6247 1.69214C26.6247 4.86992 28.0636 6.38552 30.6063 8.78456C33.149 11.1836 36.2913 14.1563 36.2913 19.955C36.2913 25.7537 33.1366 28.7472 30.6063 31.1253C28.076 33.5034 26.6247 35.0442 26.6247 38.222C26.6247 41.3998 28.0636 42.9154 30.6063 45.3144C33.149 47.7134 36.2913 50.6862 36.2913 56.4849C36.2913 62.2836 33.1366 65.277 30.6063 67.6551C28.076 70.0332 26.6247 71.57 26.6247 74.7478C26.6247 77.9255 28.0636 79.4411 30.6063 81.8402C33.149 84.2392 36.2913 87.2117 36.2913 93.0104C36.2913 98.8092 33.1366 101.803 30.6063 104.177C28.076 106.551 26.6247 108.096 26.6247 111.273C26.6247 114.451 28.0635 115.963 30.6063 118.366C33.149 120.769 36.2913 123.733 36.2913 129.532C36.2913 135.331 33.1366 138.324 30.6063 140.698C28.076 143.072 26.6247 144.613 26.6247 147.791C26.6247 150.968 28.0635 152.48 30.6063 154.883C33.149 157.286 36.2913 160.251 36.2913 166.049C36.2913 171.848 33.1366 174.842 30.6063 177.215C28.0759 179.589 26.6247 181.13 26.6247 184.308C26.6726 184.663 26.6447 185.025 26.5431 185.368C26.4415 185.712 26.2685 186.029 26.0356 186.299C25.8028 186.569 25.5155 186.786 25.1932 186.934C24.8708 187.083 24.5208 187.159 24.1667 187.159C23.8127 187.159 23.4627 187.083 23.1403 186.934C22.818 186.786 22.5307 186.569 22.2979 186.299C22.065 186.029 21.892 185.712 21.7904 185.368C21.6888 185.025 21.6609 184.663 21.7088 184.308Z" fill="#26AAE2"/>
<path d="M43.3406 184.308C43.3406 178.513 46.4911 175.516 49.0256 173.142C51.56 170.768 53.0071 169.227 53.0071 166.049C53.0071 162.872 51.5683 161.36 49.0256 158.957C46.4828 156.554 43.3406 153.589 43.3406 147.791C43.3406 141.992 46.4911 138.998 49.0256 136.624C51.56 134.25 53.0071 132.71 53.0071 129.532C53.0071 126.354 51.5683 124.843 49.0256 122.439C46.4828 120.036 43.3406 117.068 43.3406 111.273C43.3406 105.479 46.4911 102.481 49.0256 100.103C51.56 97.7247 53.0071 96.1882 53.0071 93.0104C53.0071 89.8326 51.5683 88.3171 49.0256 85.918C46.4829 83.519 43.3406 80.5465 43.3406 74.7478C43.3406 68.949 46.4911 65.9554 49.0256 63.5773C51.56 61.1992 53.0071 59.6627 53.0071 56.4849C53.0071 53.3071 51.5683 51.7915 49.0256 49.3925C46.4829 46.9934 43.3406 44.0207 43.3406 38.222C43.3406 32.4233 46.4911 29.4296 49.0256 27.0515C51.5601 24.6734 53.0071 23.137 53.0071 19.955C53.0071 16.7731 51.5683 15.2616 49.0256 12.8626C46.4829 10.4636 43.3406 7.49086 43.3406 1.69214C43.2928 1.33687 43.3206 0.975421 43.4222 0.631946C43.5238 0.28847 43.6969 -0.0291284 43.9297 -0.29925C44.1626 -0.569371 44.4498 -0.785866 44.7722 -0.934221C45.0945 -1.08258 45.4445 -1.1593 45.7986 -1.1593C46.1527 -1.1593 46.5027 -1.08258 46.825 -0.934221C47.1474 -0.785866 47.4346 -0.569371 47.6675 -0.29925C47.9003 -0.0291282 48.0733 0.288471 48.175 0.631946C48.2766 0.975422 48.3044 1.33687 48.2566 1.69214C48.2566 4.86992 49.6913 6.38552 52.2381 8.78456C54.785 11.1836 57.9231 14.1563 57.9231 19.955C57.9231 25.7537 54.7685 28.7472 52.2381 31.1253C49.7078 33.5034 48.2566 35.0442 48.2566 38.222C48.2566 41.3998 49.6912 42.9154 52.234 45.3144C54.7767 47.7134 57.9231 50.6862 57.9231 56.4849C57.9231 62.2836 54.7684 65.277 52.234 67.6551C49.6995 70.0332 48.2566 71.57 48.2566 74.7478C48.2566 77.9255 49.6912 79.4411 52.234 81.8402C54.7767 84.2392 57.9231 87.2117 57.9231 93.0104C57.9231 98.8092 54.7684 101.803 52.234 104.177C49.6995 106.551 48.2566 108.096 48.2566 111.273C48.2566 114.451 49.6912 115.963 52.234 118.366C54.7767 120.769 57.9231 123.733 57.9231 129.532C57.9231 135.331 54.7684 138.324 52.234 140.698C49.6995 143.072 48.2566 144.613 48.2566 147.791C48.2566 150.968 49.6912 152.48 52.234 154.883C54.7767 157.286 57.9231 160.251 57.9231 166.049C57.9231 171.848 54.7684 174.842 52.234 177.215C49.6995 179.589 48.2566 181.13 48.2566 184.308C48.3044 184.663 48.2766 185.025 48.175 185.368C48.0733 185.712 47.9003 186.029 47.6675 186.299C47.4346 186.569 47.1474 186.786 46.825 186.934C46.5026 187.083 46.1527 187.159 45.7986 187.159C45.4445 187.159 45.0945 187.083 44.7722 186.934C44.4498 186.786 44.1626 186.569 43.9297 186.299C43.6969 186.029 43.5238 185.712 43.4222 185.368C43.3206 185.025 43.2928 184.663 43.3406 184.308Z" fill="#26AAE2"/>
</g>
<defs>
<clipPath id="clip0_23_374">
<rect width="186" height="57.8462" fill="white" transform="translate(57.9231) rotate(90)"/>
</clipPath>
</defs>
</svg>
