<svg width="204" height="70" viewBox="0 0 204 70" fill="none" xmlns="http://www.w3.org/2000/svg">
<g clip-path="url(#clip0_13_2)">
<path d="M94.0703 17.6971V16.9862L93.6822 17.723L92.0781 20.0111H91.3278V14.9566H92.505V17.361V18.0462L92.8801 17.3223L94.5101 14.9566H95.2474V20.0111H94.0703V17.6971Z" fill="#26AAE2"/>
<path d="M101.224 18.0462H99.7491V20.0369H98.572V14.9566H99.7491V16.8569H101.224V14.9566H102.401V20.0111H101.224V18.0462Z" fill="#26AAE2"/>
<path d="M108.83 16.12H107.537V19.9982H106.334V16.12H105.04V14.9566H108.804L108.83 16.12Z" fill="#26AAE2"/>
<path d="M114.975 19.5716C114.755 19.751 114.505 19.8909 114.237 19.9852C113.917 20.0943 113.58 20.1511 113.241 20.1533C112.935 20.1776 112.627 20.124 112.346 19.9975C112.066 19.8709 111.822 19.6755 111.637 19.4294C111.27 18.847 111.094 18.1646 111.133 17.4774C111.073 16.7585 111.275 16.0422 111.702 15.4608C111.903 15.2379 112.151 15.0629 112.429 14.9488C112.707 14.8347 113.006 14.7844 113.306 14.8015C113.535 14.7969 113.762 14.8319 113.979 14.9049C114.19 14.9686 114.385 15.0791 114.548 15.2281C114.731 15.4064 114.872 15.6226 114.962 15.8615C115.075 16.1763 115.128 16.5096 115.117 16.844C115.117 16.9862 115.117 17.1284 115.117 17.2964C115.117 17.4645 115.117 17.6196 115.117 17.8006H112.413C112.396 18.1425 112.497 18.4801 112.698 18.7572C112.808 18.8737 112.943 18.9635 113.094 19.0195C113.244 19.0755 113.405 19.0963 113.565 19.0803C113.791 19.0863 114.017 19.0422 114.224 18.9511C114.385 18.8887 114.537 18.8062 114.677 18.7055L114.975 19.5716ZM113.293 15.8615C113.162 15.8521 113.031 15.8755 112.911 15.9297C112.791 15.9839 112.687 16.0671 112.607 16.1717C112.449 16.4197 112.36 16.7052 112.349 16.9991H114.017C114.057 16.711 114.007 16.4178 113.875 16.1588C113.812 16.063 113.726 15.9852 113.624 15.933C113.522 15.8809 113.408 15.8562 113.293 15.8615Z" fill="#26AAE2"/>
<path d="M118.235 14.9566H119.101L119.231 15.5642C119.364 15.3299 119.556 15.1339 119.787 14.9954C120.029 14.8646 120.301 14.802 120.576 14.8144C120.825 14.7926 121.075 14.8359 121.302 14.9402C121.529 15.0445 121.724 15.2061 121.87 15.4091C122.201 15.9988 122.35 16.6738 122.296 17.3481C122.303 17.7398 122.259 18.1307 122.167 18.5115C122.086 18.8299 121.951 19.1317 121.766 19.4035C121.591 19.6359 121.365 19.8259 121.106 19.9594C120.833 20.093 120.531 20.1595 120.227 20.1533C120.072 20.1689 119.916 20.1689 119.761 20.1533C119.635 20.1207 119.513 20.073 119.399 20.0111V22.0794H118.222L118.235 14.9566ZM120.253 15.9261C120.156 15.9213 120.059 15.936 119.968 15.9693C119.877 16.0026 119.793 16.0539 119.722 16.12C119.572 16.2802 119.465 16.476 119.412 16.6888V18.7959C119.496 18.8687 119.592 18.9256 119.696 18.964C119.818 19.0208 119.951 19.0474 120.084 19.0416C120.236 19.0471 120.386 19.0131 120.519 18.9427C120.653 18.8724 120.767 18.7684 120.848 18.6408C121.04 18.2383 121.124 17.793 121.093 17.3481C121.113 16.9928 121.046 16.6382 120.899 16.3139C120.842 16.19 120.748 16.0864 120.63 16.0171C120.512 15.9478 120.376 15.9161 120.24 15.9261H120.253Z" fill="#26AAE2"/>
<path d="M128.079 18.0462H126.591V20.0369H125.414V14.9566H126.591V16.8569H128.079V14.9566H129.243V20.0111H128.079V18.0462Z" fill="#26AAE2"/>
<path d="M136.19 19.5716C135.97 19.751 135.72 19.8909 135.452 19.9852C135.136 20.0943 134.804 20.151 134.469 20.1533C134.162 20.1776 133.855 20.124 133.574 19.9974C133.294 19.8709 133.05 19.6754 132.865 19.4294C132.498 18.847 132.322 18.1646 132.361 17.4774C132.304 16.7629 132.506 16.0517 132.93 15.4737C133.13 15.2501 133.379 15.0746 133.656 14.9604C133.934 14.8463 134.234 14.7963 134.534 14.8144C134.758 14.8097 134.982 14.8447 135.194 14.9178C135.41 14.9785 135.61 15.0892 135.776 15.241C135.958 15.4193 136.1 15.6356 136.19 15.8744C136.303 16.1892 136.356 16.5225 136.345 16.8569C136.345 16.9991 136.345 17.1413 136.345 17.3093C136.345 17.4774 136.345 17.6325 136.28 17.8135H133.564C133.557 18.156 133.662 18.4916 133.861 18.7701C133.971 18.8866 134.107 18.9764 134.257 19.0324C134.407 19.0885 134.568 19.1093 134.728 19.0933C134.955 19.0993 135.18 19.0551 135.388 18.964C135.545 18.902 135.692 18.8194 135.828 18.7184L136.19 19.5716ZM134.469 15.8615C134.34 15.8519 134.21 15.8753 134.093 15.9296C133.975 15.9839 133.873 16.0672 133.797 16.1717C133.639 16.4209 133.546 16.7051 133.525 16.9991H135.207C135.252 16.7095 135.197 16.4132 135.051 16.1588C134.991 16.0611 134.904 15.9818 134.802 15.9294C134.699 15.877 134.584 15.8535 134.469 15.8615Z" fill="#26AAE2"/>
<path d="M142.567 16.12H141.274V19.9982H140.058V16.12H138.764V14.9566H142.528L142.567 16.12Z" fill="#26AAE2"/>
<path d="M144.663 16.5208H146.94V17.6842H144.663V16.5208Z" fill="#26AAE2"/>
<path d="M149.488 15.241C149.762 15.1173 150.048 15.022 150.342 14.9566C150.687 14.8889 151.038 14.8543 151.389 14.8532C151.659 14.8432 151.927 14.8872 152.179 14.9825C152.375 15.0522 152.549 15.1726 152.683 15.3315C152.805 15.4981 152.893 15.6869 152.942 15.8873C152.996 16.1292 153.022 16.3764 153.019 16.6242C153.019 16.9215 153.019 17.2188 153.019 17.5162V18.3952C153.019 18.6925 153.019 18.964 153.019 19.2484C153.038 19.5071 153.086 19.7629 153.162 20.0111H152.192L152.01 19.313C151.892 19.5347 151.718 19.7218 151.506 19.856C151.265 20.0256 150.972 20.1077 150.678 20.0886C150.484 20.0892 150.291 20.0542 150.109 19.9852C149.947 19.9122 149.801 19.8066 149.682 19.675C149.555 19.5418 149.458 19.3832 149.397 19.2096C149.328 19.019 149.293 18.8177 149.294 18.615C149.285 18.3393 149.352 18.0667 149.488 17.8264C149.613 17.6083 149.797 17.4292 150.018 17.3093C150.276 17.171 150.556 17.0791 150.846 17.0379C151.207 16.9976 151.572 16.9976 151.933 17.0379C151.986 16.7646 151.959 16.4818 151.855 16.2235C151.765 16.0554 151.571 15.9778 151.247 15.9778C150.999 15.9794 150.752 16.0054 150.51 16.0554C150.285 16.0911 150.067 16.1608 149.863 16.2622L149.488 15.241ZM150.988 19.0028C151.19 19.0172 151.39 18.9523 151.545 18.8218C151.676 18.7229 151.783 18.5945 151.855 18.4469V17.7876C151.674 17.7747 151.493 17.7747 151.312 17.7876C151.157 17.7953 151.005 17.8258 150.859 17.8781C150.736 17.9131 150.624 17.98 150.536 18.072C150.457 18.1662 150.416 18.2857 150.419 18.4081C150.413 18.4881 150.424 18.5685 150.451 18.6441C150.478 18.7197 150.52 18.789 150.575 18.8476C150.628 18.9017 150.693 18.9436 150.765 18.9704C150.836 18.9971 150.912 19.0082 150.988 19.0028Z" fill="#26AAE2"/>
<path d="M159.216 16.12H157.508V19.9982H156.292V14.9566H159.216V16.12Z" fill="#26AAE2"/>
<path d="M165.322 19.5716C165.099 19.7537 164.844 19.8938 164.571 19.9852C164.255 20.0943 163.923 20.151 163.588 20.1533C163.281 20.1777 162.973 20.124 162.693 19.9975C162.412 19.8709 162.169 19.6755 161.984 19.4294C161.617 18.847 161.44 18.1647 161.48 17.4774C161.422 16.7629 161.624 16.0517 162.049 15.4737C162.25 15.2508 162.498 15.0759 162.776 14.9618C163.053 14.8477 163.353 14.7973 163.653 14.8144C163.881 14.8108 164.109 14.8458 164.325 14.9178C164.537 14.9816 164.732 15.092 164.895 15.241C165.077 15.4194 165.219 15.6356 165.309 15.8744C165.422 16.1892 165.475 16.5226 165.464 16.8569C165.464 16.9991 165.464 17.1413 165.464 17.3093C165.464 17.4774 165.464 17.6325 165.399 17.8135H162.683C162.676 18.1561 162.78 18.4916 162.98 18.7701C163.09 18.8867 163.226 18.9764 163.376 19.0324C163.526 19.0885 163.687 19.1093 163.847 19.0933C164.074 19.0993 164.299 19.0551 164.507 18.964C164.667 18.9017 164.819 18.8191 164.959 18.7184L165.322 19.5716ZM163.64 15.8615C163.509 15.8509 163.377 15.8738 163.257 15.928C163.137 15.9823 163.033 16.0662 162.954 16.1718C162.796 16.4197 162.707 16.7052 162.696 16.9991H164.364C164.404 16.7111 164.354 16.4178 164.222 16.1588C164.159 16.063 164.072 15.9852 163.97 15.9331C163.868 15.8809 163.754 15.8563 163.64 15.8615Z" fill="#26AAE2"/>
<path d="M171.233 18.0462H169.759V20.0369H168.581V14.9566H169.759V16.8569H171.233V14.9566H172.41V20.0111H171.233V18.0462Z" fill="#26AAE2"/>
<path d="M178.84 16.12H177.546V19.9982H176.33V16.12H175.036V14.9566H178.801L178.84 16.12Z" fill="#26AAE2"/>
<path d="M184.57 19.6879C184.377 19.8494 184.153 19.9684 183.91 20.0369C183.655 20.1143 183.389 20.1535 183.121 20.1533C182.804 20.1637 182.489 20.0972 182.203 19.9594C181.954 19.8327 181.741 19.6461 181.582 19.4164C181.421 19.1583 181.307 18.8739 181.246 18.5762C181.176 18.2141 181.141 17.8461 181.142 17.4774C181.097 16.7796 181.278 16.0859 181.66 15.4995C181.835 15.2723 182.064 15.0912 182.325 14.9718C182.587 14.8525 182.873 14.7985 183.16 14.8144C183.431 14.8039 183.701 14.8344 183.962 14.9049C184.159 14.953 184.346 15.0315 184.518 15.1376L184.234 16.2105C184.102 16.1364 183.964 16.0758 183.82 16.0296C183.665 16.0091 183.509 16.0091 183.354 16.0296C183.212 16.0216 183.07 16.0494 182.941 16.1104C182.812 16.1713 182.701 16.2635 182.617 16.3786C182.421 16.7289 182.331 17.1286 182.358 17.5291C182.337 17.7267 182.337 17.9261 182.358 18.1237C182.39 18.2946 182.456 18.4573 182.552 18.602C182.633 18.7418 182.75 18.8566 182.892 18.9342C183.033 19.0117 183.193 19.0488 183.354 19.0416C183.526 19.0413 183.697 19.0107 183.859 18.9511C183.992 18.8978 184.118 18.8283 184.234 18.7442L184.57 19.6879Z" fill="#26AAE2"/>
<path d="M190.56 16.12H189.266V19.9982H188.063V16.12H186.769V14.9566H190.534L190.56 16.12Z" fill="#26AAE2"/>
<path d="M193.082 14.9566H193.845C194.143 14.9566 194.466 14.9566 194.803 14.9566C195.299 14.9171 195.795 15.0298 196.225 15.2798C196.369 15.3927 196.483 15.5387 196.557 15.7054C196.632 15.8721 196.664 16.0543 196.652 16.2364C196.649 16.4762 196.587 16.7115 196.471 16.9215C196.339 17.1465 196.133 17.3198 195.889 17.4128C196.172 17.4592 196.426 17.6118 196.601 17.8393C196.757 18.0715 196.835 18.3482 196.821 18.6279C196.838 18.8458 196.799 19.0644 196.708 19.2633C196.618 19.4623 196.479 19.635 196.303 19.7655C195.792 20.0542 195.207 20.1847 194.621 20.1404H193.819L193.082 20.0757V14.9566ZM194.854 17.012C195.027 17.018 195.197 16.9631 195.333 16.8569C195.391 16.8075 195.437 16.746 195.468 16.6767C195.5 16.6075 195.515 16.5321 195.514 16.4562C195.518 16.3821 195.507 16.308 195.48 16.2389C195.453 16.1698 195.412 16.1072 195.359 16.0554C195.185 15.9488 194.98 15.9033 194.777 15.9261H194.233V16.9862L194.854 17.012ZM194.233 18.9899H194.466H194.738C194.981 19.0093 195.224 18.9553 195.436 18.8347C195.505 18.7786 195.559 18.7073 195.595 18.6265C195.631 18.5457 195.647 18.4577 195.643 18.3694C195.647 18.2893 195.632 18.2095 195.601 18.1358C195.569 18.062 195.522 17.9961 195.462 17.9428C195.28 17.8084 195.053 17.7483 194.828 17.7747H194.233V18.9899Z" fill="#26AAE2"/>
<path d="M199.731 17.4774C199.684 16.7739 199.881 16.0756 200.287 15.4995C200.479 15.271 200.722 15.0901 200.996 14.9712C201.27 14.8523 201.567 14.7986 201.866 14.8144C202.191 14.8071 202.514 14.8734 202.81 15.0083C203.067 15.1324 203.293 15.3137 203.47 15.5383C203.65 15.7967 203.781 16.0859 203.858 16.3915C203.95 16.7459 203.993 17.1112 203.987 17.4774C204.034 18.1809 203.838 18.8791 203.431 19.4552C203.243 19.6867 203.004 19.8706 202.732 19.9919C202.46 20.1132 202.163 20.1685 201.866 20.1533C201.54 20.1619 201.217 20.0956 200.921 19.9594C200.657 19.8345 200.426 19.6483 200.249 19.4164C200.066 19.1643 199.934 18.8788 199.86 18.5762C199.769 18.2172 199.726 17.8477 199.731 17.4774ZM200.934 17.4774C200.935 17.6858 200.957 17.8937 200.999 18.0979C201.027 18.2681 201.079 18.4335 201.154 18.5891C201.22 18.7225 201.318 18.8379 201.439 18.9252C201.622 19.0331 201.84 19.0665 202.047 19.0183C202.254 18.9702 202.434 18.8443 202.551 18.6667C202.726 18.296 202.802 17.8861 202.771 17.4774C202.787 17.0917 202.716 16.7075 202.564 16.3527C202.506 16.2184 202.407 16.1053 202.282 16.029C202.157 15.9526 202.012 15.9167 201.866 15.9261C201.73 15.9211 201.595 15.9519 201.474 16.0154C201.354 16.0789 201.252 16.173 201.18 16.2881C200.991 16.6547 200.906 17.066 200.934 17.4774Z" fill="#26AAE2"/>
<path d="M93.1647 27.1339V34.5152L98.2615 27.1339H100.512L95.0922 34.6704L100.758 43.1764H98.5332L93.1647 34.8513V43.1764H91.2243V27.1339H93.1647Z" fill="#26AAE2"/>
<path d="M107.472 37.6048V43.1764H105.544V27.0951H109.891C110.371 27.0809 110.849 27.1667 111.295 27.347C111.74 27.5272 112.143 27.798 112.478 28.1422C112.825 28.4638 113.1 28.8541 113.287 29.2881C113.474 29.7222 113.569 30.1904 113.565 30.663V33.9723C113.572 34.4549 113.48 34.9338 113.293 35.3789C113.106 35.8239 112.828 36.2253 112.478 36.5577C112.139 36.8952 111.735 37.1608 111.29 37.3385C110.846 37.5162 110.37 37.6024 109.891 37.5919L107.472 37.6048ZM111.65 30.6759C111.649 30.4423 111.6 30.2113 111.508 29.9968C111.415 29.7822 111.28 29.5884 111.111 29.4269C110.943 29.2654 110.743 29.1393 110.524 29.0563C110.306 28.9733 110.073 28.935 109.839 28.9437H107.472V35.795H109.891C110.123 35.8019 110.354 35.7628 110.571 35.6799C110.788 35.5971 110.986 35.4721 111.155 35.3123C111.323 35.1525 111.458 34.9609 111.552 34.7487C111.646 34.5364 111.697 34.3077 111.702 34.0757L111.65 30.6759Z" fill="#26AAE2"/>
<path d="M128.169 27.1339L121.637 43.1764H119.645L122.115 37.1265L117.989 27.1339H120.136L123.099 34.9935L126.151 27.1339H128.169Z" fill="#26AAE2"/>
<path d="M141.131 27.1339V43.1764H139.204V28.892H134.223V43.1764H132.296V27.1339H141.131Z" fill="#26AAE2"/>
<path d="M152.942 27.1339H154.895V43.1764H152.942V35.614H147.987V43.1764H146.06V27.1339H147.987V33.8301H152.942V27.1339Z" fill="#26AAE2"/>
<path d="M168.788 39.1819C168.788 39.7377 168.673 40.2873 168.45 40.7967C168.227 41.306 167.902 41.764 167.495 42.1422C167.071 42.5751 166.56 42.9139 165.996 43.1366C165.432 43.3593 164.828 43.461 164.222 43.4349C163.608 43.4634 162.995 43.3632 162.423 43.1405C161.85 42.9179 161.33 42.5778 160.897 42.1422C160.494 41.7578 160.172 41.2968 159.95 40.7862C159.728 40.2756 159.61 39.7257 159.604 39.169V31.1154C159.609 30.5604 159.726 30.0121 159.948 29.5034C160.171 28.9948 160.493 28.5362 160.897 28.1551C161.332 27.7215 161.852 27.3827 162.424 27.1602C162.996 26.9377 163.608 26.8363 164.222 26.8624C164.827 26.8396 165.431 26.9427 165.994 27.1652C166.558 27.3877 167.069 27.7248 167.495 28.1551C167.902 28.5279 168.228 28.9813 168.45 29.4865C168.673 29.9916 168.788 30.5376 168.788 31.0896V39.1819ZM166.809 31.0896C166.809 30.4039 166.537 29.7463 166.051 29.2614C165.566 28.7765 164.908 28.5042 164.222 28.5042C163.536 28.5042 162.878 28.7765 162.393 29.2614C161.907 29.7463 161.635 30.4039 161.635 31.0896V39.1819C161.635 39.8676 161.907 40.5252 162.393 41.0101C162.878 41.4949 163.536 41.7673 164.222 41.7673C164.908 41.7673 165.566 41.4949 166.051 41.0101C166.537 40.5252 166.809 39.8676 166.809 39.1819V31.0896Z" fill="#26AAE2"/>
<path d="M174.234 27.1339H182.074V28.9437H176.162V33.8301H181.517V35.614H176.162V41.3666H182.255V43.1764H174.234V27.1339Z" fill="#26AAE2"/>
<path d="M89.879 64.2862H90.8751C91.3278 64.2862 91.6254 63.7175 91.69 62.903L92.4015 50.0536H99.3999V64.2733H100.836V69.5217H98.9083V66.096H91.7806V69.5346H89.879V64.2862ZM93.5269 62.9935C93.5101 63.3701 93.4314 63.7413 93.2941 64.0923V64.2733H97.4724V51.8633H94.1479L93.5269 62.9935Z" fill="#26AAE2"/>
<path d="M105.441 50.0536H113.28V51.8633H107.368V56.7498H112.737V58.5337H107.368V64.2862H113.474V66.096H105.441V50.0536Z" fill="#26AAE2"/>
<path d="M117.381 66.2382V64.4672H117.911C118.765 64.2992 119.205 63.6399 119.308 62.4894C119.515 59.2188 119.748 55.0692 119.955 50.0923H126.953V66.096H125.026V51.8763H121.701C121.382 58.3139 121.175 62.0283 121.081 63.0194C121.086 63.4452 121.006 63.8678 120.845 64.2623C120.684 64.6567 120.446 65.015 120.145 65.3162C119.844 65.6173 119.485 65.8552 119.09 66.0157C118.696 66.1763 118.273 66.2564 117.847 66.2511L117.381 66.2382Z" fill="#26AAE2"/>
<path d="M141.286 62.1145C141.286 62.6683 141.17 63.216 140.948 63.7232C140.725 64.2304 140.4 64.6861 139.993 65.0619C139.569 65.4948 139.058 65.8336 138.494 66.0563C137.93 66.279 137.326 66.3806 136.72 66.3546C136.106 66.3831 135.493 66.2828 134.921 66.0602C134.348 65.8375 133.829 65.4974 133.396 65.0619C132.99 64.6793 132.666 64.2186 132.444 63.7076C132.222 63.1966 132.105 62.6459 132.102 62.0886V54.0351C132.107 53.4819 132.224 52.9354 132.446 52.4287C132.668 51.9221 132.991 51.4659 133.396 51.0877C134.298 50.2675 135.474 49.8129 136.694 49.8129C137.914 49.8129 139.09 50.2675 139.993 51.0877C140.399 51.4615 140.724 51.9151 140.946 52.42C141.169 52.925 141.285 53.4704 141.286 54.0222V62.1145ZM139.333 54.0222C139.333 53.3365 139.061 52.6789 138.575 52.194C138.09 51.7091 137.432 51.4368 136.746 51.4368C136.06 51.4368 135.402 51.7091 134.917 52.194C134.431 52.6789 134.159 53.3365 134.159 54.0222V62.1145C134.159 62.8002 134.431 63.4578 134.917 63.9427C135.402 64.4275 136.06 64.6999 136.746 64.6999C137.432 64.6999 138.09 64.4275 138.575 63.9427C139.061 63.4578 139.333 62.8002 139.333 62.1145V54.0222Z" fill="#26AAE2"/>
<path d="M43.1285 21.5623H43.0509L45.3405 14.4137H36.1948L38.4715 21.5623H38.5621L33.2971 28.8532L40.7871 50.9843L48.2382 28.8532L43.1285 21.5623Z" fill="#26AAE2"/>
<path d="M73.929 70H7.58047C5.56882 69.9966 3.64073 69.1956 2.21948 67.7729C0.79824 66.3502 -2.91909e-06 64.4221 0 62.4118V21.265C-2.91909e-06 19.2547 0.79824 17.3266 2.21948 15.9039C3.64073 14.4812 5.56882 13.6802 7.58047 13.6768H73.929C74.9262 13.6768 75.9136 13.8731 76.8348 14.2544C77.7561 14.6358 78.5932 15.1947 79.2983 15.8993C80.0034 16.604 80.5628 17.4405 80.9444 18.3611C81.326 19.2818 81.5224 20.2685 81.5224 21.265V62.4118C81.5224 63.4083 81.326 64.395 80.9444 65.3157C80.5628 66.2363 80.0034 67.0728 79.2983 67.7775C78.5932 68.4821 77.7561 69.041 76.8348 69.4224C75.9136 69.8037 74.9262 70 73.929 70ZM7.58047 15.1376C5.95426 15.1376 4.39465 15.7831 3.24474 16.9323C2.09484 18.0814 1.44883 19.6399 1.44883 21.265V62.4118C1.44882 64.0381 2.09442 65.598 3.24396 66.7491C4.39349 67.9003 5.95307 68.5487 7.58047 68.5522H73.929C74.7413 68.5607 75.5473 68.4082 76.3003 68.1034C77.0533 67.7987 77.7383 67.3477 78.3157 66.7767C78.8932 66.2057 79.3516 65.5259 79.6644 64.7766C79.9772 64.0274 80.1383 63.2236 80.1382 62.4118V21.265C80.1348 19.6387 79.4859 18.0802 78.334 16.9315C77.182 15.7827 75.6211 15.1376 73.9937 15.1376H7.58047Z" fill="#333333"/>
<path d="M47.3585 58.4303C46.879 58.4328 46.4095 58.2929 46.0097 58.0283C45.61 57.7636 45.2979 57.3862 45.1132 56.944C44.9285 56.5018 44.8795 56.0146 44.9725 55.5445C45.0654 55.0744 45.296 54.6425 45.6351 54.3036C45.9742 53.9648 46.4064 53.7343 46.8769 53.6414C47.3473 53.5486 47.8348 53.5975 48.2773 53.7821C48.7199 53.9666 49.0975 54.2785 49.3623 54.678C49.6272 55.0775 49.7672 55.5467 49.7646 56.0259C49.7612 56.6625 49.5066 57.2721 49.0561 57.7223C48.6056 58.1725 47.9956 58.4269 47.3585 58.4303ZM47.3585 55.0046C47.0875 55.0046 46.8276 55.1122 46.6359 55.3037C46.4443 55.4952 46.3366 55.755 46.3366 56.0259C46.3366 56.2967 46.4443 56.5565 46.6359 56.748C46.8276 56.9395 47.0875 57.0471 47.3585 57.0471C47.6296 57.0471 47.8895 56.9395 48.0812 56.748C48.2728 56.5565 48.3805 56.2967 48.3805 56.0259C48.3805 55.755 48.2728 55.4952 48.0812 55.3037C47.8895 55.1122 47.6296 55.0046 47.3585 55.0046Z" fill="#333333"/>
<path d="M47.3585 66.6519C46.8796 66.6545 46.4106 66.5149 46.0111 66.2508C45.6116 65.9867 45.2995 65.6101 45.1144 65.1686C44.9294 64.7271 44.8796 64.2407 44.9715 63.7709C45.0634 63.3011 45.2927 62.8692 45.6305 62.5298C45.9683 62.1905 46.3993 61.9589 46.8689 61.8646C47.3385 61.7703 47.8255 61.8174 48.2683 62C48.7111 62.1826 49.0896 62.4924 49.356 62.8902C49.6224 63.288 49.7646 63.7559 49.7646 64.2345C49.7646 64.8734 49.5115 65.4863 49.0607 65.9393C48.6098 66.3923 47.9979 66.6485 47.3585 66.6519ZM47.3585 63.2262C47.2156 63.2101 47.0708 63.2243 46.9337 63.2679C46.7966 63.3115 46.6702 63.3836 46.5629 63.4794C46.4556 63.5752 46.3698 63.6926 46.311 63.8238C46.2522 63.955 46.2218 64.0972 46.2218 64.241C46.2218 64.3848 46.2522 64.527 46.311 64.6582C46.3698 64.7895 46.4556 64.9068 46.5629 65.0026C46.6702 65.0984 46.7966 65.1705 46.9337 65.2141C47.0708 65.2577 47.2156 65.2719 47.3585 65.2558C47.5015 65.2719 47.6463 65.2577 47.7834 65.2141C47.9205 65.1705 48.0469 65.0984 48.1542 65.0026C48.2615 64.9068 48.3473 64.7895 48.4061 64.6582C48.4649 64.527 48.4953 64.3848 48.4953 64.241C48.4953 64.0972 48.4649 63.955 48.4061 63.8238C48.3473 63.6926 48.2615 63.5752 48.1542 63.4794C48.0469 63.3836 47.9205 63.3115 47.7834 63.2679C47.6463 63.2243 47.5015 63.2101 47.3585 63.2262Z" fill="#333333"/>
<path d="M40.7612 51.6565C40.6245 51.6608 40.4895 51.6248 40.3731 51.5531C40.2393 51.4724 40.1346 51.3512 40.0741 51.2072C40.0137 51.0631 40.0006 50.9036 40.0368 50.7516L52.3906 14.1681C52.4392 14.0249 52.5315 13.9005 52.6545 13.8124C52.7774 13.7243 52.9249 13.6769 53.0762 13.6768H66.8013C66.9327 13.676 67.0619 13.7109 67.175 13.7778C67.2881 13.8447 67.3809 13.9411 67.4433 14.0567C67.5058 14.1722 67.5356 14.3026 67.5296 14.4338C67.5236 14.565 67.482 14.6921 67.4093 14.8015L58.6387 28.1164H64.1623C64.3167 28.1067 64.4701 28.1467 64.6001 28.2304C64.7301 28.3141 64.8298 28.4372 64.8848 28.5817C64.9397 28.7262 64.9469 28.8844 64.9054 29.0333C64.8638 29.1822 64.7757 29.3138 64.6539 29.4091L41.3304 51.5143C41.1922 51.6393 41.0123 51.7085 40.8259 51.7082M53.6583 15.1376L42.3782 48.4635L62.3384 29.5642H57.2933C57.1632 29.5669 57.0349 29.5332 56.9229 29.467C56.811 29.4008 56.7197 29.3046 56.6595 29.1893C56.5923 29.0758 56.5569 28.9463 56.5569 28.8144C56.5569 28.6825 56.5923 28.5531 56.6595 28.4395L65.4301 15.1376H53.6583Z" fill="#333333"/>
<path d="M40.7612 51.6565C40.5748 51.6567 40.3949 51.5876 40.2567 51.4626L16.8685 29.3703C16.7601 29.2739 16.6844 29.1462 16.652 29.0049C16.6195 28.8636 16.6319 28.7157 16.6874 28.5817C16.738 28.4444 16.8297 28.326 16.9501 28.2427C17.0705 28.1595 17.2136 28.1153 17.3601 28.1163H22.8837L14.1649 14.8015C14.0946 14.6914 14.0573 14.5636 14.0573 14.4331C14.0573 14.3025 14.0946 14.1747 14.1649 14.0646C14.2288 13.9487 14.3224 13.8517 14.436 13.7836C14.5496 13.7155 14.6792 13.6786 14.8117 13.6768H28.3944C28.5453 13.6788 28.6919 13.7269 28.8145 13.8148C28.9371 13.9026 29.0298 14.0259 29.08 14.168L41.3562 50.6353C41.4135 50.7429 41.4445 50.8625 41.4468 50.9843C41.4468 51.1763 41.3705 51.3604 41.2346 51.4962C41.0988 51.6319 40.9145 51.7082 40.7224 51.7082L40.7612 51.6565ZM19.184 29.5642L39.1442 48.4635L27.9287 15.1376H16.0665L24.837 28.3878C24.9042 28.5013 24.9396 28.6308 24.9396 28.7627C24.9396 28.8946 24.9042 29.024 24.837 29.1376C24.7746 29.251 24.6828 29.3456 24.5713 29.4115C24.4599 29.4775 24.3327 29.5123 24.2032 29.5125L19.184 29.5642Z" fill="#333333"/>
<path d="M71.6264 42.8661H60.191" stroke="#333333" stroke-width="2.4" stroke-linecap="round" stroke-linejoin="round"/>
<path d="M40.7612 70C40.5691 70 40.3848 69.9237 40.2489 69.788C40.1131 69.6522 40.0368 69.4681 40.0368 69.2761V50.3638C40.0368 50.1718 40.1131 49.9877 40.2489 49.8519C40.3848 49.7162 40.5691 49.6399 40.7612 49.6399C40.9533 49.6399 41.1376 49.7162 41.2734 49.8519C41.4093 49.9877 41.4856 50.1718 41.4856 50.3638V69.2761C41.4856 69.4681 41.4093 69.6522 41.2734 69.788C41.1376 69.9237 40.9533 70 40.7612 70Z" fill="#333333"/>
<path d="M71.6264 40.6556H60.191L65.9087 35.084L71.6264 40.6556Z" fill="#26AAE2"/>
<path d="M65.9087 53.1302C64.1933 53.1302 62.5481 52.4492 61.3351 51.2371C60.1221 50.0249 59.4407 48.3809 59.4407 46.6667V42.7885C59.4407 42.5966 59.517 42.4124 59.6529 42.2767C59.7887 42.1409 59.973 42.0646 60.1651 42.0646H71.6134C71.8056 42.0646 71.9898 42.1409 72.1257 42.2767C72.2615 42.4124 72.3379 42.5966 72.3379 42.7885V46.6667C72.3379 48.3809 71.6564 50.0249 70.4434 51.2371C69.2304 52.4492 67.5853 53.1302 65.8699 53.1302M60.8766 43.5771V46.6925C60.8766 48.0159 61.4027 49.2851 62.3391 50.2209C63.2755 51.1566 64.5456 51.6824 65.8699 51.6824C67.1942 51.6824 68.4642 51.1566 69.4007 50.2209C70.3371 49.2851 70.8632 48.0159 70.8632 46.6925V43.5771H60.8766Z" fill="#333333"/>
<path d="M57.9143 15.1376H52.9727C52.7794 15.1342 52.5952 15.0551 52.4597 14.9172C52.3242 14.7794 52.2483 14.5939 52.2483 14.4007V7.93721C52.2382 7.52687 52.067 7.13698 51.7718 6.85161C51.4765 6.56625 51.0809 6.4083 50.6701 6.41181H30.8523C30.4371 6.41181 30.039 6.57661 29.7455 6.86995C29.4519 7.16329 29.287 7.56114 29.287 7.97599V14.4395C29.287 14.6327 29.2111 14.8182 29.0756 14.956C28.9401 15.0938 28.7559 15.173 28.5626 15.1764H23.5952C23.4019 15.173 23.2176 15.0938 23.0821 14.956C22.9467 14.8182 22.8707 14.6327 22.8708 14.4395V5.39057C22.8742 3.98595 23.4341 2.63984 24.428 1.64662C25.4219 0.653395 26.7689 0.0938981 28.1745 0.0904846H53.3479C54.7535 0.0938981 56.1005 0.653395 57.0944 1.64662C58.0883 2.63984 58.6482 3.98595 58.6516 5.39057V14.4395C58.6483 14.6339 58.5695 14.8194 58.432 14.9569C58.2944 15.0943 58.1088 15.173 57.9143 15.1764M53.6842 13.7156H57.1899V5.30009C57.1899 4.27155 56.781 3.28513 56.0532 2.55785C55.3254 1.83056 54.3383 1.42197 53.3091 1.42197H28.1745C27.1453 1.42197 26.1582 1.83056 25.4304 2.55785C24.7026 3.28513 24.2937 4.27155 24.2937 5.30009V13.6768H27.8123V7.96306C27.8123 7.56752 27.8903 7.17585 28.0417 6.81042C28.1932 6.44498 28.4152 6.11294 28.6951 5.83325C28.975 5.55356 29.3073 5.3317 29.6729 5.18033C30.0386 5.02896 30.4306 4.95106 30.8264 4.95106H50.6701C51.4695 4.95106 52.2362 5.26839 52.8014 5.83325C53.3667 6.39811 53.6842 7.16423 53.6842 7.96306V13.7156Z" fill="#333333"/>
</g>
<defs>
<clipPath id="clip0_13_2">
<rect width="204" height="70" fill="white"/>
</clipPath>
</defs>
</svg>
