<svg width="110" height="83" viewBox="0 0 110 83" fill="none" xmlns="http://www.w3.org/2000/svg">
<g clip-path="url(#clip0_33_1461)">
<path d="M2.84026 0C2.38493 0 1.93985 0.134773 1.56125 0.387268C1.18266 0.639764 0.887566 0.998644 0.713317 1.41853C0.539069 1.83841 0.493497 2.30044 0.582328 2.74619C0.671159 3.19194 0.890376 3.60139 1.21235 3.92275C1.53431 4.24412 1.94458 4.46298 2.39117 4.55164C2.83775 4.64031 3.30063 4.5948 3.7213 4.42088C4.14197 4.24695 4.50155 3.95243 4.75452 3.57454C5.00749 3.19665 5.14249 2.75238 5.14249 2.2979C5.14163 1.68872 4.89878 1.10475 4.46722 0.673993C4.03566 0.243241 3.45058 0.000858599 2.84026 0Z" fill="white"/>
<path d="M15.9479 0C15.4925 0 15.0475 0.134773 14.6689 0.387268C14.2903 0.639764 13.9952 0.998644 13.8209 1.41853C13.6467 1.83841 13.601 2.30044 13.6899 2.74619C13.7787 3.19194 13.998 3.60139 14.3199 3.92275C14.6419 4.24412 15.0521 4.46298 15.4987 4.55164C15.9453 4.64031 16.4082 4.5948 16.8289 4.42088C17.2496 4.24695 17.6091 3.95243 17.862 3.57454C18.115 3.19665 18.2501 2.75238 18.2501 2.2979C18.2492 1.68872 18.0064 1.10475 17.5748 0.673993C17.1433 0.243241 16.5582 0.000858599 15.9479 0Z" fill="white"/>
<path d="M2.84026 13.083C2.38493 13.083 1.93985 13.2178 1.56125 13.4703C1.18266 13.7228 0.887566 14.0816 0.713317 14.5015C0.539069 14.9214 0.493497 15.3834 0.582328 15.8292C0.671159 16.2749 0.890376 16.6844 1.21235 17.0058C1.53431 17.3271 1.94458 17.546 2.39117 17.6346C2.83775 17.7233 3.30063 17.6778 3.7213 17.5039C4.14197 17.33 4.50155 17.0354 4.75452 16.6575C5.00749 16.2797 5.14249 15.8354 5.14249 15.3809C5.14163 14.7717 4.89878 14.1877 4.46722 13.757C4.03566 13.3262 3.45058 13.0839 2.84026 13.083Z" fill="white"/>
<path d="M15.9479 13.083C15.4925 13.083 15.0475 13.2178 14.6689 13.4703C14.2903 13.7228 13.9952 14.0816 13.8209 14.5015C13.6467 14.9214 13.601 15.3834 13.6899 15.8292C13.7787 16.2749 13.998 16.6844 14.3199 17.0058C14.6419 17.3271 15.0521 17.546 15.4987 17.6346C15.9453 17.7233 16.4082 17.6778 16.8289 17.5039C17.2496 17.33 17.6091 17.0354 17.862 16.6575C18.115 16.2797 18.2501 15.8354 18.2501 15.3809C18.2492 14.7717 18.0064 14.1877 17.5748 13.757C17.1433 13.3262 16.5582 13.0839 15.9479 13.083Z" fill="white"/>
<path d="M2.84016 26.0786C2.38391 26.078 1.93777 26.2125 1.55814 26.4651C1.17851 26.7177 0.882483 27.077 0.707585 27.4976C0.532688 27.9183 0.486791 28.3812 0.575644 28.8279C0.664497 29.2746 0.884073 29.6849 1.20669 30.0069C1.52931 30.3289 1.94046 30.5481 2.38797 30.6368C2.83549 30.7255 3.29933 30.6797 3.72073 30.5051C4.14213 30.3305 4.50214 30.0351 4.75522 29.6562C5.0083 29.2773 5.14304 28.8319 5.14239 28.3765C5.14153 27.7673 4.89869 27.1834 4.46713 26.7526C4.03556 26.3219 3.45048 26.0795 2.84016 26.0786Z" fill="white"/>
<path d="M15.9478 26.0786C15.4915 26.078 15.0453 26.2125 14.6657 26.4651C14.286 26.7177 13.9901 27.077 13.8152 27.4976C13.6403 27.9183 13.5943 28.3812 13.6832 28.8279C13.772 29.2746 13.9917 29.6849 14.3143 30.0069C14.6369 30.3289 15.048 30.5481 15.4955 30.6368C15.943 30.7255 16.4069 30.6797 16.8283 30.5051C17.2497 30.3305 17.6097 30.0351 17.8627 29.6562C18.1158 29.2773 18.2506 28.8319 18.25 28.3765C18.2491 27.7673 18.0063 27.1834 17.5747 26.7526C17.1432 26.3219 16.5581 26.0795 15.9478 26.0786Z" fill="white"/>
<path d="M2.84016 39.1553C2.38391 39.1546 1.93777 39.2891 1.55814 39.5417C1.17851 39.7943 0.882483 40.1537 0.707585 40.5743C0.532688 40.9949 0.486791 41.4579 0.575644 41.9045C0.664497 42.3512 0.884073 42.7616 1.20669 43.0836C1.52931 43.4056 1.94046 43.6248 2.38797 43.7135C2.83549 43.8022 3.29933 43.7563 3.72073 43.5818C4.14213 43.4072 4.50214 43.1118 4.75522 42.7328C5.0083 42.3539 5.14304 41.9086 5.14239 41.4532C5.14153 40.844 4.89869 40.26 4.46713 39.8293C4.03556 39.3985 3.45048 39.1561 2.84016 39.1553Z" fill="white"/>
<path d="M15.9478 39.1553C15.4915 39.1546 15.0453 39.2891 14.6657 39.5417C14.286 39.7943 13.9901 40.1537 13.8152 40.5743C13.6403 40.9949 13.5943 41.4579 13.6832 41.9045C13.772 42.3512 13.9917 42.7616 14.3143 43.0836C14.6369 43.4056 15.048 43.6248 15.4955 43.7135C15.943 43.8022 16.4069 43.7563 16.8283 43.5818C17.2497 43.4072 17.6097 43.1118 17.8627 42.7328C18.1158 42.3539 18.2506 41.9086 18.25 41.4532C18.2491 40.844 18.0063 40.26 17.5747 39.8293C17.1432 39.3985 16.5581 39.1561 15.9478 39.1553Z" fill="white"/>
<path d="M2.84016 52.2412C2.38391 52.2406 1.93777 52.3751 1.55814 52.6277C1.17851 52.8803 0.882483 53.2396 0.707585 53.6602C0.532688 54.0808 0.486791 54.5438 0.575644 54.9905C0.664497 55.4372 0.884073 55.8475 1.20669 56.1695C1.52931 56.4915 1.94046 56.7107 2.38797 56.7994C2.83549 56.8881 3.29933 56.8423 3.72073 56.6677C4.14213 56.4931 4.50214 56.1977 4.75522 55.8188C5.0083 55.4398 5.14304 54.9945 5.14239 54.5391C5.14153 53.9299 4.89869 53.3459 4.46713 52.9152C4.03556 52.4844 3.45048 52.2421 2.84016 52.2412Z" fill="white"/>
<path d="M15.9478 52.2412C15.4915 52.2406 15.0453 52.3751 14.6657 52.6277C14.286 52.8803 13.9901 53.2396 13.8152 53.6602C13.6403 54.0808 13.5943 54.5438 13.6832 54.9905C13.772 55.4372 13.9917 55.8475 14.3143 56.1695C14.6369 56.4915 15.048 56.7107 15.4955 56.7994C15.943 56.8881 16.4069 56.8423 16.8283 56.6677C17.2497 56.4931 17.6097 56.1977 17.8627 55.8188C18.1158 55.4398 18.2506 54.9945 18.25 54.5391C18.2491 53.9299 18.0063 53.3459 17.5747 52.9152C17.1432 52.4844 16.5581 52.2421 15.9478 52.2412Z" fill="white"/>
<path d="M2.84026 65.2402C2.38493 65.2402 1.93985 65.375 1.56125 65.6275C1.18266 65.88 0.887566 66.2389 0.713317 66.6588C0.539069 67.0786 0.493497 67.5407 0.582328 67.9864C0.671159 68.4322 0.890376 68.8416 1.21235 69.163C1.53431 69.4843 1.94458 69.7032 2.39117 69.7919C2.83775 69.8805 3.30063 69.835 3.7213 69.6611C4.14197 69.4872 4.50155 69.1927 4.75452 68.8148C5.00749 68.4369 5.14249 67.9926 5.14249 67.5381C5.14163 66.929 4.89878 66.345 4.46722 65.9142C4.03566 65.4835 3.45058 65.2411 2.84026 65.2402Z" fill="white"/>
<path d="M15.9479 65.2402C15.4925 65.2402 15.0475 65.375 14.6689 65.6275C14.2903 65.88 13.9952 66.2389 13.8209 66.6588C13.6467 67.0786 13.601 67.5407 13.6899 67.9864C13.7787 68.4322 13.998 68.8416 14.3199 69.163C14.6419 69.4843 15.0521 69.7032 15.4987 69.7919C15.9453 69.8805 16.4082 69.835 16.8289 69.6611C17.2496 69.4872 17.6091 69.1927 17.862 68.8148C18.115 68.4369 18.2501 67.9926 18.2501 67.5381C18.2492 66.929 18.0064 66.345 17.5748 65.9142C17.1433 65.4835 16.5582 65.2411 15.9479 65.2402Z" fill="white"/>
<path d="M2.84026 78.4072C2.38493 78.4072 1.93985 78.542 1.56125 78.7945C1.18266 79.047 0.887566 79.4059 0.713317 79.8258C0.539069 80.2456 0.493497 80.7077 0.582328 81.1534C0.671159 81.5992 0.890376 82.0086 1.21235 82.33C1.53431 82.6513 1.94458 82.8702 2.39117 82.9589C2.83775 83.0475 3.30063 83.002 3.7213 82.8281C4.14197 82.6542 4.50155 82.3596 4.75452 81.9818C5.00749 81.6039 5.14249 81.1596 5.14249 80.7051C5.14163 80.0959 4.89878 79.512 4.46722 79.0812C4.03566 78.6505 3.45058 78.4081 2.84026 78.4072Z" fill="white"/>
<path d="M15.9479 78.4072C15.4925 78.4072 15.0475 78.542 14.6689 78.7945C14.2903 79.047 13.9952 79.4059 13.8209 79.8258C13.6467 80.2456 13.601 80.7077 13.6899 81.1534C13.7787 81.5992 13.998 82.0086 14.3199 82.33C14.6419 82.6513 15.0521 82.8702 15.4987 82.9589C15.9453 83.0475 16.4082 83.002 16.8289 82.8281C17.2496 82.6542 17.6091 82.3596 17.862 81.9818C18.115 81.6039 18.2501 81.1596 18.2501 80.7051C18.2492 80.0959 18.0064 79.512 17.5748 79.0812C17.1433 78.6505 16.5582 78.4081 15.9479 78.4072Z" fill="white"/>
<path d="M29.0522 0C28.5969 0 28.1517 0.134773 27.7731 0.387268C27.3946 0.639764 27.0995 0.998644 26.9253 1.41853C26.751 1.83841 26.7054 2.30044 26.7942 2.74619C26.8831 3.19194 27.1023 3.60139 27.4243 3.92275C27.7463 4.24412 28.1565 4.46298 28.6031 4.55164C29.0496 4.64031 29.5125 4.5948 29.9332 4.42088C30.3539 4.24695 30.7134 3.95243 30.9664 3.57454C31.2194 3.19665 31.3544 2.75238 31.3544 2.2979C31.3535 1.68872 31.1108 1.10475 30.6792 0.673993C30.2476 0.243241 29.6626 0.000858599 29.0522 0Z" fill="white"/>
<path d="M42.1597 0C41.7044 0 41.2593 0.134773 40.8807 0.387268C40.5021 0.639764 40.207 0.998644 40.0328 1.41853C39.8585 1.83841 39.813 2.30044 39.9018 2.74619C39.9906 3.19194 40.2099 3.60139 40.5319 3.92275C40.8539 4.24412 41.264 4.46298 41.7106 4.55164C42.1572 4.64031 42.6201 4.5948 43.0408 4.42088C43.4614 4.24695 43.821 3.95243 44.074 3.57454C44.327 3.19665 44.4619 2.75238 44.4619 2.2979C44.4611 1.68872 44.2182 1.10475 43.7867 0.673993C43.3551 0.243241 42.77 0.000858599 42.1597 0Z" fill="white"/>
<path d="M55.2674 0C54.8121 0 54.367 0.134773 53.9884 0.387268C53.6098 0.639764 53.3147 0.998644 53.1404 1.41853C52.9662 1.83841 52.9206 2.30044 53.0095 2.74619C53.0983 3.19194 53.3175 3.60139 53.6395 3.92275C53.9614 4.24412 54.3717 4.46298 54.8183 4.55164C55.2649 4.64031 55.7277 4.5948 56.1484 4.42088C56.5691 4.24695 56.9287 3.95243 57.1816 3.57454C57.4346 3.19665 57.5696 2.75238 57.5696 2.2979C57.5688 1.68872 57.3259 1.10475 56.8943 0.673993C56.4628 0.243241 55.8777 0.000858599 55.2674 0Z" fill="white"/>
<path d="M68.375 4.59578C69.6464 4.59578 70.6772 3.56698 70.6772 2.29789C70.6772 1.0288 69.6464 0 68.375 0C67.1035 0 66.0728 1.0288 66.0728 2.29789C66.0728 3.56698 67.1035 4.59578 68.375 4.59578Z" fill="white"/>
<path d="M81.4827 0C81.0273 0 80.5822 0.134773 80.2036 0.387268C79.825 0.639764 79.53 0.998644 79.3557 1.41853C79.1815 1.83841 79.1358 2.30044 79.2246 2.74619C79.3135 3.19194 79.5328 3.60139 79.8547 3.92275C80.1767 4.24412 80.5869 4.46298 81.0335 4.55164C81.4801 4.64031 81.9429 4.5948 82.3636 4.42088C82.7843 4.24695 83.1439 3.95243 83.3968 3.57454C83.6498 3.19665 83.7848 2.75238 83.7848 2.2979C83.7839 1.68872 83.5412 1.10475 83.1096 0.673993C82.6781 0.243241 82.093 0.000858599 81.4827 0Z" fill="white"/>
<path d="M94.5902 0C94.1349 0 93.6897 0.134773 93.3111 0.387268C92.9325 0.639764 92.6374 0.998644 92.4632 1.41853C92.2889 1.83841 92.2434 2.30044 92.3322 2.74619C92.421 3.19194 92.6403 3.60139 92.9623 3.92275C93.2843 4.24412 93.6945 4.46298 94.141 4.55164C94.5876 4.64031 95.0505 4.5948 95.4712 4.42088C95.8918 4.24695 96.2514 3.95243 96.5044 3.57454C96.7574 3.19665 96.8924 2.75238 96.8924 2.2979C96.8915 1.68872 96.6487 1.10475 96.2171 0.673993C95.7855 0.243241 95.2005 0.000858599 94.5902 0Z" fill="white"/>
<path d="M107.698 4.59578C108.153 4.59578 108.598 4.46102 108.977 4.20853C109.355 3.95603 109.65 3.59714 109.825 3.17726C109.999 2.75737 110.045 2.29534 109.956 1.84959C109.867 1.40385 109.648 0.994407 109.326 0.673041C109.004 0.351675 108.594 0.132819 108.147 0.0441544C107.7 -0.0445103 107.237 0.000995724 106.817 0.174918C106.396 0.34884 106.037 0.643368 105.784 1.02125C105.531 1.39914 105.396 1.84342 105.396 2.2979C105.396 2.90707 105.639 3.49105 106.071 3.9218C106.502 4.35255 107.087 4.59493 107.698 4.59578Z" fill="white"/>
<path d="M29.0522 13.083C28.5969 13.083 28.1517 13.2178 27.7731 13.4703C27.3946 13.7228 27.0995 14.0816 26.9253 14.5015C26.751 14.9214 26.7054 15.3834 26.7942 15.8292C26.8831 16.2749 27.1023 16.6844 27.4243 17.0058C27.7463 17.3271 28.1565 17.546 28.6031 17.6346C29.0496 17.7233 29.5125 17.6778 29.9332 17.5039C30.3539 17.33 30.7134 17.0354 30.9664 16.6575C31.2194 16.2797 31.3544 15.8354 31.3544 15.3809C31.3544 14.7715 31.1119 14.187 30.6801 13.756C30.2484 13.3251 29.6628 13.083 29.0522 13.083Z" fill="white"/>
<path d="M42.1597 13.083C41.7044 13.083 41.2593 13.2178 40.8807 13.4703C40.5021 13.7228 40.207 14.0816 40.0328 14.5015C39.8585 14.9214 39.813 15.3834 39.9018 15.8292C39.9906 16.2749 40.2099 16.6844 40.5319 17.0058C40.8539 17.3271 41.264 17.546 41.7106 17.6346C42.1572 17.7233 42.6201 17.6778 43.0408 17.5039C43.4614 17.33 43.821 17.0354 44.074 16.6575C44.327 16.2797 44.4619 15.8354 44.4619 15.3809C44.4619 14.7715 44.2194 14.187 43.7876 13.756C43.3559 13.3251 42.7703 13.083 42.1597 13.083Z" fill="white"/>
<path d="M55.2674 13.083C54.8121 13.083 54.367 13.2178 53.9884 13.4703C53.6098 13.7228 53.3147 14.0816 53.1404 14.5015C52.9662 14.9214 52.9206 15.3834 53.0095 15.8292C53.0983 16.2749 53.3175 16.6844 53.6395 17.0058C53.9614 17.3271 54.3717 17.546 54.8183 17.6346C55.2649 17.7233 55.7277 17.6778 56.1484 17.5039C56.5691 17.33 56.9287 17.0354 57.1816 16.6575C57.4346 16.2797 57.5696 15.8354 57.5696 15.3809C57.5696 14.7715 57.327 14.187 56.8953 13.756C56.4636 13.3251 55.878 13.083 55.2674 13.083Z" fill="white"/>
<path d="M68.375 17.6754C69.6464 17.6754 70.6772 16.6466 70.6772 15.3775C70.6772 14.1084 69.6464 13.0796 68.375 13.0796C67.1035 13.0796 66.0728 14.1084 66.0728 15.3775C66.0728 16.6466 67.1035 17.6754 68.375 17.6754Z" fill="white"/>
<path d="M81.4827 13.083C81.0273 13.083 80.5822 13.2178 80.2036 13.4703C79.825 13.7228 79.53 14.0816 79.3557 14.5015C79.1815 14.9214 79.1358 15.3834 79.2246 15.8292C79.3135 16.2749 79.5328 16.6844 79.8547 17.0058C80.1767 17.3271 80.5869 17.546 81.0335 17.6346C81.4801 17.7233 81.9429 17.6778 82.3636 17.5039C82.7843 17.33 83.1439 17.0354 83.3968 16.6575C83.6498 16.2797 83.7848 15.8354 83.7848 15.3809C83.7848 14.7715 83.5423 14.187 83.1106 13.756C82.6788 13.3251 82.0932 13.083 81.4827 13.083Z" fill="white"/>
<path d="M94.5902 13.083C94.1349 13.083 93.6897 13.2178 93.3111 13.4703C92.9325 13.7228 92.6374 14.0816 92.4632 14.5015C92.2889 14.9214 92.2434 15.3834 92.3322 15.8292C92.421 16.2749 92.6403 16.6844 92.9623 17.0058C93.2843 17.3271 93.6945 17.546 94.141 17.6346C94.5876 17.7233 95.0505 17.6778 95.4712 17.5039C95.8918 17.33 96.2514 17.0354 96.5044 16.6575C96.7574 16.2797 96.8924 15.8354 96.8924 15.3809C96.8924 14.7715 96.6498 14.187 96.2181 13.756C95.7863 13.3251 95.2008 13.083 94.5902 13.083Z" fill="white"/>
<path d="M107.698 13.083C107.242 13.083 106.797 13.2178 106.419 13.4703C106.04 13.7228 105.745 14.0816 105.571 14.5015C105.397 14.9214 105.351 15.3834 105.44 15.8292C105.529 16.2749 105.748 16.6844 106.07 17.0058C106.392 17.3271 106.802 17.546 107.249 17.6346C107.695 17.7233 108.158 17.6778 108.579 17.5039C109 17.33 109.359 17.0354 109.612 16.6575C109.865 16.2797 110 15.8354 110 15.3809C110 14.7715 109.757 14.187 109.326 13.756C108.894 13.3251 108.308 13.083 107.698 13.083Z" fill="white"/>
<path d="M29.0521 26.0786C28.5959 26.078 28.1497 26.2125 27.77 26.4651C27.3904 26.7177 27.0945 27.077 26.9196 27.4976C26.7447 27.9183 26.6987 28.3812 26.7875 28.8279C26.8764 29.2746 27.096 29.6849 27.4187 30.0069C27.7413 30.3289 28.1524 30.5481 28.5999 30.6368C29.0474 30.7255 29.5112 30.6797 29.9326 30.5051C30.354 30.3305 30.714 30.0351 30.9671 29.6562C31.2202 29.2773 31.3549 28.8319 31.3543 28.3765C31.3534 27.7673 31.1107 27.1834 30.6791 26.7526C30.2475 26.3219 29.6625 26.0795 29.0521 26.0786Z" fill="white"/>
<path d="M42.1597 26.0786C41.7035 26.078 41.2573 26.2125 40.8777 26.4651C40.4981 26.7177 40.2021 27.077 40.0272 27.4976C39.8523 27.9183 39.8064 28.3812 39.8952 28.8279C39.9841 29.2746 40.2037 29.6849 40.5264 30.0069C40.849 30.3289 41.26 30.5481 41.7076 30.6368C42.1551 30.7255 42.6189 30.6797 43.0403 30.5051C43.4617 30.3305 43.8217 30.0351 44.0748 29.6562C44.3279 29.2773 44.4626 28.8319 44.462 28.3765C44.4611 27.7673 44.2183 27.1834 43.7867 26.7526C43.3551 26.3219 42.7701 26.0795 42.1597 26.0786Z" fill="white"/>
<path d="M55.2674 26.0786C54.8112 26.078 54.365 26.2125 53.9854 26.4651C53.6058 26.7177 53.3097 27.077 53.1348 27.4976C52.9599 27.9183 52.914 28.3812 53.0029 28.8279C53.0917 29.2746 53.3113 29.6849 53.6339 30.0069C53.9566 30.3289 54.3677 30.5481 54.8152 30.6368C55.2627 30.7255 55.7266 30.6797 56.148 30.5051C56.5694 30.3305 56.9294 30.0351 57.1825 29.6562C57.4355 29.2773 57.5703 28.8319 57.5696 28.3765C57.5688 27.7673 57.3259 27.1834 56.8944 26.7526C56.4628 26.3219 55.8777 26.0795 55.2674 26.0786Z" fill="white"/>
<path d="M68.375 30.6744C69.6464 30.6744 70.6772 29.6456 70.6772 28.3765C70.6772 27.1074 69.6464 26.0786 68.375 26.0786C67.1035 26.0786 66.0728 27.1074 66.0728 28.3765C66.0728 29.6456 67.1035 30.6744 68.375 30.6744Z" fill="white"/>
<path d="M81.4826 26.0786C81.0263 26.078 80.5801 26.2125 80.2005 26.4651C79.8208 26.7177 79.5249 27.077 79.35 27.4976C79.1751 27.9183 79.1291 28.3812 79.218 28.8279C79.3068 29.2746 79.5265 29.6849 79.8491 30.0069C80.1717 30.3289 80.5828 30.5481 81.0303 30.6368C81.4778 30.7255 81.9416 30.6797 82.363 30.5051C82.7844 30.3305 83.1445 30.0351 83.3975 29.6562C83.6506 29.2773 83.7853 28.8319 83.7847 28.3765C83.7838 27.7673 83.5411 27.1834 83.1095 26.7526C82.678 26.3219 82.0929 26.0795 81.4826 26.0786Z" fill="white"/>
<path d="M94.5902 26.0786C94.134 26.078 93.6878 26.2125 93.3081 26.4651C92.9285 26.7177 92.6325 27.077 92.4576 27.4976C92.2827 27.9183 92.2368 28.3812 92.3256 28.8279C92.4145 29.2746 92.6342 29.6849 92.9568 30.0069C93.2794 30.3289 93.6905 30.5481 94.138 30.6368C94.5855 30.7255 95.0493 30.6797 95.4707 30.5051C95.8921 30.3305 96.2521 30.0351 96.5052 29.6562C96.7583 29.2773 96.893 28.8319 96.8924 28.3765C96.8915 27.7673 96.6487 27.1834 96.2171 26.7526C95.7856 26.3219 95.2006 26.0795 94.5902 26.0786Z" fill="white"/>
<path d="M107.698 26.0786C107.242 26.078 106.795 26.2125 106.416 26.4651C106.036 26.7177 105.74 27.077 105.565 27.4976C105.39 27.9183 105.344 28.3812 105.433 28.8279C105.522 29.2746 105.742 29.6849 106.064 30.0069C106.387 30.3289 106.798 30.5481 107.246 30.6368C107.693 30.7255 108.157 30.6797 108.578 30.5051C109 30.3305 109.36 30.0351 109.613 29.6562C109.866 29.2773 110.001 28.8319 110 28.3765C109.999 27.7673 109.756 27.1834 109.325 26.7526C108.893 26.3219 108.308 26.0795 107.698 26.0786Z" fill="white"/>
<path d="M29.0521 39.1553C28.5959 39.1546 28.1497 39.2891 27.77 39.5417C27.3904 39.7943 27.0945 40.1537 26.9196 40.5743C26.7447 40.9949 26.6987 41.4579 26.7875 41.9045C26.8764 42.3512 27.096 42.7616 27.4187 43.0836C27.7413 43.4056 28.1524 43.6248 28.5999 43.7135C29.0474 43.8022 29.5112 43.7563 29.9326 43.5818C30.354 43.4072 30.714 43.1118 30.9671 42.7328C31.2202 42.3539 31.3549 41.9086 31.3543 41.4532C31.3534 40.844 31.1107 40.26 30.6791 39.8293C30.2475 39.3985 29.6625 39.1561 29.0521 39.1553Z" fill="white"/>
<path d="M42.1597 39.1553C41.7035 39.1546 41.2573 39.2891 40.8777 39.5417C40.4981 39.7943 40.2021 40.1537 40.0272 40.5743C39.8523 40.9949 39.8064 41.4579 39.8952 41.9045C39.9841 42.3512 40.2037 42.7616 40.5264 43.0836C40.849 43.4056 41.26 43.6248 41.7076 43.7135C42.1551 43.8022 42.6189 43.7563 43.0403 43.5818C43.4617 43.4072 43.8217 43.1118 44.0748 42.7328C44.3279 42.3539 44.4626 41.9086 44.462 41.4532C44.4611 40.844 44.2183 40.26 43.7867 39.8293C43.3551 39.3985 42.7701 39.1561 42.1597 39.1553Z" fill="white"/>
<path d="M55.2674 39.1553C54.8112 39.1546 54.365 39.2891 53.9854 39.5417C53.6058 39.7943 53.3097 40.1537 53.1348 40.5743C52.9599 40.9949 52.914 41.4579 53.0029 41.9045C53.0917 42.3512 53.3113 42.7616 53.6339 43.0836C53.9566 43.4056 54.3677 43.6248 54.8152 43.7135C55.2627 43.8022 55.7266 43.7563 56.148 43.5818C56.5694 43.4072 56.9294 43.1118 57.1825 42.7328C57.4355 42.3539 57.5703 41.9086 57.5696 41.4532C57.5688 40.844 57.3259 40.26 56.8944 39.8293C56.4628 39.3985 55.8777 39.1561 55.2674 39.1553Z" fill="white"/>
<path d="M68.375 43.7574C69.6464 43.7574 70.6772 42.7286 70.6772 41.4595C70.6772 40.1904 69.6464 39.1616 68.375 39.1616C67.1035 39.1616 66.0728 40.1904 66.0728 41.4595C66.0728 42.7286 67.1035 43.7574 68.375 43.7574Z" fill="white"/>
<path d="M81.4826 39.1553C81.0263 39.1546 80.5801 39.2891 80.2005 39.5417C79.8208 39.7943 79.5249 40.1537 79.35 40.5743C79.1751 40.9949 79.1291 41.4579 79.218 41.9045C79.3068 42.3512 79.5265 42.7616 79.8491 43.0836C80.1717 43.4056 80.5828 43.6248 81.0303 43.7135C81.4778 43.8022 81.9416 43.7563 82.363 43.5818C82.7844 43.4072 83.1445 43.1118 83.3975 42.7328C83.6506 42.3539 83.7853 41.9086 83.7847 41.4532C83.7838 40.844 83.5411 40.26 83.1095 39.8293C82.678 39.3985 82.0929 39.1561 81.4826 39.1553Z" fill="white"/>
<path d="M94.5902 39.1553C94.134 39.1546 93.6878 39.2891 93.3081 39.5417C92.9285 39.7943 92.6325 40.1537 92.4576 40.5743C92.2827 40.9949 92.2368 41.4579 92.3256 41.9045C92.4145 42.3512 92.6342 42.7616 92.9568 43.0836C93.2794 43.4056 93.6905 43.6248 94.138 43.7135C94.5855 43.8022 95.0493 43.7563 95.4707 43.5818C95.8921 43.4072 96.2521 43.1118 96.5052 42.7328C96.7583 42.3539 96.893 41.9086 96.8924 41.4532C96.8915 40.844 96.6487 40.26 96.2171 39.8293C95.7856 39.3985 95.2006 39.1561 94.5902 39.1553Z" fill="white"/>
<path d="M107.698 39.1553C107.242 39.1546 106.795 39.2891 106.416 39.5417C106.036 39.7943 105.74 40.1537 105.565 40.5743C105.39 40.9949 105.344 41.4579 105.433 41.9045C105.522 42.3512 105.742 42.7616 106.064 43.0836C106.387 43.4056 106.798 43.6248 107.246 43.7135C107.693 43.8022 108.157 43.7563 108.578 43.5818C109 43.4072 109.36 43.1118 109.613 42.7328C109.866 42.3539 110.001 41.9086 110 41.4532C109.999 40.844 109.756 40.26 109.325 39.8293C108.893 39.3985 108.308 39.1561 107.698 39.1553Z" fill="white"/>
<path d="M29.0521 52.2412C28.5959 52.2406 28.1497 52.3751 27.77 52.6277C27.3904 52.8803 27.0945 53.2396 26.9196 53.6602C26.7447 54.0808 26.6987 54.5438 26.7875 54.9905C26.8764 55.4372 27.096 55.8475 27.4187 56.1695C27.7413 56.4915 28.1524 56.7107 28.5999 56.7994C29.0474 56.8881 29.5112 56.8423 29.9326 56.6677C30.354 56.4931 30.714 56.1977 30.9671 55.8188C31.2202 55.4398 31.3549 54.9945 31.3543 54.5391C31.3534 53.9299 31.1107 53.3459 30.6791 52.9152C30.2475 52.4844 29.6625 52.2421 29.0521 52.2412Z" fill="white"/>
<path d="M42.1597 52.2412C41.7035 52.2406 41.2573 52.3751 40.8777 52.6277C40.4981 52.8803 40.2021 53.2396 40.0272 53.6602C39.8523 54.0808 39.8064 54.5438 39.8952 54.9905C39.9841 55.4372 40.2037 55.8475 40.5264 56.1695C40.849 56.4915 41.26 56.7107 41.7076 56.7994C42.1551 56.8881 42.6189 56.8423 43.0403 56.6677C43.4617 56.4931 43.8217 56.1977 44.0748 55.8188C44.3279 55.4398 44.4626 54.9945 44.462 54.5391C44.4611 53.9299 44.2183 53.3459 43.7867 52.9152C43.3551 52.4844 42.7701 52.2421 42.1597 52.2412Z" fill="white"/>
<path d="M55.2674 52.2412C54.8112 52.2406 54.365 52.3751 53.9854 52.6277C53.6058 52.8803 53.3097 53.2396 53.1348 53.6602C52.9599 54.0808 52.914 54.5438 53.0029 54.9905C53.0917 55.4372 53.3113 55.8475 53.6339 56.1695C53.9566 56.4915 54.3677 56.7107 54.8152 56.7994C55.2627 56.8881 55.7266 56.8423 56.148 56.6677C56.5694 56.4931 56.9294 56.1977 57.1825 55.8188C57.4355 55.4398 57.5703 54.9945 57.5696 54.5391C57.5688 53.9299 57.3259 53.3459 56.8944 52.9152C56.4628 52.4844 55.8777 52.2421 55.2674 52.2412Z" fill="white"/>
<path d="M68.375 52.2412C67.9188 52.2406 67.4725 52.3751 67.0929 52.6277C66.7133 52.8803 66.4173 53.2396 66.2424 53.6602C66.0675 54.0808 66.0216 54.5438 66.1104 54.9905C66.1993 55.4372 66.4189 55.8475 66.7415 56.1695C67.0642 56.4915 67.4753 56.7107 67.9228 56.7994C68.3703 56.8881 68.8341 56.8423 69.2555 56.6677C69.6769 56.4931 70.037 56.1977 70.2901 55.8188C70.5432 55.4398 70.6779 54.9945 70.6772 54.5391C70.6764 53.9299 70.4335 53.3459 70.002 52.9152C69.5704 52.4844 68.9853 52.2421 68.375 52.2412Z" fill="white"/>
<path d="M81.4826 52.2412C81.0263 52.2406 80.5801 52.3751 80.2005 52.6277C79.8208 52.8803 79.5249 53.2396 79.35 53.6602C79.1751 54.0808 79.1291 54.5438 79.218 54.9905C79.3068 55.4372 79.5265 55.8475 79.8491 56.1695C80.1717 56.4915 80.5828 56.7107 81.0303 56.7994C81.4778 56.8881 81.9416 56.8423 82.363 56.6677C82.7844 56.4931 83.1445 56.1977 83.3975 55.8188C83.6506 55.4398 83.7853 54.9945 83.7847 54.5391C83.7838 53.9299 83.5411 53.3459 83.1095 52.9152C82.678 52.4844 82.0929 52.2421 81.4826 52.2412Z" fill="white"/>
<path d="M94.5902 52.2412C94.134 52.2406 93.6878 52.3751 93.3081 52.6277C92.9285 52.8803 92.6325 53.2396 92.4576 53.6602C92.2827 54.0808 92.2368 54.5438 92.3256 54.9905C92.4145 55.4372 92.6342 55.8475 92.9568 56.1695C93.2794 56.4915 93.6905 56.7107 94.138 56.7994C94.5855 56.8881 95.0493 56.8423 95.4707 56.6677C95.8921 56.4931 96.2521 56.1977 96.5052 55.8188C96.7583 55.4398 96.893 54.9945 96.8924 54.5391C96.8915 53.9299 96.6487 53.3459 96.2171 52.9152C95.7856 52.4844 95.2006 52.2421 94.5902 52.2412Z" fill="white"/>
<path d="M107.698 52.2412C107.242 52.2406 106.795 52.3751 106.416 52.6277C106.036 52.8803 105.74 53.2396 105.565 53.6602C105.39 54.0808 105.344 54.5438 105.433 54.9905C105.522 55.4372 105.742 55.8475 106.064 56.1695C106.387 56.4915 106.798 56.7107 107.246 56.7994C107.693 56.8881 108.157 56.8423 108.578 56.6677C109 56.4931 109.36 56.1977 109.613 55.8188C109.866 55.4398 110.001 54.9945 110 54.5391C109.999 53.9299 109.756 53.3459 109.325 52.9152C108.893 52.4844 108.308 52.2421 107.698 52.2412Z" fill="white"/>
<path d="M29.0522 65.2402C28.5969 65.2402 28.1517 65.375 27.7731 65.6275C27.3946 65.88 27.0995 66.2389 26.9253 66.6588C26.751 67.0786 26.7054 67.5407 26.7942 67.9864C26.8831 68.4322 27.1023 68.8416 27.4243 69.163C27.7463 69.4843 28.1565 69.7032 28.6031 69.7919C29.0496 69.8805 29.5125 69.835 29.9332 69.6611C30.3539 69.4872 30.7134 69.1927 30.9664 68.8148C31.2194 68.4369 31.3544 67.9926 31.3544 67.5381C31.3535 66.929 31.1108 66.345 30.6792 65.9142C30.2476 65.4835 29.6626 65.2411 29.0522 65.2402Z" fill="white"/>
<path d="M42.1597 65.2402C41.7044 65.2402 41.2593 65.375 40.8807 65.6275C40.5021 65.88 40.207 66.2389 40.0328 66.6588C39.8585 67.0786 39.813 67.5407 39.9018 67.9864C39.9906 68.4322 40.2099 68.8416 40.5319 69.163C40.8539 69.4843 41.264 69.7032 41.7106 69.7919C42.1572 69.8805 42.6201 69.835 43.0408 69.6611C43.4614 69.4872 43.821 69.1927 44.074 68.8148C44.327 68.4369 44.4619 67.9926 44.4619 67.5381C44.4611 66.929 44.2182 66.345 43.7867 65.9142C43.3551 65.4835 42.77 65.2411 42.1597 65.2402Z" fill="white"/>
<path d="M55.2674 65.2402C54.8121 65.2402 54.367 65.375 53.9884 65.6275C53.6098 65.88 53.3147 66.2389 53.1404 66.6588C52.9662 67.0786 52.9206 67.5407 53.0095 67.9864C53.0983 68.4322 53.3175 68.8416 53.6395 69.163C53.9614 69.4843 54.3717 69.7032 54.8183 69.7919C55.2649 69.8805 55.7277 69.835 56.1484 69.6611C56.5691 69.4872 56.9287 69.1927 57.1816 68.8148C57.4346 68.4369 57.5696 67.9926 57.5696 67.5381C57.5688 66.929 57.3259 66.345 56.8943 65.9142C56.4628 65.4835 55.8777 65.2411 55.2674 65.2402Z" fill="white"/>
<path d="M68.375 69.836C69.6464 69.836 70.6772 68.8072 70.6772 67.5381C70.6772 66.269 69.6464 65.2402 68.375 65.2402C67.1035 65.2402 66.0728 66.269 66.0728 67.5381C66.0728 68.8072 67.1035 69.836 68.375 69.836Z" fill="white"/>
<path d="M81.4827 65.2402C81.0273 65.2402 80.5822 65.375 80.2036 65.6275C79.825 65.88 79.53 66.2389 79.3557 66.6588C79.1815 67.0786 79.1358 67.5407 79.2246 67.9864C79.3135 68.4322 79.5328 68.8416 79.8547 69.163C80.1767 69.4843 80.5869 69.7032 81.0335 69.7919C81.4801 69.8805 81.9429 69.835 82.3636 69.6611C82.7843 69.4872 83.1439 69.1927 83.3968 68.8148C83.6498 68.4369 83.7848 67.9926 83.7848 67.5381C83.7839 66.929 83.5412 66.345 83.1096 65.9142C82.6781 65.4835 82.093 65.2411 81.4827 65.2402Z" fill="white"/>
<path d="M94.5902 65.2402C94.1349 65.2402 93.6897 65.375 93.3111 65.6275C92.9325 65.88 92.6374 66.2389 92.4632 66.6588C92.2889 67.0786 92.2434 67.5407 92.3322 67.9864C92.421 68.4322 92.6403 68.8416 92.9623 69.163C93.2843 69.4843 93.6945 69.7032 94.141 69.7919C94.5876 69.8805 95.0505 69.835 95.4712 69.6611C95.8918 69.4872 96.2514 69.1927 96.5044 68.8148C96.7574 68.4369 96.8924 67.9926 96.8924 67.5381C96.8915 66.929 96.6487 66.345 96.2171 65.9142C95.7855 65.4835 95.2005 65.2411 94.5902 65.2402Z" fill="white"/>
<path d="M107.698 65.2402C107.242 65.2402 106.797 65.375 106.419 65.6275C106.04 65.88 105.745 66.2389 105.571 66.6588C105.397 67.0786 105.351 67.5407 105.44 67.9864C105.529 68.4322 105.748 68.8416 106.07 69.163C106.392 69.4843 106.802 69.7032 107.249 69.7919C107.695 69.8805 108.158 69.835 108.579 69.6611C109 69.4872 109.359 69.1927 109.612 68.8148C109.865 68.4369 110 67.9926 110 67.5381C109.999 66.929 109.756 66.345 109.325 65.9142C108.893 65.4835 108.308 65.2411 107.698 65.2402Z" fill="white"/>
<path d="M29.0522 78.4072C28.5969 78.4072 28.1517 78.542 27.7731 78.7945C27.3946 79.047 27.0995 79.4059 26.9253 79.8258C26.751 80.2456 26.7054 80.7077 26.7942 81.1534C26.8831 81.5992 27.1023 82.0086 27.4243 82.33C27.7463 82.6513 28.1565 82.8702 28.6031 82.9589C29.0496 83.0475 29.5125 83.002 29.9332 82.8281C30.3539 82.6542 30.7134 82.3596 30.9664 81.9818C31.2194 81.6039 31.3544 81.1596 31.3544 80.7051C31.3544 80.0957 31.1119 79.5112 30.6801 79.0803C30.2484 78.6493 29.6628 78.4072 29.0522 78.4072Z" fill="white"/>
<path d="M42.1597 78.4072C41.7044 78.4072 41.2593 78.542 40.8807 78.7945C40.5021 79.047 40.207 79.4059 40.0328 79.8258C39.8585 80.2456 39.813 80.7077 39.9018 81.1534C39.9906 81.5992 40.2099 82.0086 40.5319 82.33C40.8539 82.6513 41.264 82.8702 41.7106 82.9589C42.1572 83.0475 42.6201 83.002 43.0408 82.8281C43.4614 82.6542 43.821 82.3596 44.074 81.9818C44.327 81.6039 44.4619 81.1596 44.4619 80.7051C44.4619 80.0957 44.2194 79.5112 43.7876 79.0803C43.3559 78.6493 42.7703 78.4072 42.1597 78.4072Z" fill="white"/>
<path d="M55.2674 78.4072C54.8121 78.4072 54.367 78.542 53.9884 78.7945C53.6098 79.047 53.3147 79.4059 53.1404 79.8258C52.9662 80.2456 52.9206 80.7077 53.0095 81.1534C53.0983 81.5992 53.3175 82.0086 53.6395 82.33C53.9614 82.6513 54.3717 82.8702 54.8183 82.9589C55.2649 83.0475 55.7277 83.002 56.1484 82.8281C56.5691 82.6542 56.9287 82.3596 57.1816 81.9818C57.4346 81.6039 57.5696 81.1596 57.5696 80.7051C57.5696 80.0957 57.327 79.5112 56.8953 79.0803C56.4636 78.6493 55.878 78.4072 55.2674 78.4072Z" fill="white"/>
<path d="M68.375 83.0001C69.6464 83.0001 70.6772 81.9713 70.6772 80.7022C70.6772 79.4331 69.6464 78.4043 68.375 78.4043C67.1035 78.4043 66.0728 79.4331 66.0728 80.7022C66.0728 81.9713 67.1035 83.0001 68.375 83.0001Z" fill="white"/>
<path d="M81.4827 78.4072C81.0273 78.4072 80.5822 78.542 80.2036 78.7945C79.825 79.047 79.53 79.4059 79.3557 79.8258C79.1815 80.2456 79.1358 80.7077 79.2246 81.1534C79.3135 81.5992 79.5328 82.0086 79.8547 82.33C80.1767 82.6513 80.5869 82.8702 81.0335 82.9589C81.4801 83.0475 81.9429 83.002 82.3636 82.8281C82.7843 82.6542 83.1439 82.3596 83.3968 81.9818C83.6498 81.6039 83.7848 81.1596 83.7848 80.7051C83.7848 80.0957 83.5423 79.5112 83.1106 79.0803C82.6788 78.6493 82.0932 78.4072 81.4827 78.4072Z" fill="white"/>
<path d="M94.5902 78.4072C94.1349 78.4072 93.6897 78.542 93.3111 78.7945C92.9325 79.047 92.6374 79.4059 92.4632 79.8258C92.2889 80.2456 92.2434 80.7077 92.3322 81.1534C92.421 81.5992 92.6403 82.0086 92.9623 82.33C93.2843 82.6513 93.6945 82.8702 94.141 82.9589C94.5876 83.0475 95.0505 83.002 95.4712 82.8281C95.8918 82.6542 96.2514 82.3596 96.5044 81.9818C96.7574 81.6039 96.8924 81.1596 96.8924 80.7051C96.8924 80.0957 96.6498 79.5112 96.2181 79.0803C95.7863 78.6493 95.2008 78.4072 94.5902 78.4072Z" fill="white"/>
<path d="M107.698 78.4072C107.242 78.4066 106.796 78.541 106.417 78.7934C106.038 79.0458 105.742 79.4048 105.568 79.825C105.393 80.2452 105.348 80.7077 105.437 81.1538C105.526 81.6 105.745 82.0097 106.068 82.3311C106.39 82.6526 106.801 82.8712 107.248 82.9594C107.695 83.0476 108.159 83.0014 108.579 82.8265C109 82.6517 109.359 82.3562 109.612 81.9774C109.864 81.5986 109.998 81.1535 109.997 80.6986C109.995 80.0909 109.752 79.5086 109.321 79.0791C108.89 78.6497 108.307 78.4081 107.698 78.4072Z" fill="white"/>
</g>
<defs>
<clipPath id="clip0_33_1461">
<rect width="110" height="83" fill="white"/>
</clipPath>
</defs>
</svg>
