<svg width="30" height="30" viewBox="0 0 30 30" fill="none" xmlns="http://www.w3.org/2000/svg">
<g clip-path="url(#clip0_33_1572)">
<path d="M14.9999 30.0001C14.7185 30.0004 14.4398 29.9453 14.1797 29.8378C13.9196 29.7303 13.6833 29.5726 13.4842 29.3738C13.2851 29.1749 13.1271 28.9387 13.0193 28.6787C12.9116 28.4187 12.8561 28.1401 12.8561 27.8587V22.8739C12.8561 22.3053 13.0819 21.76 13.484 21.3579C13.8861 20.9558 14.4314 20.73 14.9999 20.73C15.5685 20.73 16.1139 20.9558 16.516 21.3579C16.918 21.76 17.1439 22.3053 17.1439 22.8739V27.8587C17.1432 28.4268 16.9171 28.9715 16.5151 29.3731C16.1131 29.7746 15.5681 30.0001 14.9999 30.0001Z" fill="white"/>
<path d="M14.9999 9.27014C14.4314 9.27014 13.8861 9.04428 13.484 8.64222C13.0819 8.24016 12.8561 7.69486 12.8561 7.12627V2.1439C12.8561 1.5753 13.0819 1.02997 13.484 0.627916C13.8861 0.225859 14.4314 0 14.9999 0C15.5685 0 16.1139 0.225859 16.516 0.627916C16.918 1.02997 17.1439 1.5753 17.1439 2.1439V7.12627C17.1439 7.69486 16.918 8.24016 16.516 8.64222C16.1139 9.04428 15.5685 9.27014 14.9999 9.27014Z" fill="white"/>
<path d="M7.12628 17.1438H2.14144C1.58559 17.1251 1.05877 16.8912 0.672138 16.4914C0.285507 16.0916 0.0693359 15.5573 0.0693359 15.0011C0.0693359 14.4449 0.285507 13.9105 0.672138 13.5107C1.05877 13.1109 1.58559 12.877 2.14144 12.8584H7.12628C7.68213 12.877 8.20895 13.1109 8.59558 13.5107C8.98221 13.9105 9.19838 14.4449 9.19838 15.0011C9.19838 15.5573 8.98221 16.0916 8.59558 16.4914C8.20895 16.8912 7.68213 17.1251 7.12628 17.1438Z" fill="white"/>
<path d="M27.8561 17.144H22.8737C22.5863 17.1536 22.2999 17.1053 22.0315 17.002C21.7631 16.8986 21.5183 16.7424 21.3116 16.5424C21.1049 16.3425 20.9405 16.103 20.8282 15.8383C20.7159 15.5735 20.6581 15.2889 20.6581 15.0013C20.6581 14.7137 20.7159 14.4291 20.8282 14.1643C20.9405 13.8996 21.1049 13.6601 21.3116 13.4602C21.5183 13.2603 21.7631 13.104 22.0315 13.0006C22.2999 12.8973 22.5863 12.849 22.8737 12.8586H27.8561C28.1436 12.849 28.43 12.8973 28.6984 13.0006C28.9667 13.104 29.2115 13.2603 29.4183 13.4602C29.625 13.6601 29.7894 13.8996 29.9017 14.1643C30.0139 14.4291 30.0718 14.7137 30.0718 15.0013C30.0718 15.2889 30.0139 15.5735 29.9017 15.8383C29.7894 16.103 29.625 16.3425 29.4183 16.5424C29.2115 16.7424 28.9667 16.8986 28.6984 17.002C28.43 17.1053 28.1436 17.1536 27.8561 17.144Z" fill="white"/>
</g>
<defs>
<clipPath id="clip0_33_1572">
<rect width="30" height="30" fill="white"/>
</clipPath>
</defs>
</svg>
