<svg width="296" height="186" viewBox="0 0 296 186" fill="none" xmlns="http://www.w3.org/2000/svg">
<g clip-path="url(#clip0_21_73)">
<mask id="mask0_21_73" style="mask-type:alpha" maskUnits="userSpaceOnUse" x="-86" y="-35" width="408" height="329">
<g clip-path="url(#clip1_21_73)">
<path d="M99.8454 62.8837C91.2183 65.1953 83.1799 63.2866 81.9408 58.6624C80.7018 54.0381 86.7089 48.3661 95.336 46.0544C103.963 43.7428 112.008 45.6497 113.247 50.2739C114.486 54.8982 108.453 60.5772 99.8454 62.8837ZM95.4968 46.6546C87.2044 48.8765 81.3927 54.1916 82.5471 58.4999C83.7015 62.8083 91.3922 64.5054 99.6845 62.2835C107.977 60.0616 113.795 54.7448 112.641 50.4364C111.486 46.128 103.77 44.4377 95.4968 46.6546Z" fill="#D0D0D0"/>
<path d="M104.854 81.5766C79.314 88.4201 55.5604 82.9088 51.9109 69.2887C48.2614 55.6687 66.0787 39.0253 91.6188 32.1818C117.159 25.3384 140.919 30.848 144.566 44.4617C148.214 58.0755 130.375 74.7383 104.854 81.5766ZM91.7796 32.7819C66.5679 39.5374 48.9513 55.8427 52.511 69.1279C56.0708 82.4132 79.4816 87.732 104.693 80.9765C129.905 74.2211 147.528 57.914 143.967 44.6225C140.405 31.3309 116.977 26.0505 91.7847 32.8009L91.7796 32.7819Z" fill="#D0D0D0"/>
<path d="M110.176 101.438C68.8659 112.507 30.4754 103.653 24.5966 81.7127C18.7179 59.7728 47.5377 32.9093 88.8478 21.8403C130.158 10.7713 168.555 19.6242 174.433 41.5641C180.312 63.504 151.461 90.3759 110.176 101.438ZM89.0035 22.4216C48.0282 33.4009 19.4071 59.92 25.2012 81.544C30.9954 103.168 69.0398 111.817 110.015 100.838C150.991 89.8587 179.618 63.3381 173.825 41.7203C168.033 20.1026 129.96 11.4473 89.0035 22.4216Z" fill="#D0D0D0"/>
<path d="M115.652 121.874C60.1129 136.756 8.4926 124.858 0.589334 95.3631C-7.31394 65.8677 31.4401 29.7476 86.9791 14.866C142.518 -0.0156486 194.151 11.8786 202.056 41.3803C209.961 70.8821 171.172 106.998 115.652 121.874ZM87.1416 15.4724C31.931 30.2661 -6.62751 66.0291 1.18944 95.2023C9.00638 124.376 60.2805 136.068 115.491 121.274C170.702 106.481 209.265 70.7097 201.449 41.5428C193.634 12.3759 142.333 0.683858 87.1416 15.4724Z" fill="#D0D0D0"/>
<path d="M121.194 142.557C53.1247 160.797 -10.1296 146.227 -19.817 110.073C-29.5044 73.9195 17.9706 29.7006 86.065 11.4548C154.159 -6.79103 217.397 7.78966 227.082 43.9372C236.768 80.0847 189.244 124.323 121.194 142.557ZM86.2224 12.0423C18.4881 30.1917 -28.8146 74.0935 -19.2169 109.913C-9.61925 145.732 53.2986 160.107 121.033 141.957C188.767 123.808 236.075 79.898 226.477 44.079C216.879 8.25999 153.938 -6.10195 86.2224 12.0423Z" fill="#D0D0D0"/>
<path d="M126.605 162.754C48.1535 183.775 -24.7883 166.852 -35.9941 125.031C-41.1382 105.833 -32.5789 83.9176 -11.9166 63.3161C-11.8569 63.262 -11.7789 63.233 -11.6984 63.2349C-11.6179 63.2369 -11.5411 63.2697 -11.4841 63.3266C-11.4271 63.3835 -11.3944 63.4602 -11.3924 63.5407C-11.3903 63.6213 -11.419 63.6995 -11.473 63.7592C-31.9889 84.1997 -40.4901 105.903 -35.4069 124.874C-24.2909 166.36 48.3131 183.082 126.43 162.151C204.547 141.219 259.063 90.435 247.947 48.9494C242.869 29.9976 224.656 15.4318 196.675 7.98615C196.631 7.97997 196.589 7.96457 196.552 7.94104C196.514 7.9175 196.482 7.88628 196.458 7.8495C196.433 7.81272 196.417 7.77122 196.409 7.72762C196.402 7.68401 196.404 7.63926 196.415 7.59645C196.426 7.55364 196.446 7.51374 196.474 7.4792C196.501 7.44467 196.536 7.41632 196.575 7.39608C196.615 7.37586 196.658 7.36413 196.702 7.36174C196.746 7.35935 196.79 7.36633 196.831 7.38219C225.045 14.8875 243.397 29.5921 248.541 48.7904C259.746 90.6108 205.038 141.738 126.605 162.754Z" fill="#D0D0D0"/>
<path d="M131.804 182.154C45.2111 205.356 -35.3084 186.679 -47.677 140.519C-51.0083 128.086 -49.225 114.784 -42.3873 100.995C-42.3672 100.959 -42.3403 100.928 -42.3081 100.903C-42.2758 100.878 -42.2389 100.86 -42.1995 100.85C-42.1601 100.839 -42.119 100.836 -42.0786 100.842C-42.0382 100.847 -41.9994 100.861 -41.9642 100.882C-41.9272 100.899 -41.8939 100.923 -41.8665 100.954C-41.8391 100.984 -41.818 101.02 -41.8045 101.058C-41.7909 101.097 -41.7852 101.138 -41.7877 101.179C-41.7902 101.22 -41.8012 101.26 -41.8194 101.296C-48.5911 114.953 -50.3546 128.101 -47.064 140.381C-34.7834 186.213 45.3838 204.687 131.648 181.573C217.912 158.458 278.11 102.38 265.828 56.5422C262.537 44.2614 254.436 33.7571 241.743 25.316C241.709 25.2933 241.68 25.2641 241.657 25.23C241.635 25.1958 241.619 25.1575 241.612 25.1173C241.604 25.0771 241.604 25.0359 241.613 24.9958C241.621 24.9558 241.638 24.9179 241.661 24.8843C241.681 24.8489 241.708 24.8176 241.741 24.7927C241.773 24.7677 241.81 24.7495 241.849 24.739C241.888 24.7284 241.929 24.7258 241.97 24.7313C242.01 24.7368 242.049 24.7502 242.085 24.7709C254.901 33.2941 263.096 43.9221 266.427 56.3545C278.771 102.522 218.377 158.957 131.804 182.154Z" fill="#D0D0D0"/>
<path d="M147.109 239.275C88.2672 255.042 27.262 252.606 -8.31747 233.072C-8.3903 233.031 -8.44379 232.963 -8.46656 232.883C-8.48933 232.803 -8.47936 232.717 -8.43873 232.644C-8.39811 232.571 -8.33025 232.518 -8.25003 232.495C-8.16981 232.472 -8.08399 232.482 -8.01117 232.523C27.4275 251.986 88.2563 254.395 146.947 238.669C205.265 223.042 256.705 190.592 278.01 155.992C278.058 155.931 278.126 155.889 278.203 155.875C278.28 155.862 278.359 155.877 278.425 155.919C278.491 155.96 278.539 156.025 278.56 156.099C278.581 156.174 278.573 156.255 278.539 156.324C257.142 191.084 205.547 223.617 147.109 239.275Z" fill="#D0D0D0"/>
<path d="M144.499 229.534C67.2471 250.233 -8.42104 240.365 -39.4977 205.527C-39.5412 205.465 -39.5604 205.388 -39.5514 205.312C-39.5425 205.236 -39.5062 205.166 -39.4492 205.115C-39.3922 205.064 -39.3184 205.035 -39.2419 205.035C-39.1654 205.034 -39.0916 205.062 -39.0339 205.112C-8.0855 239.774 67.301 249.576 144.338 228.934C221.375 208.291 281.786 162.103 291.238 116.616C291.242 116.571 291.255 116.528 291.277 116.489C291.298 116.451 291.328 116.417 291.364 116.39C291.399 116.363 291.44 116.345 291.484 116.335C291.527 116.325 291.572 116.325 291.616 116.334C291.659 116.344 291.7 116.362 291.736 116.388C291.772 116.414 291.802 116.448 291.824 116.487C291.846 116.525 291.86 116.568 291.864 116.612C291.868 116.657 291.863 116.701 291.848 116.744C282.328 162.459 221.732 208.839 144.499 229.534Z" fill="#D0D0D0"/>
<path d="M140.919 216.173C95.7501 228.276 50.5986 230.414 13.7796 222.195C-23.0395 213.976 -47.4772 196.311 -55.0106 172.465C-55.0331 172.381 -55.0213 172.292 -54.978 172.217C-54.9346 172.142 -54.8632 172.087 -54.7795 172.065C-54.6957 172.042 -54.6065 172.054 -54.5314 172.097C-54.4563 172.141 -54.4015 172.212 -54.3791 172.296C-46.9175 195.924 -22.6506 213.431 13.9456 221.602C50.6643 229.801 95.7144 227.662 140.789 215.585C185.863 203.507 225.946 182.834 253.653 157.373C281.26 131.999 293.524 104.71 288.177 80.5082C288.164 80.4684 288.16 80.4263 288.165 80.3847C288.17 80.3432 288.184 80.3033 288.206 80.2678C288.228 80.2322 288.258 80.2018 288.292 80.1789C288.327 80.1559 288.367 80.1408 288.409 80.1347C288.449 80.1247 288.491 80.1231 288.532 80.1298C288.573 80.1364 288.612 80.1514 288.647 80.1736C288.682 80.1959 288.712 80.2249 288.736 80.2591C288.759 80.2934 288.776 80.332 288.784 80.3727C294.183 104.791 281.864 132.331 254.074 157.835C226.285 183.339 186.069 204.075 140.919 216.173Z" fill="#D0D0D0"/>
<path d="M136.603 200.064C44.5092 224.74 -41.0545 205.099 -54.1341 156.285C-56.471 147.308 -56.4196 137.875 -53.9853 128.925C-53.9577 128.853 -53.9045 128.793 -53.8359 128.758C-53.7674 128.723 -53.6885 128.714 -53.6138 128.733C-53.5392 128.753 -53.4742 128.799 -53.4314 128.863C-53.3886 128.927 -53.3708 129.005 -53.3815 129.081C-55.7881 137.927 -55.8387 147.25 -53.5278 156.122C-40.5363 204.608 44.6814 224.044 136.44 199.457C228.199 174.871 292.288 115.428 279.296 66.9425C276.919 58.2982 272.364 50.4081 266.068 44.0263C266.011 43.9671 265.979 43.8875 265.98 43.805C265.981 43.7224 266.014 43.6435 266.072 43.5852C266.101 43.5559 266.135 43.5328 266.173 43.5171C266.212 43.5014 266.252 43.4935 266.294 43.4938C266.335 43.4942 266.375 43.5027 266.413 43.5191C266.451 43.5354 266.485 43.5592 266.513 43.589C272.888 50.0451 277.498 58.0306 279.902 66.7801C292.957 115.601 228.677 175.392 136.603 200.064Z" fill="#D0D0D0"/>
<path d="M149.372 247.721C54.5696 273.124 -36.7813 240.726 -54.267 175.468C-71.7527 110.211 -8.83942 36.478 85.9635 11.0757C180.766 -14.3267 272.123 18.0693 289.609 83.3269C307.095 148.584 244.156 222.324 149.372 247.721ZM86.1243 11.6758C-8.34389 36.9885 -71.0531 110.396 -53.6604 175.306C-36.2678 240.216 54.7097 272.409 149.203 247.089C243.697 221.77 306.387 148.368 288.994 83.4578C271.602 18.5477 180.57 -13.6444 86.1209 11.6631L86.1243 11.6758Z" fill="#D0D0D0"/>
<path d="M149.372 247.721C149.333 247.733 149.292 247.736 149.251 247.731C149.211 247.727 149.171 247.714 149.136 247.694C149.1 247.674 149.069 247.647 149.044 247.614C149.019 247.582 149 247.545 148.99 247.506L97.2164 54.2851C97.1968 54.2053 97.2092 54.121 97.251 54.0503C97.2928 53.9796 97.3607 53.9281 97.44 53.9069C97.4793 53.8955 97.5206 53.892 97.5612 53.8967C97.6019 53.9014 97.6411 53.9142 97.6767 53.9343C97.7124 53.9544 97.7436 53.9814 97.7687 54.0137C97.7938 54.046 97.8121 54.0831 97.8227 54.1226L149.596 247.343C149.616 247.423 149.603 247.507 149.561 247.578C149.52 247.648 149.452 247.7 149.372 247.721Z" fill="#D0D0D0"/>
<path d="M126.734 252.711C126.645 252.735 125.854 252.913 124.538 252.094C121.177 249.961 114.551 241.147 108.019 206.057C100.053 163.294 98.3227 127.202 97.4937 109.86C97.3791 107.488 97.2869 105.501 97.1956 103.948C96.3277 89.0885 96.8942 64.02 97.096 56.4368C85.1262 95.1301 76.5359 161.999 82.6507 209.374C88.253 252.791 101.275 255.009 103.829 255.016C103.873 255.011 103.918 255.015 103.96 255.028C104.002 255.042 104.041 255.064 104.074 255.094C104.107 255.123 104.133 255.16 104.151 255.2C104.169 255.241 104.179 255.284 104.179 255.329C104.179 255.373 104.169 255.417 104.151 255.457C104.132 255.498 104.106 255.534 104.073 255.563C104.039 255.592 104 255.614 103.958 255.628C103.916 255.641 103.871 255.645 103.827 255.639C100.109 255.633 87.5609 252.279 82.0289 209.453C75.7899 161.108 84.8277 92.5017 97.177 54.113C97.1985 54.0405 97.2459 53.9785 97.3101 53.9388C97.3744 53.8991 97.4511 53.8844 97.5255 53.8977C97.5996 53.9104 97.6667 53.9494 97.7146 54.0074C97.7624 54.0654 97.788 54.1386 97.7864 54.2138C97.7775 54.5344 96.7955 86.3631 97.8214 103.909C97.908 105.47 98.0066 107.455 98.1212 109.828C98.9468 127.157 100.677 163.222 108.632 205.947C115.077 240.559 121.514 249.349 124.78 251.508C125.9 252.25 126.554 252.116 126.56 252.114C126.64 252.096 126.724 252.11 126.794 252.154C126.864 252.197 126.914 252.266 126.934 252.346C126.954 252.421 126.944 252.5 126.907 252.569C126.87 252.637 126.808 252.688 126.734 252.711Z" fill="#D0D0D0"/>
<path d="M81.8007 256.348L81.7378 256.365C81.5176 256.376 76.2916 256.578 70.6142 250.977C65.4255 245.86 58.8896 234.679 57.237 210.449C54.2006 166.074 70.6417 101.753 97.2281 54.0247C97.2457 53.9843 97.2713 53.9481 97.3037 53.9184C97.3362 53.8886 97.3748 53.866 97.4165 53.8521C97.4583 53.8382 97.5023 53.8332 97.5461 53.8375C97.5899 53.8417 97.6324 53.8552 97.6707 53.8769C97.709 53.8986 97.7422 53.9282 97.7683 53.9636C97.7945 53.9991 97.8129 54.0396 97.8223 54.0826C97.8318 54.1256 97.8322 54.17 97.8233 54.2132C97.8144 54.2563 97.7964 54.2971 97.7708 54.3329C71.2697 101.951 54.847 166.138 57.8672 210.402C61.004 256.213 81.5242 255.745 81.7175 255.734C81.8003 255.731 81.8809 255.76 81.9424 255.816C82.004 255.871 82.0418 255.948 82.0477 256.031C82.0501 256.104 82.0266 256.176 81.9815 256.234C81.9364 256.292 81.8724 256.332 81.8007 256.348Z" fill="#D0D0D0"/>
<path d="M57.8007 254.742C57.7657 254.76 57.7267 254.771 57.6869 254.772C57.4548 254.739 34.0055 251.273 33.7426 209.215C33.4764 165.276 60.1806 99.9994 97.2567 54.0304C97.2801 53.9925 97.3111 53.9599 97.3481 53.9349C97.385 53.9099 97.4271 53.8931 97.471 53.8856C97.515 53.878 97.56 53.8801 97.6031 53.8913C97.6463 53.9026 97.6866 53.9229 97.7213 53.951C97.7559 53.9791 97.784 54.0143 97.8041 54.0541C97.8241 54.094 97.8356 54.1376 97.8374 54.1822C97.8392 54.2268 97.8315 54.2712 97.8148 54.3126C97.7981 54.354 97.773 54.3912 97.7407 54.422C60.7534 100.293 34.0954 165.387 34.3707 209.209C34.6523 250.68 57.5396 254.121 57.7717 254.153C57.8532 254.165 57.9271 254.207 57.9774 254.272C58.0277 254.337 58.0506 254.419 58.041 254.501C58.0276 254.56 57.9977 254.613 57.9552 254.656C57.9128 254.698 57.8593 254.728 57.8007 254.742Z" fill="#D0D0D0"/>
<path d="M36.2376 250.837C36.1963 250.858 36.1512 250.87 36.105 250.873C36.0047 250.852 26.3484 248.842 19.3965 238.307C11.6859 226.608 10.1731 209.443 14.8964 187.283C27.7277 127.098 79.9958 69.4415 97.294 53.9935C97.3242 53.9657 97.3597 53.9442 97.3983 53.9304C97.437 53.9165 97.4779 53.9105 97.5189 53.9128C97.5599 53.9151 97.6 53.9255 97.6369 53.9436C97.6738 53.9616 97.7068 53.9868 97.7338 54.0178C97.7883 54.0796 97.8161 54.1605 97.8116 54.2428C97.807 54.325 97.7705 54.4022 97.7095 54.4576C80.4505 69.8749 28.3086 127.396 15.5077 187.417C10.8225 209.391 12.3055 226.395 19.909 237.947C26.7333 248.258 36.1307 250.236 36.2246 250.258C36.306 250.274 36.3777 250.322 36.4241 250.391C36.4704 250.46 36.4877 250.544 36.472 250.625C36.4558 250.679 36.4254 250.726 36.3842 250.764C36.3429 250.801 36.2922 250.826 36.2376 250.837Z" fill="#D0D0D0"/>
<path d="M13.9842 243.901C13.9219 243.92 13.8556 243.919 13.7939 243.898C13.7172 243.865 5.90083 240.84 0.0821101 231.756C-5.2724 223.393 -9.99928 208.051 -2.12799 182.305C15.5014 124.768 70.6267 73.1774 97.309 53.9487C97.3763 53.9014 97.4592 53.8819 97.5406 53.8941C97.622 53.9063 97.6958 53.9493 97.7463 54.0144C97.7705 54.0479 97.7876 54.0859 97.7971 54.1262C97.8066 54.1664 97.8082 54.2081 97.8016 54.2489C97.7949 54.2897 97.7802 54.3287 97.7583 54.3638C97.7365 54.3989 97.7079 54.4294 97.6743 54.4535C71.0484 73.64 16.0443 125.076 -1.53176 182.483C-9.33475 207.954 -4.68509 223.134 0.585042 231.384C6.28859 240.317 13.9277 243.287 14.0153 243.311C14.0922 243.342 14.1542 243.401 14.1883 243.476C14.2223 243.552 14.2261 243.637 14.1984 243.715C14.1803 243.761 14.1513 243.802 14.114 243.835C14.0768 243.867 14.0322 243.89 13.9842 243.901Z" fill="#D0D0D0"/>
<path d="M-7.73419 233.329C-7.77401 233.339 -7.81565 233.342 -7.85657 233.337C-7.89748 233.332 -7.93705 233.318 -7.97281 233.298C-8.03857 233.254 -14.6503 229.318 -19.1356 220.208C-23.2548 211.833 -26.3918 197.195 -17.8596 175.179C-1.68647 133.402 40.295 89.2198 97.3295 53.9499C97.364 53.9216 97.4041 53.9009 97.4471 53.8893C97.4902 53.8776 97.5355 53.8753 97.5795 53.8825C97.6235 53.8896 97.6653 53.9061 97.7025 53.9308C97.7397 53.9554 97.7713 53.9877 97.795 54.0255C97.8187 54.0633 97.8342 54.1057 97.8402 54.1499C97.8462 54.1941 97.8427 54.2391 97.8299 54.2818C97.8172 54.3246 97.7954 54.3642 97.7662 54.3979C97.737 54.4317 97.7011 54.4587 97.6606 54.4774C40.7548 89.6722 -1.149 133.766 -17.2785 175.402C-33.408 217.038 -7.91754 232.619 -7.65327 232.772C-7.6014 232.804 -7.56002 232.85 -7.53397 232.905C-7.50791 232.96 -7.49821 233.022 -7.50643 233.082C-7.51466 233.142 -7.54026 233.199 -7.5801 233.245C-7.61993 233.291 -7.67229 233.324 -7.7308 233.341L-7.73419 233.329Z" fill="#D0D0D0"/>
<path d="M-26.9759 219.066C-27.0254 219.081 -27.078 219.082 -27.1284 219.071C-27.1789 219.06 -27.2256 219.035 -27.264 219.001C-27.4588 218.829 -46.5495 201.567 -30.6727 166.289C-16.7098 135.261 24.2595 89.4474 97.3563 53.9226C97.3926 53.9039 97.4323 53.8928 97.473 53.8897C97.5138 53.8866 97.5546 53.8918 97.5934 53.9047C97.6322 53.9177 97.6681 53.9381 97.6988 53.9651C97.7296 53.992 97.7547 54.0249 97.7726 54.0616C97.8085 54.1364 97.8133 54.2223 97.7861 54.3006C97.7589 54.3789 97.7017 54.4433 97.6272 54.4797C24.6815 89.9369 -16.1802 135.62 -30.0968 166.568C-45.7687 201.399 -27.0444 218.38 -26.8496 218.551C-26.8184 218.578 -26.7928 218.61 -26.7744 218.647C-26.756 218.683 -26.745 218.723 -26.7423 218.764C-26.7395 218.805 -26.7452 218.846 -26.7585 218.885C-26.7718 218.924 -26.7926 218.959 -26.82 218.99C-26.8641 219.029 -26.9181 219.055 -26.9759 219.066Z" fill="#D0D0D0"/>
<path d="M-43.3901 199.59C-43.456 199.607 -43.5258 199.603 -43.5889 199.577C-43.652 199.551 -43.705 199.505 -43.7398 199.447C-47.0735 193.725 -55.8929 172.431 -29.43 138.615C1.54788 99.0404 58.2456 68.2483 97.3863 53.908C97.4639 53.8814 97.5488 53.8856 97.6234 53.9197C97.6981 53.9539 97.7568 54.0154 97.7875 54.0916C97.8016 54.1305 97.8081 54.1718 97.8062 54.2132C97.8043 54.2546 97.794 54.2951 97.7763 54.3326C97.7587 54.37 97.734 54.4036 97.7033 54.4314C97.6727 54.4592 97.6366 54.4807 97.5976 54.4945C58.5391 68.8129 1.96383 99.5315 -28.9333 139.004C-55.1557 172.504 -46.4839 193.499 -43.2009 199.133C-43.1802 199.168 -43.1667 199.207 -43.1611 199.247C-43.1555 199.287 -43.158 199.328 -43.1682 199.367C-43.1785 199.406 -43.1962 199.443 -43.2208 199.476C-43.2453 199.508 -43.2761 199.535 -43.3111 199.555C-43.3347 199.572 -43.3617 199.584 -43.3901 199.59Z" fill="#D0D0D0"/>
<path d="M-53.2234 178.1C-53.2995 178.121 -53.3804 178.112 -53.4504 178.076C-53.5204 178.039 -53.5743 177.978 -53.601 177.904C-53.6602 177.682 -60.7675 155.679 -35.1454 127.391C-7.6517 97.0434 41.9 69.5676 97.4035 53.8965C97.4431 53.8831 97.4848 53.878 97.5264 53.8817C97.5681 53.8854 97.6083 53.8977 97.6449 53.9178C97.6815 53.938 97.7135 53.9655 97.7389 53.9987C97.7643 54.0318 97.7825 54.07 97.7924 54.1106C97.8136 54.1899 97.8029 54.2744 97.7626 54.346C97.7223 54.4176 97.6558 54.4704 97.577 54.4933C42.1998 70.1305 -7.26736 97.543 -34.6816 127.808C-60.0437 155.803 -53.0827 177.487 -53.0046 177.703C-52.9798 177.782 -52.987 177.867 -53.0244 177.94C-53.0617 178.013 -53.1263 178.069 -53.2042 178.095L-53.2234 178.1Z" fill="#D0D0D0"/>
<path d="M-56.8298 153.398L-56.9183 153.422C-57.0012 153.418 -57.0789 153.381 -57.1355 153.321C-57.1922 153.26 -57.2231 153.18 -57.2219 153.097C-57.0053 146.857 -53.7637 124.674 -20.9539 101.258C9.58651 79.4515 49.4189 63.5242 97.4339 53.9086C97.4744 53.9004 97.5159 53.9003 97.5564 53.9082C97.597 53.9161 97.6356 53.9319 97.67 53.9548C97.7045 53.9777 97.734 54.0071 97.757 54.0414C97.7801 54.0757 97.7962 54.1142 97.8043 54.1547C97.8174 54.2356 97.799 54.3184 97.7529 54.3862C97.7069 54.4539 97.6368 54.5014 97.5568 54.519C49.6319 64.1172 9.88662 80.0414 -20.592 101.75C-53.1729 125.01 -56.3869 146.942 -56.5969 153.106C-56.5992 153.173 -56.6231 153.238 -56.665 153.29C-56.707 153.343 -56.7648 153.381 -56.8298 153.398Z" fill="#D0D0D0"/>
<path d="M-53.4389 128.616C-53.4949 128.627 -53.5529 128.627 -53.6086 128.614C-53.6866 128.587 -53.7517 128.533 -53.7912 128.46C-53.8306 128.388 -53.8413 128.304 -53.8212 128.224C-52.3901 123.46 -43.0592 98.69 0.784498 78.8374C48.2092 57.3686 96.9959 53.9175 97.4697 53.8921C97.5103 53.8892 97.5512 53.8944 97.5898 53.9073C97.6284 53.9202 97.6641 53.9405 97.6948 53.9672C97.7255 53.9939 97.7505 54.0263 97.7686 54.0627C97.7868 54.0991 97.7976 54.1387 97.8005 54.1793C97.8034 54.2199 97.7983 54.2606 97.7854 54.2992C97.7725 54.3378 97.7523 54.3735 97.7256 54.4042C97.6989 54.4349 97.6665 54.46 97.6301 54.4782C97.5937 54.4964 97.5542 54.5072 97.5137 54.5101C97.0289 54.5451 48.3547 57.9863 1.04028 79.4121C-42.5564 99.1511 -51.8092 123.683 -53.2188 128.401C-53.234 128.452 -53.2621 128.499 -53.3006 128.537C-53.3392 128.575 -53.3869 128.602 -53.4389 128.616Z" fill="#D0D0D0"/>
<path d="M-44.1505 105.252C-44.1887 105.263 -44.2289 105.267 -44.2685 105.262C-44.308 105.258 -44.3462 105.245 -44.381 105.226C-44.452 105.183 -44.5037 105.115 -44.5252 105.034C-44.5466 104.954 -44.5362 104.869 -44.4961 104.796C-39.9877 96.8649 -11.9624 57.1331 97.4889 53.887C97.5713 53.8843 97.6515 53.9142 97.7121 53.9702C97.7727 54.0262 97.8088 54.1038 97.8127 54.1863C97.8142 54.2278 97.8076 54.2691 97.7931 54.308C97.7785 54.3469 97.7563 54.3825 97.7279 54.4128C97.6995 54.4431 97.6654 54.4674 97.6275 54.4844C97.5896 54.5014 97.5487 54.5108 97.5073 54.5118C-11.6063 57.7554 -39.4692 97.2339 -43.9452 105.109C-43.9665 105.147 -43.9959 105.18 -44.0315 105.204C-44.0671 105.229 -44.1077 105.245 -44.1505 105.252Z" fill="#D0D0D0"/>
<path d="M97.5973 54.4944C97.5655 54.5094 97.5312 54.5186 97.4962 54.5215C47.1333 50.2969 15.1636 58.4568 -2.77963 66.0408C-22.2362 74.2671 -29.8504 83.5929 -29.9266 83.6877C-29.9499 83.7257 -29.981 83.7583 -30.018 83.7832C-30.0549 83.8082 -30.097 83.825 -30.1409 83.8325C-30.1849 83.8401 -30.2299 83.8381 -30.273 83.8269C-30.3162 83.8156 -30.3565 83.7952 -30.3911 83.7672C-30.4258 83.7391 -30.4539 83.7039 -30.474 83.6641C-30.494 83.6242 -30.5055 83.5805 -30.5073 83.536C-30.5091 83.4914 -30.5014 83.4469 -30.4847 83.4055C-30.468 83.3642 -30.4426 83.3268 -30.4103 83.296C-30.3342 83.2011 -22.6411 73.7663 -3.08228 65.4922C14.9363 57.861 47.0181 49.6642 97.5461 53.8987C97.6293 53.9069 97.7059 53.9474 97.7598 54.0114C97.8136 54.0754 97.8404 54.1579 97.8342 54.2413C97.824 54.3021 97.7959 54.3585 97.7538 54.4035C97.7117 54.4485 97.6573 54.4801 97.5973 54.4944Z" fill="#D0D0D0"/>
<path d="M97.5976 54.4943C97.5518 54.5082 97.503 54.5095 97.4565 54.4982C55.0586 46.3248 27.0866 49.8522 11.0773 54.2706C-6.26006 59.038 -13.6665 65.8298 -13.7368 65.896C-13.767 65.9242 -13.8024 65.9461 -13.8411 65.9605C-13.8798 65.975 -13.9209 65.9816 -13.9621 65.9801C-14.0034 65.9785 -14.0439 65.9689 -14.0815 65.9516C-14.119 65.9344 -14.153 65.9099 -14.1811 65.8796C-14.209 65.8498 -14.2305 65.8148 -14.2447 65.7765C-14.259 65.7382 -14.2656 65.6975 -14.2639 65.6568C-14.2623 65.616 -14.2523 65.5759 -14.235 65.5389C-14.2177 65.502 -14.1932 65.4688 -14.163 65.4414C-14.0944 65.3689 -6.60703 58.5012 10.8515 53.681C26.9119 49.2761 55.0224 45.6845 97.5509 53.8907C97.6201 53.9046 97.6826 53.9415 97.7283 53.9954C97.774 54.0492 97.8001 54.1169 97.8026 54.1875C97.8051 54.258 97.7838 54.3274 97.742 54.3843C97.7002 54.4412 97.6404 54.4823 97.5723 54.5011L97.5976 54.4943Z" fill="#D0D0D0"/>
<path d="M97.5974 54.4943C97.537 54.5116 97.4728 54.5099 97.4134 54.4895C30.6255 31.7602 2.95556 51.6732 2.67995 51.8825C2.61316 51.9315 2.52967 51.9521 2.44776 51.9398C2.36585 51.9275 2.29209 51.8833 2.24261 51.8169C2.19363 51.7501 2.17307 51.6666 2.18535 51.5847C2.19763 51.5027 2.24178 51.429 2.30819 51.3795C2.38398 51.3592 9.35416 46.1739 24.5488 43.9442C38.5235 41.8856 62.5497 41.9478 97.6142 53.9008C97.6759 53.924 97.729 53.966 97.7654 54.0209C97.8018 54.0759 97.8201 54.1409 97.8175 54.2067C97.8149 54.2726 97.7916 54.336 97.751 54.3879C97.7104 54.4399 97.6546 54.4776 97.5912 54.496L97.5974 54.4943Z" fill="#D0D0D0"/>
<path d="M97.5975 54.4945C97.5231 54.5142 97.4443 54.5065 97.3752 54.4728C42.32 25.6883 20.2034 39.8274 19.9922 39.9991C19.9225 40.044 19.8383 40.06 19.7569 40.0439C19.6756 40.0278 19.6036 39.9808 19.5562 39.9128C19.5332 39.8785 19.5172 39.8401 19.509 39.7996C19.5009 39.7591 19.5009 39.7174 19.5089 39.6769C19.5169 39.6364 19.5329 39.5978 19.5558 39.5635C19.5788 39.5291 19.608 39.4997 19.6423 39.4767C19.8666 39.3286 25.3241 35.747 37.7232 35.7153C49.1152 35.6894 68.7604 38.8281 97.6657 53.9413C97.7015 53.9619 97.7329 53.9894 97.7581 54.0222C97.7833 54.0549 97.8017 54.0924 97.8124 54.1323C97.8231 54.1722 97.8258 54.2137 97.8204 54.2547C97.815 54.2956 97.8015 54.3352 97.7808 54.3709C97.7371 54.4335 97.6718 54.4775 97.5975 54.4945Z" fill="#D0D0D0"/>
<path d="M97.5975 54.4945C97.5511 54.5083 97.5019 54.5104 97.4544 54.5007C97.407 54.491 97.3627 54.4697 97.3254 54.4387C56.199 21.5292 39.0311 29.3794 38.8678 29.4773C38.794 29.5131 38.7091 29.5187 38.6313 29.4927C38.5535 29.4667 38.4889 29.4113 38.4514 29.3383C38.4152 29.2638 38.4091 29.1782 38.4347 29.0994C38.4603 29.0206 38.5156 28.9547 38.5887 28.9156C39.2887 28.5723 56.2064 20.7486 97.7187 53.961C97.7506 53.9871 97.7768 54.0193 97.7962 54.0556C97.8157 54.092 97.8279 54.1318 97.832 54.1729C97.836 54.2139 97.8323 54.2553 97.8203 54.2947C97.8084 54.3342 97.7885 54.371 97.7624 54.4029C97.7184 54.45 97.6608 54.482 97.5975 54.4945Z" fill="#D0D0D0"/>
<path d="M97.5974 54.4946C97.5382 54.5103 97.4758 54.5084 97.4178 54.4891C97.3597 54.4698 97.3084 54.4339 97.2704 54.3858C69.2053 17.55 57.9687 20.9603 57.8647 21.0017C57.786 21.0285 57.7 21.0238 57.6248 20.9883C57.5496 20.9529 57.4912 20.8896 57.4618 20.8118C57.4479 20.7737 57.4417 20.7333 57.4435 20.6928C57.4453 20.6522 57.4551 20.6125 57.4723 20.5758C57.4895 20.5391 57.5138 20.5061 57.5438 20.4788C57.5738 20.4516 57.609 20.4305 57.6472 20.4168C58.117 20.2503 69.3171 16.6534 97.7826 53.9981C97.808 54.0308 97.8264 54.0683 97.8373 54.1083C97.8481 54.1483 97.8511 54.19 97.8457 54.2311C97.8404 54.2722 97.827 54.3118 97.8062 54.3477C97.7855 54.3836 97.7578 54.415 97.7249 54.4401C97.6862 54.4661 97.6429 54.4846 97.5974 54.4946Z" fill="#D0D0D0"/>
<path d="M97.5975 54.4944C97.524 54.5145 97.4457 54.5067 97.3777 54.4724C97.3097 54.4381 97.2568 54.3797 97.2294 54.3086C81.882 15.6495 77.9622 14.1067 77.6526 14.088C77.5845 14.0994 77.5146 14.0888 77.4529 14.0579C77.3911 14.027 77.3406 13.9774 77.3088 13.9161C77.2728 13.8414 77.2681 13.7554 77.2953 13.6771C77.3225 13.5987 77.3797 13.5343 77.4542 13.4979C77.5279 13.4695 77.6064 13.4566 77.6853 13.4599C77.7642 13.4632 77.8418 13.4827 77.9128 13.5172C79.249 14.0326 83.8612 19.0192 97.7856 54.0851C97.8158 54.1623 97.8145 54.2482 97.7816 54.3242C97.7487 54.4003 97.687 54.4602 97.6101 54.491L97.5975 54.4944Z" fill="#D0D0D0"/>
<path d="M171.422 240.736C171.339 240.759 171.249 240.747 171.174 240.704C171.099 240.66 171.044 240.589 171.022 240.505C171 240.421 171.011 240.332 171.055 240.257C171.098 240.182 171.169 240.127 171.253 240.105C171.824 239.802 172.264 239.298 172.486 238.691C174.254 235.184 175.416 224.364 163.689 191.16C149.221 150.174 132.68 118.077 124.731 102.657C123.644 100.545 122.738 98.783 122.039 97.386C114.148 81.6794 97.3836 54.6058 97.2157 54.3326C97.1767 54.2683 97.1622 54.1921 97.1747 54.118C97.1871 54.0438 97.2254 53.9767 97.2832 53.9286C97.341 53.8799 97.4148 53.8542 97.4903 53.8565C97.5659 53.8587 97.6379 53.8887 97.6927 53.9407C127.582 81.0117 169.744 135.899 188.482 180.895C205.11 220.748 195.914 229.929 192.697 231.793C192.627 231.823 192.547 231.827 192.474 231.803C192.401 231.779 192.34 231.729 192.301 231.662C192.262 231.596 192.249 231.518 192.265 231.442C192.28 231.367 192.322 231.3 192.384 231.254C194.595 229.984 204.76 221.539 187.904 181.138C169.51 137.046 128.643 83.4291 98.9251 55.9126C102.892 62.379 115.916 83.8057 122.595 97.1085C123.292 98.4992 124.204 100.259 125.289 102.365C133.252 117.836 149.791 149.926 164.282 190.947C176.164 224.604 174.838 235.549 172.988 239.078C172.281 240.479 171.533 240.72 171.422 240.736Z" fill="#D0D0D0"/>
<path d="M212.154 221.42C212.085 221.438 212.011 221.433 211.945 221.403C211.879 221.374 211.825 221.323 211.793 221.259C211.757 221.185 211.751 221.099 211.776 221.02C211.802 220.941 211.857 220.876 211.93 220.837C212.116 220.746 230.114 210.893 209.919 169.653C190.403 129.809 144.107 82.4338 97.327 54.4449C97.2869 54.4268 97.2509 54.4004 97.2217 54.3675C97.1925 54.3346 97.1705 54.2959 97.1572 54.254C97.1439 54.212 97.1396 54.1677 97.1445 54.124C97.1494 54.0802 97.1634 54.038 97.1857 54C97.208 53.9621 97.2381 53.9292 97.2739 53.9036C97.3097 53.878 97.3503 53.8603 97.3934 53.8515C97.4366 53.8427 97.4813 53.8429 97.5243 53.8524C97.5672 53.862 97.6075 53.8805 97.6429 53.9067C144.524 81.97 190.918 129.434 210.488 169.378C221.172 191.189 221.109 204.138 219.173 211.163C217.057 218.853 212.412 221.296 212.228 221.393L212.154 221.42Z" fill="#D0D0D0"/>
<path d="M232.148 208.025C232.088 208.043 232.024 208.041 231.965 208.02C231.907 208 231.856 207.961 231.82 207.91C231.794 207.878 231.776 207.841 231.765 207.802C231.755 207.762 231.752 207.721 231.758 207.68C231.763 207.639 231.777 207.6 231.797 207.565C231.818 207.53 231.846 207.499 231.879 207.475C232.063 207.33 250.183 192.901 229.673 156.851C207.994 118.765 152.367 75.7183 97.393 54.4884C97.3162 54.4577 97.2542 54.3984 97.2201 54.3229C97.186 54.2475 97.1822 54.1618 97.2099 54.0838C97.2405 54.0066 97.3005 53.9447 97.3766 53.9116C97.4527 53.8785 97.5388 53.877 97.6161 53.9073C152.728 75.1745 208.47 118.319 230.213 156.544C251.014 193.098 232.446 207.824 232.255 207.97C232.225 207.997 232.188 208.016 232.148 208.025Z" fill="#D0D0D0"/>
<path d="M248.857 193.866C248.789 193.887 248.715 193.885 248.649 193.858C248.582 193.83 248.527 193.781 248.493 193.718C248.46 193.654 248.449 193.581 248.463 193.511C248.478 193.441 248.516 193.378 248.572 193.333C248.643 193.267 255.824 186.847 256.546 174.513C257.362 160.705 250.138 145.24 235.093 128.552C194.003 82.9715 120.08 59.229 97.4311 54.505C97.3867 54.5014 97.3437 54.4884 97.3048 54.4668C97.2659 54.4452 97.2318 54.4156 97.2052 54.3799C97.1786 54.3443 97.1598 54.3033 97.1502 54.2599C97.1406 54.2164 97.1404 54.1714 97.1495 54.1278C97.1586 54.0842 97.1769 54.0432 97.2031 54.0072C97.2294 53.9713 97.2632 53.9412 97.3018 53.9192C97.3405 53.8972 97.3834 53.8837 97.4277 53.8796C97.4721 53.8755 97.5168 53.8808 97.5589 53.8953C120.269 58.6436 194.353 82.4309 235.556 128.13C250.726 144.96 257.999 160.582 257.171 174.569C256.424 187.166 249.06 193.737 248.983 193.805C248.946 193.834 248.903 193.855 248.857 193.866Z" fill="#D0D0D0"/>
<path d="M264.662 176.733C264.614 176.746 264.564 176.748 264.516 176.739C264.468 176.73 264.422 176.709 264.383 176.679C264.32 176.625 264.281 176.549 264.272 176.467C264.264 176.384 264.288 176.302 264.339 176.237C264.391 176.176 269.534 169.78 270.007 159.193C270.446 149.413 266.883 133.942 247.39 115.785C203.468 74.8699 130.117 57.8331 97.4599 54.5111C97.4188 54.5071 97.3788 54.495 97.3423 54.4755C97.3059 54.456 97.2736 54.4295 97.2474 54.3975C97.2212 54.3655 97.2018 54.3286 97.1899 54.289C97.178 54.2494 97.1738 54.208 97.178 54.1668C97.1892 54.0853 97.2316 54.0111 97.296 53.9598C97.3604 53.9085 97.4419 53.884 97.5239 53.8913C130.227 57.2078 203.776 74.3 247.817 115.332C267.5 133.668 271.09 149.342 270.628 159.263C270.131 170.04 264.875 176.567 264.825 176.635C264.783 176.684 264.725 176.719 264.662 176.733Z" fill="#D0D0D0"/>
<path d="M278.19 156.715C278.15 156.726 278.109 156.729 278.068 156.724C278.027 156.718 277.988 156.705 277.952 156.684C277.916 156.664 277.885 156.637 277.86 156.605C277.835 156.573 277.817 156.536 277.806 156.497C277.796 156.457 277.793 156.416 277.799 156.376C277.804 156.335 277.818 156.296 277.839 156.261C277.874 156.191 281.545 149.608 280.876 139.658C280.253 130.461 275.688 116.429 257.483 101.766C222.693 73.7605 164.378 56.5338 97.4803 54.5122C97.4358 54.5162 97.3912 54.5107 97.3491 54.4962C97.3069 54.4816 97.2682 54.4582 97.2358 54.4276C97.2034 54.3969 97.1781 54.3596 97.1613 54.3183C97.1444 54.277 97.1363 54.2326 97.1379 54.188C97.1395 54.1434 97.1508 54.0997 97.1706 54.0597C97.1905 54.0198 97.2188 53.9845 97.2533 53.9563C97.2879 53.9281 97.328 53.9076 97.3711 53.8962C97.4142 53.8847 97.4592 53.8825 97.5032 53.8898C164.532 55.9172 222.986 73.1878 257.874 101.282C276.275 116.096 280.88 130.326 281.494 139.641C282.178 149.77 278.413 156.486 278.372 156.558C278.353 156.595 278.328 156.628 278.297 156.655C278.266 156.682 278.229 156.703 278.19 156.715Z" fill="#D0D0D0"/>
<path d="M287.716 134.744C287.657 134.758 287.596 134.756 287.538 134.738C287.499 134.725 287.463 134.704 287.433 134.677C287.402 134.651 287.376 134.618 287.358 134.581C287.34 134.544 287.33 134.504 287.327 134.463C287.325 134.422 287.331 134.381 287.344 134.343C287.421 134.099 295.159 110.027 264.165 87.7002C236.644 67.876 178.415 48.744 97.5087 54.491C97.426 54.4968 97.3442 54.4696 97.2815 54.4153C97.2188 54.3611 97.1802 54.2843 97.174 54.2016C97.1711 54.1608 97.1762 54.1199 97.1893 54.0812C97.2025 54.0425 97.2233 54.0068 97.2504 53.9762C97.2775 53.9456 97.3103 53.9208 97.3472 53.9031C97.384 53.8854 97.4239 53.8752 97.4647 53.8731C178.531 48.0901 236.92 67.2876 264.524 87.1707C295.913 109.784 288.011 134.279 287.928 134.525C287.915 134.577 287.889 134.625 287.852 134.663C287.815 134.702 287.768 134.73 287.716 134.744Z" fill="#D0D0D0"/>
<path d="M292.194 109.671C292.17 109.683 292.144 109.69 292.118 109.691C292.077 109.692 292.036 109.684 291.998 109.669C291.96 109.654 291.926 109.631 291.896 109.602C291.867 109.574 291.844 109.539 291.828 109.501C291.813 109.464 291.805 109.423 291.805 109.382C291.831 102.861 288.85 80.3415 249.384 64.4423C202.89 45.707 138.55 47.4213 97.5503 54.5207C97.508 54.5285 97.4647 54.5278 97.4226 54.5188C97.3805 54.5098 97.3403 54.4926 97.3049 54.4681C97.2694 54.4437 97.2392 54.4125 97.2158 54.3763C97.1924 54.3402 97.1762 54.2997 97.1684 54.2574C97.1606 54.215 97.1612 54.1716 97.1702 54.1295C97.1792 54.0873 97.1965 54.0473 97.221 54.0119C97.2454 53.9764 97.2766 53.9461 97.3127 53.9227C97.3489 53.8992 97.3893 53.8832 97.4316 53.8754C138.499 46.7242 202.996 45.042 249.611 63.8261C289.443 79.8778 292.446 102.731 292.42 109.353C292.425 109.424 292.405 109.494 292.363 109.552C292.322 109.61 292.262 109.652 292.194 109.671Z" fill="#D0D0D0"/>
<path d="M289.971 86.1416C289.89 86.1579 289.806 86.142 289.737 86.0971C289.668 86.0523 289.62 85.9821 289.602 85.9018C289.543 85.6807 284.742 63.4182 248.78 51.8546C209.906 39.3515 153.385 40.3383 97.5831 54.4915C97.4994 54.5139 97.4102 54.5021 97.3351 54.4587C97.26 54.4154 97.2052 54.344 97.1827 54.2602C97.1603 54.1764 97.172 54.0872 97.2154 54.0121C97.2587 53.937 97.3301 53.8822 97.4139 53.8597C153.323 39.6778 209.974 38.6967 248.952 51.233C285.292 62.9187 290.159 85.5562 290.197 85.7491C290.209 85.7897 290.212 85.8323 290.207 85.8744C290.202 85.9164 290.189 85.957 290.168 85.9936C290.146 86.0303 290.118 86.0623 290.084 86.0878C290.05 86.1132 290.012 86.1315 289.971 86.1416Z" fill="#D0D0D0"/>
<path d="M280.737 62.9474C280.673 62.9644 280.604 62.9601 280.543 62.9351C280.481 62.9101 280.429 62.8658 280.395 62.8088C277.128 57.5903 263.376 40.1909 223.536 36.3357C186.269 32.7324 143.901 38.8442 97.5947 54.5086C97.5166 54.5319 97.4326 54.5251 97.3592 54.4897C97.2859 54.4542 97.2283 54.3926 97.1979 54.317C97.1847 54.2778 97.1794 54.2365 97.1822 54.1952C97.185 54.154 97.1958 54.1137 97.2142 54.0767C97.2326 54.0397 97.2582 54.0067 97.2893 53.9796C97.3205 53.9525 97.3568 53.9317 97.3959 53.9186C143.792 38.2368 186.252 32.141 223.597 35.7303C263.727 39.6092 277.625 57.1933 280.926 62.4905C280.948 62.5256 280.963 62.5645 280.969 62.6053C280.976 62.646 280.975 62.6877 280.966 62.728C280.956 62.7682 280.939 62.8063 280.915 62.8398C280.891 62.8734 280.86 62.9019 280.825 62.9237L280.737 62.9474Z" fill="#D0D0D0"/>
<path d="M265.415 43.179C265.363 43.1923 265.308 43.1924 265.256 43.1791C265.204 43.1658 265.157 43.1397 265.117 43.103C261.538 39.7221 241.249 23.0922 193.627 27.8087C141.94 32.917 98.0645 54.2677 97.6272 54.4797C97.5908 54.4983 97.5512 54.5095 97.5104 54.5126C97.4697 54.5157 97.4288 54.5106 97.3901 54.4976C97.3513 54.4847 97.3154 54.4641 97.2846 54.4372C97.2539 54.4103 97.2291 54.3774 97.2112 54.3407C97.1753 54.2659 97.1702 54.18 97.1974 54.1017C97.2246 54.0234 97.2818 53.9589 97.3563 53.9226C97.7919 53.7043 141.762 32.3013 193.561 27.1833C241.468 22.4715 261.929 39.2381 265.55 42.6484C265.58 42.6769 265.604 42.7109 265.621 42.7487C265.638 42.7864 265.647 42.827 265.648 42.8683C265.649 42.9095 265.642 42.9505 265.627 42.989C265.612 43.0275 265.589 43.0627 265.561 43.0925C265.522 43.1351 265.471 43.1651 265.415 43.179Z" fill="#D0D0D0"/>
<path d="M245.683 27.5915C245.643 27.6039 245.602 27.6074 245.561 27.6021C245.519 27.5968 245.48 27.5826 245.445 27.5606C237.624 22.98 193.761 2.72045 97.6445 54.4682C97.5725 54.4985 97.4919 54.5009 97.4183 54.475C97.3446 54.449 97.2833 54.3965 97.2463 54.3277C97.2092 54.259 97.199 54.179 97.2178 54.1032C97.2367 54.0274 97.2831 53.9614 97.348 53.918C193.775 2.01276 237.897 22.4059 245.765 27.0143C245.836 27.0571 245.888 27.1257 245.909 27.2058C245.931 27.2859 245.92 27.3712 245.88 27.4438C245.86 27.481 245.831 27.5134 245.797 27.5389C245.763 27.5643 245.724 27.5822 245.683 27.5915Z" fill="#D0D0D0"/>
<path d="M97.5974 54.4944C97.5358 54.5111 97.4705 54.5085 97.4104 54.4872C97.3502 54.4658 97.2979 54.4265 97.2606 54.3747C97.2136 54.3056 97.1956 54.2207 97.2102 54.1384C97.2248 54.056 97.2709 53.9827 97.3388 53.934C138.999 24.9977 170.87 16.0651 190.291 13.6646C211.374 11.0554 222.76 15.378 222.872 15.4158C222.91 15.4303 222.946 15.4523 222.976 15.4806C223.006 15.5088 223.03 15.5426 223.047 15.5802C223.064 15.6178 223.073 15.6583 223.075 15.6995C223.076 15.7407 223.069 15.7819 223.055 15.8204C223.04 15.859 223.018 15.8943 222.99 15.9244C222.962 15.9545 222.928 15.9787 222.89 15.9956C222.853 16.0126 222.812 16.022 222.771 16.0234C222.73 16.0247 222.689 16.0179 222.65 16.0033C222.537 15.9592 211.253 11.6904 190.309 14.2894C170.97 16.6885 139.19 25.61 97.6935 54.4483C97.6649 54.4699 97.6322 54.4856 97.5974 54.4944Z" fill="#D0D0D0"/>
<path d="M97.5973 54.4943C97.5407 54.5101 97.4808 54.5093 97.4245 54.492C97.3683 54.4746 97.3179 54.4415 97.28 54.3966C97.2273 54.3331 97.2012 54.2519 97.2069 54.1697C97.2126 54.0874 97.2498 54.0105 97.3107 53.955C130.055 25.5457 156.2 14.5928 172.29 10.4238C189.819 5.86889 199.737 8.07278 199.833 8.10132C199.873 8.10906 199.912 8.12503 199.946 8.14816C199.98 8.17128 200.009 8.20102 200.031 8.23574C200.053 8.27045 200.067 8.30938 200.074 8.34997C200.08 8.39056 200.078 8.43197 200.068 8.47176C200.059 8.51205 200.042 8.55012 200.018 8.58383C199.994 8.61753 199.963 8.64625 199.928 8.66821C199.894 8.69017 199.855 8.70495 199.814 8.71181C199.773 8.71866 199.732 8.71743 199.691 8.70813C199.597 8.68591 189.787 6.50719 172.395 11.0455C156.329 15.2014 130.327 26.1566 97.6962 54.434C97.668 54.4611 97.6343 54.4817 97.5973 54.4943Z" fill="#D0D0D0"/>
<path d="M97.5975 54.4945C97.5335 54.5103 97.4663 54.5055 97.4051 54.4808C97.344 54.4562 97.2921 54.4129 97.257 54.3571C97.2218 54.3014 97.2051 54.236 97.2092 54.1702C97.2133 54.1044 97.2379 54.0416 97.2797 53.9906C121.676 26.1051 142.453 14.0381 155.578 8.83521C169.845 3.17058 178.466 4.14453 178.557 4.15411C178.638 4.16527 178.712 4.20797 178.762 4.27298C178.813 4.33799 178.835 4.42009 178.826 4.50174C178.816 4.58402 178.774 4.65922 178.71 4.71082C178.645 4.76242 178.562 4.78629 178.48 4.77726C178.143 4.73214 144.209 1.29199 97.7419 54.4017C97.7036 54.4457 97.6535 54.4779 97.5975 54.4945Z" fill="#D0D0D0"/>
<path d="M97.5974 54.4944C97.5562 54.506 97.5129 54.5088 97.4704 54.5027C97.428 54.4966 97.3873 54.4816 97.3509 54.4588C97.3151 54.4382 97.2837 54.4108 97.2586 54.378C97.2334 54.3453 97.215 54.3078 97.2043 54.2679C97.1936 54.228 97.1908 54.1864 97.1962 54.1455C97.2017 54.1045 97.2151 54.065 97.2358 54.0293C114.712 26.4882 130.162 13.9456 140.035 8.27374C150.789 2.10164 157.31 2.46671 157.58 2.48916C157.625 2.48648 157.669 2.49333 157.711 2.50928C157.753 2.52522 157.79 2.54997 157.822 2.5817C157.853 2.61344 157.878 2.6515 157.893 2.69337C157.909 2.73525 157.915 2.77995 157.912 2.8245C157.909 2.86906 157.896 2.9124 157.875 2.9517C157.854 2.99099 157.825 3.02532 157.789 3.05237C157.753 3.07941 157.713 3.09855 157.669 3.10852C157.626 3.11849 157.581 3.119 157.537 3.11012C157.275 3.0923 131.015 1.96976 97.7518 54.3378C97.7214 54.4073 97.6664 54.463 97.5974 54.4944Z" fill="#D0D0D0"/>
<path d="M97.5973 54.4945C97.534 54.5119 97.4668 54.5086 97.4054 54.485C97.3283 54.4544 97.2663 54.3944 97.2332 54.3183C97.2001 54.2421 97.1985 54.1559 97.2288 54.0786C116.567 4.56147 135.124 2.87988 135.908 2.82549C135.99 2.82277 136.071 2.85216 136.133 2.90762C136.195 2.96309 136.232 3.04033 136.238 3.12299C136.242 3.20493 136.214 3.28515 136.159 3.34654C136.105 3.40794 136.029 3.44565 135.947 3.4515C135.762 3.4673 116.967 5.24647 97.8082 54.2958C97.7916 54.3434 97.7637 54.3863 97.727 54.4209C97.6903 54.4554 97.6459 54.4807 97.5973 54.4945Z" fill="#D0D0D0"/>
<path d="M97.5974 54.4945C97.5614 54.5106 97.5229 54.5209 97.4836 54.525C97.4014 54.5127 97.3272 54.4688 97.2767 54.4027C97.2261 54.3367 97.2033 54.2536 97.2129 54.171C103.182 7.60649 114.67 5.11051 115.181 5.02104C115.221 5.01357 115.263 5.01428 115.303 5.02318C115.343 5.03207 115.381 5.04889 115.415 5.07274C115.448 5.09659 115.476 5.12701 115.498 5.16205C115.52 5.19708 115.534 5.23607 115.54 5.27676C115.553 5.35711 115.534 5.43937 115.488 5.50615C115.441 5.57293 115.371 5.61902 115.291 5.6347C115.152 5.67193 103.727 8.35408 97.8565 54.249C97.8442 54.3118 97.8128 54.3692 97.7663 54.4132C97.7199 54.4572 97.6608 54.4857 97.5974 54.4945Z" fill="#D0D0D0"/>
<path d="M97.5976 54.4943L97.5662 54.5028C97.5255 54.5095 97.4838 54.5079 97.4436 54.4982C97.4035 54.4885 97.3657 54.4709 97.3326 54.4463C97.2994 54.4216 97.2715 54.3907 97.2506 54.3551C97.2297 54.3195 97.2162 54.28 97.2109 54.2391C91.7305 16.9106 93.2316 10.2859 94.1311 9.17148C94.1757 9.10632 94.2331 9.05092 94.2997 9.00862C94.3663 8.96633 94.4411 8.93797 94.519 8.9254C94.6017 8.91964 94.6831 8.94691 94.7459 9.00115C94.8086 9.05538 94.8474 9.13222 94.8537 9.21491C94.8579 9.28412 94.8393 9.35284 94.8011 9.41069C94.7629 9.46854 94.7071 9.5124 94.6419 9.53575C94.4168 9.73147 91.7949 13.0069 97.7982 54.1562C97.8071 54.2268 97.7922 54.2984 97.7559 54.3596C97.7196 54.4208 97.6638 54.4683 97.5976 54.4943Z" fill="#D0D0D0"/>
</g>
</mask>
<g mask="url(#mask0_21_73)">
<rect opacity="0.15" width="311" height="186" fill="#0A4158"/>
</g>
</g>
<defs>
<clipPath id="clip0_21_73">
<rect width="296" height="186" fill="white"/>
</clipPath>
<clipPath id="clip1_21_73">
<rect width="356" height="245" fill="white" transform="translate(-86 57.1396) rotate(-15)"/>
</clipPath>
</defs>
</svg>
