<svg width="159" height="159" viewBox="0 0 159 159" fill="none" xmlns="http://www.w3.org/2000/svg">
<g clip-path="url(#clip0_31_431)">
<path d="M103.116 3.39429L102.061 4.44977L154.54 56.9294L155.596 55.8739L103.116 3.39429Z" fill="#26AAE2"/>
<path d="M77.7911 0.00133516L76.7356 1.05681L157.945 82.2665L159.001 81.211L77.7911 0.00133516Z" fill="#26AAE2"/>
<path d="M58.7406 2.87794L57.6852 3.93332L155.065 101.313L156.12 100.257L58.7406 2.87794Z" fill="#26AAE2"/>
<path d="M43.0684 9.11991L42.0129 10.1754L148.824 116.986L149.879 115.931L43.0684 9.11991Z" fill="#26AAE2"/>
<path d="M89.2601 0.509438L88.2046 1.56491L157.444 70.804L158.499 69.7486L89.2601 0.509438Z" fill="#26AAE2"/>
<path d="M67.7531 0.929619L66.6976 1.98509L157.023 92.3107L158.079 91.2552L67.7531 0.929619Z" fill="#26AAE2"/>
<path d="M50.5507 5.64877L49.4952 6.70424L152.295 109.504L153.35 108.448L50.5507 5.64877Z" fill="#26AAE2"/>
<path d="M36.199 13.2167L35.1436 14.2722L144.723 123.851L145.778 122.796L36.199 13.2167Z" fill="#26AAE2"/>
<path d="M29.9111 17.8951L28.8557 18.9504L140.054 130.148L141.109 129.093L29.9111 17.8951Z" fill="#26AAE2"/>
<path d="M24.1627 23.1073L23.1072 24.1628L134.842 135.898L135.898 134.842L24.1627 23.1073Z" fill="#26AAE2"/>
<path d="M18.9474 28.8584L17.892 29.9138L129.09 141.112L130.145 140.056L18.9474 28.8584Z" fill="#26AAE2"/>
<path d="M14.2732 35.145L13.2178 36.2003L122.797 145.78L123.852 144.724L14.2732 35.145Z" fill="#26AAE2"/>
<path d="M10.1811 42.0115L9.12561 43.0669L115.937 149.878L116.992 148.822L10.1811 42.0115Z" fill="#26AAE2"/>
<path d="M6.70501 49.4963L5.64954 50.5517L108.449 153.351L109.504 152.296L6.70501 49.4963Z" fill="#26AAE2"/>
<path d="M3.93121 57.6834L2.87573 58.7389L100.255 156.118L101.311 155.063L3.93121 57.6834Z" fill="#26AAE2"/>
<path d="M1.98165 66.7L0.92627 67.7554L91.2519 158.081L92.3072 157.026L1.98165 66.7Z" fill="#26AAE2"/>
<path d="M1.05596 76.7351L0.000488281 77.7906L81.2101 159L82.2656 157.945L1.05596 76.7351Z" fill="#26AAE2"/>
<path d="M1.56121 88.2065L0.505737 89.262L69.7449 158.501L70.8003 157.446L1.56121 88.2065Z" fill="#26AAE2"/>
<path d="M4.45538 102.056L3.3999 103.112L55.8795 155.591L56.935 154.536L4.45538 102.056Z" fill="#26AAE2"/>
<path d="M123.991 13.3129L122.935 14.3684L144.634 36.0671L145.689 35.0116L123.991 13.3129Z" fill="#26AAE2"/>
<path d="M14.3658 122.938L13.3104 123.994L35.0092 145.692L36.0645 144.637L14.3658 122.938Z" fill="#26AAE2"/>
</g>
<defs>
<clipPath id="clip0_31_431">
<rect width="159" height="159" fill="white"/>
</clipPath>
</defs>
</svg>
