<svg width="177" height="177" viewBox="0 0 177 177" fill="none" xmlns="http://www.w3.org/2000/svg">
<g clip-path="url(#clip0_31_1032)">
<path d="M106.073 63.7889C105.804 63.7877 105.541 63.7068 105.317 63.5566C99.4177 59.5816 92.3012 57.8243 85.2295 58.5961C85.04 58.6432 84.8426 58.6491 84.6506 58.6135C84.4587 58.5779 84.2765 58.5015 84.1165 58.3896C83.9565 58.2777 83.8224 58.1327 83.7232 57.9646C83.6239 57.7964 83.5618 57.609 83.5411 57.4148C83.5204 57.2206 83.5416 57.0243 83.6032 56.839C83.6648 56.6537 83.7653 56.4838 83.8981 56.3406C84.0309 56.1975 84.1928 56.0844 84.373 56.0091C84.5532 55.9338 84.7474 55.898 84.9425 55.9041C86.1241 55.7766 87.3116 55.7127 88.5 55.7128C95.0339 55.7021 101.421 57.6522 106.834 61.311C107.067 61.4776 107.242 61.7133 107.334 61.9848C107.426 62.2563 107.43 62.5498 107.346 62.8238C107.262 63.0978 107.094 63.3384 106.865 63.5116C106.637 63.6848 106.36 63.7818 106.073 63.7889Z" fill="#F2F2F2"/>
<path d="M59.4251 77.8822C59.2484 77.8809 59.0736 77.8453 58.9104 77.7774C58.5811 77.6375 58.3198 77.374 58.1827 77.0436C58.0456 76.7131 58.0435 76.342 58.177 76.0101C59.8604 71.9463 62.3396 68.2603 65.4686 65.1688C68.5977 62.0773 72.3134 59.6428 76.3972 58.0086C76.5671 57.9137 76.7554 57.8562 76.9494 57.84C77.1433 57.8238 77.3385 57.8493 77.5219 57.9146C77.7052 57.9799 77.8725 58.0837 78.0125 58.2189C78.1525 58.3541 78.262 58.5177 78.3336 58.6987C78.4053 58.8796 78.4375 59.0738 78.428 59.2682C78.4186 59.4626 78.3677 59.6528 78.2788 59.8259C78.1899 59.9991 78.065 60.1513 77.9126 60.2723C77.7601 60.3932 77.5836 60.4802 77.3947 60.5275C73.6437 62.0245 70.2302 64.2571 67.3553 67.0936C64.4803 69.9302 62.2022 73.3135 60.6549 77.0441C60.5529 77.2877 60.3824 77.4965 60.1641 77.6453C59.9459 77.794 59.6892 77.8763 59.4251 77.8822Z" fill="#F2F2F2"/>
<path d="M88.5 121.283C80.4569 121.294 72.6909 118.345 66.6815 113C60.672 107.654 56.8392 100.284 55.9132 92.2943C55.9185 91.9628 56.0442 91.6444 56.2668 91.3987C56.4895 91.1529 56.7939 90.9965 57.1233 90.9586C57.4528 90.9207 57.7848 91.0038 58.0574 91.1926C58.3301 91.3814 58.5248 91.6629 58.6052 91.9846C59.1989 97.1138 61.1037 102.004 64.1359 106.183C67.1682 110.362 71.2257 113.69 75.9175 115.846C80.6094 118.001 85.7774 118.912 90.9235 118.491C96.0697 118.069 101.021 116.329 105.299 113.439C105.596 113.29 105.936 113.255 106.257 113.339C106.578 113.423 106.857 113.621 107.043 113.896C107.229 114.171 107.308 114.504 107.266 114.833C107.224 115.162 107.064 115.465 106.816 115.685C101.408 119.34 95.0277 121.29 88.5 121.283Z" fill="#F2F2F2"/>
<path d="M116.919 103.299C116.719 103.3 116.521 103.255 116.34 103.167C116.014 103.011 115.763 102.731 115.642 102.389C115.522 102.048 115.542 101.672 115.698 101.345C118.242 95.9607 119.131 89.9426 118.253 84.0527C117.374 78.1627 114.769 72.6657 110.765 68.2574C110.616 68.132 110.495 67.9761 110.411 67.8003C110.327 67.6244 110.282 67.4327 110.278 67.2379C110.275 67.0431 110.313 66.8497 110.39 66.6708C110.467 66.4919 110.581 66.3315 110.725 66.2004C110.87 66.0693 111.04 65.9706 111.226 65.9109C111.411 65.8511 111.607 65.8317 111.801 65.854C111.994 65.8762 112.181 65.9396 112.348 66.0399C112.515 66.1401 112.659 66.275 112.769 66.4354C117.135 71.2407 119.976 77.2336 120.933 83.655C121.89 90.0764 120.919 96.6374 118.144 102.507C118.036 102.741 117.863 102.94 117.646 103.08C117.429 103.221 117.177 103.297 116.919 103.299Z" fill="#F2F2F2"/>
<path d="M88.5 102.001C85.1198 102 81.8629 100.732 79.3725 98.4461C76.882 96.1607 75.3391 93.0244 75.0485 89.6568C74.7578 86.2891 75.7406 82.9348 77.8026 80.2565C79.8646 77.5781 82.8561 75.7703 86.1861 75.1901C86.5163 75.1792 86.8392 75.2882 87.0952 75.497C87.3512 75.7059 87.5229 76.0004 87.5784 76.326C87.634 76.6517 87.5697 76.9864 87.3975 77.2683C87.2252 77.5502 86.9567 77.7602 86.6416 77.8594C85.1231 78.1259 83.6793 78.7145 82.4074 79.5856C81.1354 80.4568 80.0648 81.5902 79.2676 82.9098C78.4703 84.2293 77.965 85.7043 77.7855 87.2354C77.606 88.7666 77.7565 90.3185 78.227 91.7867C78.6974 93.2548 79.4769 94.6052 80.5128 95.7469C81.5488 96.8885 82.8173 97.7951 84.233 98.4055C85.6487 99.016 87.1787 99.3161 88.7201 99.2857C90.2614 99.2554 91.7784 98.8952 93.169 98.2296C93.3317 98.123 93.5153 98.0525 93.7076 98.0226C93.8998 97.9927 94.0962 98.0043 94.2836 98.0564C94.471 98.1085 94.6451 98.2 94.7943 98.3249C94.9435 98.4497 95.0643 98.605 95.1487 98.7802C95.233 98.9555 95.279 99.1468 95.2835 99.3412C95.288 99.5357 95.251 99.7289 95.1748 99.9079C95.0986 100.087 94.9851 100.248 94.8419 100.379C94.6987 100.511 94.529 100.61 94.3442 100.671C92.521 101.548 90.5233 102.003 88.5 102.001Z" fill="#F2F2F2"/>
<path d="M100.097 93.5196C99.9582 93.5185 99.8201 93.497 99.6873 93.4559C99.3467 93.345 99.0633 93.1048 98.898 92.7871C98.7328 92.4693 98.6988 92.0993 98.8036 91.7568C99.3984 89.8718 99.4649 87.8597 98.9959 85.9394C98.5269 84.0192 97.5403 82.2643 96.1435 80.8657C95.9423 80.6029 95.8433 80.276 95.865 79.9457C95.8866 79.6155 96.0274 79.3043 96.2612 79.07C96.4949 78.8357 96.8057 78.6942 97.1359 78.6718C97.4661 78.6493 97.7933 78.7475 98.0566 78.948C99.8058 80.6964 101.041 82.8916 101.629 85.294C102.216 87.6965 102.132 90.2141 101.386 92.5722C101.298 92.8456 101.126 93.0842 100.895 93.2542C100.664 93.4243 100.384 93.5172 100.097 93.5196Z" fill="#F2F2F2"/>
<path d="M122.385 53.162C122.047 53.1587 121.723 53.0305 121.474 52.8021C116.614 48.3075 110.886 44.8549 104.642 42.6568C98.3974 40.4587 91.7695 39.5616 85.1657 40.0206C84.8365 39.9975 84.5268 39.8561 84.2937 39.6224C84.0607 39.3888 83.9201 39.0787 83.8979 38.7494C83.8757 38.4202 83.9733 38.094 84.1729 37.8312C84.3724 37.5683 84.6604 37.3866 84.9835 37.3195C91.9571 36.8349 98.9561 37.7818 105.55 40.1021C112.144 42.4223 118.194 46.0668 123.328 50.8115C123.588 51.0573 123.742 51.3954 123.755 51.7532C123.769 52.1109 123.642 52.4598 123.401 52.7246C123.273 52.8659 123.115 52.978 122.94 53.0535C122.765 53.1289 122.576 53.1659 122.385 53.162Z" fill="#F2F2F2"/>
<path d="M43.2365 68.7174C43.0101 68.7139 42.7881 68.6543 42.5905 68.5438C42.3929 68.4333 42.2259 68.2754 42.1044 68.0844C41.9829 67.8933 41.9108 67.6751 41.8945 67.4492C41.8783 67.2234 41.9183 66.9971 42.0112 66.7906C44.9178 60.6084 49.0222 55.0642 54.0864 50.4792C59.1507 45.8942 65.0743 42.3595 71.5142 40.0798C71.8399 40.0066 72.181 40.0552 72.4734 40.2163C72.7657 40.3774 72.9889 40.6399 73.101 40.9542C73.2131 41.2686 73.2062 41.6131 73.0817 41.9228C72.9573 42.2325 72.7237 42.4859 72.4252 42.6353C66.3261 44.7954 60.7159 48.1436 55.9191 52.486C51.1224 56.8285 47.2344 62.0791 44.48 67.9339C44.3689 68.1694 44.1929 68.3683 43.9726 68.5071C43.7523 68.6459 43.4969 68.7189 43.2365 68.7174Z" fill="#F2F2F2"/>
<path d="M52.4833 124.448C52.3011 124.449 52.1208 124.413 51.9532 124.342C51.7856 124.27 51.6343 124.166 51.5085 124.034C42.3104 114.496 37.1814 101.755 37.2057 88.5045C37.2057 87.1927 37.2558 85.8626 37.356 84.5599C37.3424 84.3642 37.3712 84.1679 37.4402 83.9844C37.5093 83.8008 37.6171 83.6342 37.7562 83.496C37.8954 83.3578 38.0627 83.2512 38.2467 83.1833C38.4308 83.1155 38.6272 83.0881 38.8228 83.103C39.0184 83.1179 39.2084 83.1746 39.3801 83.2695C39.5518 83.3643 39.701 83.495 39.8177 83.6527C39.9344 83.8104 40.0157 83.9913 40.0563 84.1832C40.0968 84.3751 40.0955 84.5735 40.0526 84.7649C39.9615 85.9993 39.9114 87.261 39.9114 88.5045C39.8858 101.058 44.7438 113.13 53.4581 122.166C53.6317 122.36 53.7463 122.6 53.7885 122.856C53.8308 123.113 53.7988 123.377 53.6964 123.616C53.594 123.855 53.4255 124.06 53.2106 124.207C52.9957 124.353 52.7433 124.436 52.4833 124.444V124.448Z" fill="#F2F2F2"/>
<path d="M88.5 139.794C81.2021 139.812 73.9859 138.258 67.3418 135.239C67.0647 135.062 66.8606 134.792 66.767 134.477C66.6734 134.161 66.6965 133.823 66.8322 133.524C66.9678 133.224 67.2068 132.984 67.5054 132.846C67.8039 132.709 68.1421 132.683 68.4578 132.775C76.9061 136.592 86.2695 137.915 95.4446 136.587C104.62 135.26 113.224 131.337 120.244 125.282C120.373 125.137 120.532 125.02 120.71 124.941C120.888 124.862 121.08 124.822 121.275 124.823C121.469 124.825 121.661 124.868 121.838 124.949C122.015 125.031 122.172 125.149 122.299 125.296C122.427 125.443 122.521 125.616 122.576 125.803C122.631 125.989 122.646 126.185 122.619 126.378C122.592 126.571 122.524 126.756 122.42 126.92C122.317 127.085 122.179 127.225 122.016 127.332C112.701 135.373 100.805 139.796 88.5 139.794Z" fill="#F2F2F2"/>
<path d="M131.709 114.91C131.471 114.91 131.237 114.847 131.03 114.728C130.723 114.545 130.5 114.249 130.409 113.903C130.318 113.557 130.366 113.189 130.543 112.879C134.832 105.468 137.091 97.0576 137.091 88.4955C137.091 79.9333 134.832 71.5227 130.543 64.1123C130.413 63.8063 130.4 63.4635 130.504 63.1481C130.609 62.8326 130.825 62.5662 131.112 62.3987C131.399 62.2312 131.738 62.174 132.064 62.2379C132.39 62.3018 132.682 62.4823 132.884 62.7458C137.415 70.5661 139.801 79.4439 139.801 88.4818C139.801 97.5197 137.415 106.397 132.884 114.218C132.766 114.426 132.596 114.6 132.389 114.721C132.183 114.843 131.949 114.908 131.709 114.91Z" fill="#F2F2F2"/>
<path d="M50.4061 104.502C50.1335 104.5 49.8676 104.417 49.6428 104.262C49.4179 104.108 49.2444 103.89 49.1444 103.636C46.4434 96.5968 45.6771 88.9622 46.9251 81.5261C48.1731 74.0901 51.3899 67.1241 56.2411 61.3519C56.3449 61.186 56.4832 61.0442 56.6466 60.9363C56.81 60.8284 56.9946 60.7569 57.188 60.7266C57.3814 60.6962 57.5791 60.7078 57.7676 60.7605C57.9562 60.8132 58.1312 60.9058 58.2808 61.0321C58.4305 61.1583 58.5513 61.3153 58.635 61.4922C58.7187 61.6692 58.7634 61.8621 58.7661 62.0578C58.7688 62.2536 58.7294 62.4477 58.6505 62.6269C58.5717 62.8061 58.4553 62.9662 58.3091 63.0965C53.7677 68.4999 50.7566 75.0211 49.5886 81.9822C48.4207 88.9433 49.1387 96.0902 51.6679 102.68C51.7934 103.015 51.7826 103.386 51.6378 103.713C51.493 104.04 51.2258 104.297 50.8935 104.429C50.7372 104.484 50.5717 104.509 50.4061 104.502Z" fill="#F2F2F2"/>
<path d="M88.5 130.657C81.8318 130.644 75.2612 129.055 69.3241 126.019C63.387 122.983 58.2517 118.587 54.3371 113.188C54.2026 113.047 54.0999 112.879 54.036 112.694C53.972 112.51 53.9482 112.314 53.9661 112.12C53.9841 111.926 54.0435 111.738 54.1402 111.568C54.2369 111.399 54.3688 111.252 54.5269 111.138C54.685 111.024 54.8658 110.945 55.057 110.906C55.2482 110.868 55.4455 110.871 55.6355 110.915C55.8255 110.959 56.0039 111.043 56.1586 111.162C56.3134 111.281 56.4409 111.431 56.5327 111.603C60.1973 116.656 65.0047 120.771 70.5627 123.612C76.1207 126.454 82.2716 127.94 88.5137 127.951C88.7074 127.924 88.9049 127.938 89.0927 127.993C89.2804 128.049 89.4541 128.144 89.602 128.272C89.7498 128.4 89.8684 128.559 89.9496 128.737C90.0309 128.915 90.073 129.108 90.073 129.304C90.073 129.5 90.0309 129.693 89.9496 129.871C89.8684 130.05 89.7498 130.208 89.602 130.336C89.4541 130.465 89.2804 130.56 89.0927 130.615C88.9049 130.67 88.7074 130.685 88.5137 130.657H88.5Z" fill="#F2F2F2"/>
<path d="M111.116 123.824C110.83 123.816 110.553 123.719 110.326 123.545C110.098 123.372 109.931 123.131 109.847 122.857C109.763 122.583 109.768 122.29 109.86 122.019C109.952 121.748 110.127 121.513 110.36 121.346C115.774 117.747 120.214 112.863 123.284 107.131C126.353 101.4 127.957 94.9974 127.951 88.4955C127.951 88.133 128.095 87.7854 128.352 87.5292C128.608 87.2729 128.955 87.1289 129.318 87.1289C129.68 87.1289 130.028 87.2729 130.284 87.5292C130.54 87.7854 130.684 88.133 130.684 88.4955C130.689 95.4429 128.975 102.284 125.695 108.408C122.415 114.532 117.671 119.75 111.886 123.597C111.659 123.75 111.39 123.83 111.116 123.824Z" fill="#F2F2F2"/>
<path d="M127.523 77.8822C127.233 77.8798 126.952 77.7854 126.72 77.6126C126.487 77.4399 126.315 77.1976 126.229 76.921C124.237 70.5077 120.65 64.7045 115.805 60.0539C110.96 55.4034 105.015 52.0573 98.5256 50.3287C98.2203 50.2023 97.9711 49.9696 97.8242 49.6736C97.6772 49.3777 97.6425 49.0385 97.7265 48.7189C97.8104 48.3993 98.0073 48.1209 98.2807 47.9354C98.5541 47.7498 98.8855 47.6695 99.2135 47.7095C106.15 49.5544 112.505 53.1295 117.683 58.0998C122.861 63.0702 126.694 69.2733 128.821 76.1284C128.922 76.4733 128.883 76.844 128.713 77.1603C128.542 77.4766 128.254 77.7131 127.91 77.8184C127.785 77.8586 127.655 77.8801 127.523 77.8822Z" fill="#F2F2F2"/>
<path d="M70.6168 53.162C70.317 53.1509 70.0292 53.0414 69.7978 52.8505C69.5664 52.6596 69.4042 52.3978 69.3363 52.1056C69.2685 51.8134 69.2986 51.5069 69.4222 51.2336C69.5458 50.9602 69.7559 50.7351 70.0201 50.5929C75.5462 47.8883 81.6012 46.4372 87.7529 46.3431C88.1153 46.337 88.4653 46.4752 88.7258 46.7272C88.9864 46.9792 89.1362 47.3244 89.1422 47.6868C89.1482 48.0492 89.0101 48.3992 88.7581 48.6598C88.5061 48.9203 88.1609 49.07 87.7985 49.0761C82.0434 49.1608 76.3783 50.5172 71.209 53.0481C71.0231 53.1316 70.8204 53.1705 70.6168 53.162Z" fill="#F2F2F2"/>
<path d="M106.738 77.5542C106.517 77.5528 106.3 77.4978 106.105 77.3939C105.91 77.29 105.742 77.1402 105.618 76.9575C103.324 73.5738 100.078 70.9458 96.2913 69.4054C92.5045 67.8651 88.346 67.4815 84.3413 68.3029C84.1575 68.3659 83.9624 68.389 83.769 68.3707C83.5755 68.3523 83.3883 68.2929 83.2196 68.1965C83.051 68.1 82.9048 67.9687 82.791 67.8112C82.6771 67.6538 82.5981 67.4739 82.5592 67.2836C82.5204 67.0932 82.5225 66.8967 82.5656 66.7073C82.6087 66.5178 82.6917 66.3397 82.809 66.1849C82.9264 66.03 83.0754 65.902 83.2462 65.8093C83.4169 65.7166 83.6054 65.6614 83.7992 65.6473C88.3262 64.7221 93.0259 65.1591 97.3048 66.9029C101.584 68.6467 105.25 71.6193 107.841 75.4452C108.037 75.7436 108.109 76.1071 108.041 76.4579C107.973 76.8087 107.77 77.1188 107.476 77.3219C107.259 77.4707 107.002 77.5516 106.738 77.5542Z" fill="#F2F2F2"/>
<path d="M73.9876 106.374C73.6522 106.381 73.3269 106.26 73.0765 106.037C70.5171 103.789 68.4805 101.008 67.1099 97.8898C65.7392 94.7713 65.0677 91.3906 65.1423 87.9849C65.217 84.5793 66.0361 81.2313 67.5421 78.1759C69.0481 75.1204 71.2045 72.4316 73.86 70.2981C73.9937 70.155 74.1567 70.0423 74.3377 69.9677C74.5188 69.893 74.7138 69.8582 74.9095 69.8655C75.1052 69.8728 75.297 69.9222 75.472 70.0101C75.647 70.098 75.801 70.2225 75.9237 70.3752C76.0463 70.5278 76.1347 70.7051 76.1829 70.8949C76.2311 71.0847 76.2379 71.2827 76.2029 71.4754C76.1679 71.6681 76.0919 71.851 75.98 72.0117C75.8681 72.1724 75.723 72.3073 75.5545 72.407C73.2072 74.2938 71.3011 76.6712 69.9699 79.3727C68.6388 82.0741 67.9149 85.0341 67.8489 88.0449C67.7829 91.0558 68.3765 94.0446 69.588 96.8018C70.7996 99.5589 72.5997 102.018 74.8621 104.005C75.0625 104.191 75.2026 104.433 75.2643 104.699C75.3261 104.965 75.3067 105.243 75.2086 105.498C75.1106 105.753 74.9384 105.973 74.7142 106.129C74.4901 106.285 74.2242 106.37 73.9511 106.374H73.9876Z" fill="#F2F2F2"/>
<path d="M90.4768 111.758C90.1476 111.728 89.8403 111.58 89.6121 111.34C89.3839 111.101 89.2501 110.787 89.2357 110.457C89.2212 110.127 89.327 109.802 89.5335 109.544C89.7399 109.286 90.033 109.111 90.3584 109.052C95.502 108.62 100.293 106.263 103.775 102.452C107.256 98.6412 109.172 93.6571 109.139 88.4954C109.182 88.1663 109.343 87.8639 109.592 87.6449C109.841 87.4258 110.162 87.305 110.494 87.305C110.826 87.305 111.147 87.4258 111.396 87.6449C111.645 87.8639 111.806 88.1663 111.849 88.4954C111.876 94.3321 109.705 99.9651 105.768 104.274C101.83 108.582 96.4153 111.251 90.5998 111.749L90.4768 111.758Z" fill="#F2F2F2"/>
<path d="M22.8663 68.517C22.7243 68.5162 22.5831 68.4947 22.4473 68.4532C22.1071 68.3396 21.8253 68.0969 21.6625 67.7773C21.4998 67.4577 21.4691 67.087 21.5773 66.7451C25.9375 53.3512 34.2151 41.573 45.3398 32.9331C56.4645 24.2931 69.925 19.1886 83.9814 18.2794C84.1728 18.24 84.3705 18.2421 84.561 18.2857C84.7516 18.3292 84.9306 18.413 85.0859 18.5316C85.2413 18.6502 85.3694 18.8007 85.4617 18.973C85.5539 19.1453 85.6081 19.3354 85.6206 19.5305C85.6331 19.7255 85.6036 19.921 85.5341 20.1037C85.4646 20.2863 85.3568 20.452 85.2178 20.5894C85.0788 20.7269 84.912 20.8329 84.7286 20.9004C84.5452 20.9678 84.3494 20.9952 84.1545 20.9805C56.7422 22.716 32.6278 41.4418 24.1418 67.5832C24.0521 67.8518 23.8813 68.0859 23.6528 68.2532C23.4243 68.4205 23.1495 68.5127 22.8663 68.517Z" fill="#F2F2F2"/>
<path d="M65.5972 154.954C65.4421 154.953 65.2883 154.927 65.1417 154.876C52.1445 150.32 40.7742 142.041 32.4459 131.072C24.1176 120.103 19.199 106.926 18.3021 93.1826C18.326 92.8537 18.4681 92.5444 18.7021 92.312C18.9361 92.0796 19.2463 91.9397 19.5754 91.918C19.9045 91.8964 20.2303 91.9945 20.4927 92.1943C20.7552 92.394 20.9365 92.682 21.0033 93.005C21.8655 106.221 26.5952 118.891 34.6036 129.439C42.612 139.988 53.5455 147.948 66.0436 152.33C66.3334 152.447 66.5745 152.659 66.7265 152.932C66.8786 153.205 66.9325 153.522 66.8792 153.83C66.8259 154.138 66.6687 154.419 66.4338 154.625C66.1988 154.831 65.9003 154.95 65.5881 154.963L65.5972 154.954Z" fill="#F2F2F2"/>
<path d="M88.4999 158.844C88.3062 158.871 88.1087 158.857 87.9209 158.802C87.7332 158.746 87.5595 158.651 87.4117 158.523C87.2638 158.395 87.1452 158.236 87.064 158.058C86.9827 157.88 86.9407 157.686 86.9407 157.491C86.9407 157.295 86.9827 157.102 87.064 156.923C87.1452 156.745 87.2638 156.587 87.4117 156.459C87.5595 156.33 87.7332 156.235 87.9209 156.18C88.1087 156.125 88.3062 156.11 88.4999 156.138C103.631 156.172 118.335 151.118 130.249 141.789C142.162 132.459 150.593 119.396 154.188 104.698C154.311 104.392 154.539 104.14 154.833 103.99C155.126 103.839 155.464 103.799 155.784 103.878C156.104 103.957 156.385 104.149 156.574 104.418C156.764 104.688 156.85 105.017 156.817 105.345C153.057 120.46 144.41 133.911 132.219 143.607C119.812 153.527 104.385 158.903 88.4999 158.844Z" fill="#F2F2F2"/>
<path d="M157.236 95.8701H157.117C156.761 95.8354 156.433 95.6623 156.203 95.388C155.973 95.1137 155.859 94.7602 155.887 94.4033C156.056 92.4538 156.138 90.4678 156.138 88.4818C156.143 78.6724 154.012 68.9795 149.894 60.0766C145.775 51.1737 139.767 43.2745 132.288 36.9278C132.123 36.8227 131.983 36.6836 131.877 36.52C131.771 36.3563 131.701 36.1719 131.672 35.979C131.644 35.7861 131.656 35.5892 131.71 35.4017C131.763 35.2141 131.856 35.0402 131.983 34.8916C132.109 34.743 132.266 34.6231 132.442 34.54C132.619 34.457 132.811 34.4127 133.006 34.4102C133.201 34.4076 133.394 34.4467 133.573 34.5251C133.751 34.6034 133.911 34.7191 134.041 34.8643C141.824 41.4658 148.075 49.683 152.36 58.9447C156.646 68.2064 158.863 78.2903 158.857 88.4954C158.857 90.5407 158.766 92.595 158.593 94.6311C158.561 94.9694 158.405 95.2838 158.154 95.5128C157.903 95.7419 157.575 95.8693 157.236 95.8701Z" fill="#F2F2F2"/>
<path d="M123.378 30.3093C123.138 30.3099 122.901 30.2454 122.695 30.1225C115.086 25.648 106.668 22.7208 97.9244 21.509C97.7296 21.508 97.5373 21.4653 97.3603 21.384C97.1834 21.3026 97.0258 21.1842 96.8983 21.037C96.7708 20.8897 96.6763 20.7169 96.621 20.5302C96.5657 20.3434 96.551 20.1469 96.5779 19.954C96.6047 19.7611 96.6725 19.5761 96.7767 19.4115C96.8809 19.2469 97.0191 19.1065 97.1819 18.9997C97.3448 18.8929 97.5287 18.8221 97.7211 18.7922C97.9136 18.7622 98.1103 18.7738 98.2979 18.826C107.394 20.0873 116.151 23.1337 124.066 27.7903C124.312 27.947 124.502 28.1784 124.607 28.4507C124.712 28.723 124.728 29.0218 124.651 29.3035C124.574 29.5851 124.409 29.8347 124.18 30.0157C123.951 30.1967 123.67 30.2996 123.378 30.3093Z" fill="#F2F2F2"/>
<path d="M34.5364 21.4224C34.2577 21.4165 33.9875 21.3256 33.762 21.1617C33.5365 20.9979 33.3665 20.769 33.2748 20.5058C33.1831 20.2425 33.1741 19.9576 33.249 19.6891C33.3238 19.4206 33.479 19.1815 33.6937 19.0037C46.7879 8.68774 62.5267 2.27502 79.1019 0.502366C95.677 -1.27029 112.416 1.66904 127.396 8.98258C127.582 9.04313 127.753 9.143 127.897 9.27545C128.041 9.4079 128.156 9.56983 128.232 9.75025C128.308 9.93066 128.345 10.1253 128.339 10.3211C128.333 10.5169 128.286 10.7092 128.199 10.8849C128.113 11.0607 127.99 11.2159 127.838 11.3399C127.687 11.4639 127.51 11.5539 127.321 11.6037C127.131 11.6535 126.933 11.662 126.74 11.6287C126.547 11.5954 126.364 11.5209 126.202 11.4104C111.68 4.32382 95.4536 1.47796 79.3868 3.19986C63.32 4.92177 48.065 11.1416 35.3745 21.1445C35.1336 21.3274 34.8388 21.4251 34.5364 21.4224Z" fill="#F2F2F2"/>
<path d="M1.35739 89.8528C0.994972 89.8528 0.647413 89.7089 0.391142 89.4526C0.134871 89.1963 -0.00912034 88.8487 -0.00912034 88.4863C-0.0238063 71.976 4.59215 55.7926 13.3144 41.7743C13.3889 41.5887 13.5033 41.4217 13.6495 41.2851C13.7956 41.1485 13.97 41.0456 14.1603 40.9838C14.3506 40.922 14.5521 40.9028 14.7506 40.9274C14.9491 40.952 15.1398 41.0199 15.3093 41.1263C15.4787 41.2327 15.6227 41.3749 15.7311 41.5431C15.8395 41.7112 15.9096 41.9011 15.9365 42.0993C15.9635 42.2976 15.9466 42.4993 15.8871 42.6903C15.8275 42.8813 15.7268 43.0569 15.5919 43.2046C7.14003 56.7948 2.66779 72.4824 2.68293 88.4863C2.68309 88.8417 2.54476 89.1833 2.29729 89.4384C2.04982 89.6935 1.71266 89.8422 1.35739 89.8528Z" fill="#F2F2F2"/>
<path d="M65.5973 173.957C65.4771 173.956 65.3577 173.939 65.242 173.907C50.8957 169.984 37.7664 162.515 27.0622 152.189C16.3579 141.863 8.42241 129.011 3.98569 114.815C3.90105 114.638 3.8555 114.444 3.85213 114.248C3.84876 114.052 3.88765 113.858 3.96617 113.678C4.04469 113.498 4.16101 113.337 4.30719 113.207C4.45337 113.076 4.62598 112.978 4.81332 112.92C5.00067 112.862 5.19835 112.844 5.39291 112.87C5.58746 112.895 5.77434 112.961 5.94085 113.065C6.10736 113.169 6.24959 113.307 6.35788 113.471C6.46616 113.634 6.53796 113.819 6.56839 114.013C15.1957 141.735 37.9481 163.663 65.9525 171.297C66.2535 171.398 66.5101 171.6 66.6783 171.869C66.8465 172.138 66.9158 172.457 66.8744 172.772C66.8329 173.086 66.6832 173.377 66.451 173.593C66.2188 173.809 65.9186 173.938 65.6018 173.957H65.5973Z" fill="#F2F2F2"/>
<path d="M88.4999 176.995C88.3062 177.023 88.1087 177.009 87.9209 176.953C87.7332 176.898 87.5595 176.803 87.4117 176.675C87.2638 176.547 87.1452 176.388 87.064 176.21C86.9827 176.032 86.9407 175.838 86.9407 175.643C86.9407 175.447 86.9827 175.253 87.064 175.075C87.1452 174.897 87.2638 174.739 87.4117 174.61C87.5595 174.482 87.7332 174.387 87.9209 174.332C88.1087 174.276 88.3062 174.262 88.4999 174.29C102.941 174.323 117.154 170.697 129.815 163.751C142.475 156.804 153.168 146.763 160.898 134.565C160.977 134.385 161.095 134.224 161.243 134.094C161.39 133.963 161.564 133.866 161.753 133.809C161.941 133.752 162.14 133.737 162.335 133.764C162.53 133.791 162.717 133.859 162.883 133.965C163.049 134.071 163.19 134.212 163.297 134.377C163.403 134.543 163.473 134.73 163.501 134.925C163.528 135.12 163.514 135.318 163.458 135.507C163.401 135.696 163.305 135.87 163.175 136.018C155.203 148.6 144.172 158.957 131.114 166.123C118.056 173.288 103.395 177.029 88.4999 176.995Z" fill="#F2F2F2"/>
<path d="M171.73 115.766C171.594 115.768 171.458 115.746 171.329 115.703C170.984 115.597 170.695 115.36 170.525 115.043C170.354 114.726 170.316 114.354 170.418 114.008C175.377 98.0232 175.559 80.9378 170.942 64.8508C166.324 48.7637 157.109 34.3756 144.427 23.4539C144.21 23.2061 144.089 22.8883 144.088 22.5587C144.087 22.2292 144.204 21.9103 144.419 21.6607C144.635 21.4112 144.933 21.2478 145.259 21.2006C145.585 21.1535 145.917 21.2257 146.194 21.4041C159.274 32.6718 168.779 47.5137 173.542 64.1076C178.305 80.7015 178.118 98.3251 173.005 114.815C172.919 115.087 172.749 115.325 172.52 115.495C172.292 115.666 172.015 115.761 171.73 115.766Z" fill="#F2F2F2"/>
<path d="M19.9284 127.664C19.6866 127.663 19.4495 127.597 19.2414 127.474C19.0334 127.35 18.8618 127.174 18.7441 126.963C13.6142 117.647 10.4003 107.399 9.29171 96.8217C8.1831 86.2447 9.20218 75.5528 12.2889 65.3757C15.3757 55.1986 20.4677 45.742 27.2651 37.5629C34.0625 29.3838 42.4278 22.6477 51.8684 17.751C52.18 17.6381 52.5221 17.6423 52.8309 17.7628C53.1398 17.8834 53.3942 18.1121 53.5469 18.4063C53.6996 18.7006 53.7401 19.0403 53.6609 19.3622C53.5817 19.6841 53.3882 19.9662 53.1164 20.1561C43.994 24.8833 35.9102 31.389 29.3415 39.2895C22.7728 47.19 17.8522 56.3256 14.8696 66.1577C11.8869 75.9898 10.9027 86.3195 11.975 96.5379C13.0472 106.756 16.1541 116.657 21.1127 125.655C21.2772 125.969 21.3136 126.334 21.2142 126.674C21.1148 127.014 20.8873 127.302 20.5797 127.477C20.3823 127.595 20.1579 127.659 19.9284 127.664Z" fill="#F2F2F2"/>
<path d="M88.5 168.154C68.0947 168.188 48.4611 160.357 33.6801 146.29C33.5228 146.175 33.3918 146.029 33.2959 145.859C33.1999 145.69 33.1412 145.502 33.1236 145.309C33.1061 145.115 33.13 144.92 33.194 144.736C33.2579 144.552 33.3604 144.384 33.4944 144.243C33.6285 144.103 33.7912 143.992 33.9714 143.919C34.1517 143.846 34.3455 143.812 34.5399 143.82C34.7343 143.828 34.9247 143.877 35.0985 143.964C35.2723 144.052 35.4254 144.175 35.5476 144.327C44.769 153.058 56.0043 159.377 68.2553 162.722C80.5063 166.066 93.3938 166.333 105.773 163.499C106.103 163.467 106.434 163.556 106.704 163.75C106.973 163.944 107.163 164.23 107.237 164.554C107.311 164.877 107.265 165.217 107.107 165.509C106.949 165.801 106.69 166.026 106.379 166.141C100.513 167.48 94.5162 168.155 88.5 168.154Z" fill="#F2F2F2"/>
<path d="M137.904 150.613C137.627 150.606 137.359 150.516 137.135 150.354C136.911 150.192 136.741 149.966 136.648 149.705C136.555 149.444 136.544 149.161 136.615 148.894C136.686 148.627 136.837 148.387 137.048 148.208C145.938 141.004 153.103 131.903 158.019 121.571C162.935 111.239 165.477 99.9374 165.457 88.4954C165.452 84.0893 165.073 79.6915 164.323 75.3496C164.265 75.1635 164.247 74.967 164.27 74.7734C164.294 74.5797 164.359 74.3934 164.461 74.227C164.562 74.0605 164.699 73.9177 164.86 73.8083C165.022 73.6988 165.205 73.6252 165.397 73.5923C165.589 73.5595 165.786 73.5683 165.975 73.618C166.164 73.6677 166.339 73.7572 166.491 73.8805C166.642 74.0039 166.765 74.1581 166.851 74.3329C166.938 74.5078 166.986 74.6991 166.993 74.8941C167.764 79.3913 168.151 83.9462 168.15 88.5091C168.169 100.353 165.539 112.052 160.45 122.748C155.362 133.443 147.945 142.864 138.742 150.321C138.504 150.511 138.208 150.614 137.904 150.613Z" fill="#F2F2F2"/>
<path d="M154.093 47.0718C153.868 47.0707 153.646 47.0139 153.448 46.9066C153.251 46.7994 153.082 46.6448 152.958 46.4569C145.977 35.7252 136.423 26.9099 125.165 20.8135C113.907 14.7172 101.303 11.5332 88.4999 11.5515C83.9615 11.5498 79.4316 11.9461 74.9624 12.7359C74.6348 12.743 74.3156 12.6322 74.0629 12.4237C73.8102 12.2152 73.6408 11.9229 73.5856 11.5999C73.5304 11.277 73.593 10.945 73.7621 10.6644C73.9312 10.3838 74.1955 10.1732 74.5069 10.0712C79.1324 9.25266 83.8208 8.84115 88.5182 8.84131C101.766 8.82941 114.806 12.1288 126.454 18.4397C138.102 24.7505 147.988 33.8725 155.213 44.9765C155.343 45.1816 155.415 45.4176 155.423 45.66C155.431 45.9024 155.375 46.1427 155.259 46.356C155.144 46.5693 154.973 46.748 154.766 46.8738C154.559 46.9996 154.322 47.068 154.079 47.0718H154.093Z" fill="#F2F2F2"/>
<path d="M47.6777 46.5161C47.4103 46.5071 47.1515 46.4199 46.9333 46.2652C46.7151 46.1106 46.5471 45.8952 46.4501 45.6459C46.3531 45.3967 46.3314 45.1244 46.3876 44.8629C46.4439 44.6014 46.5757 44.3622 46.7667 44.1749C58.0495 33.5102 72.9929 27.5791 88.5182 27.6036C93.1261 27.6033 97.7193 28.1228 102.211 29.1523C102.518 29.2702 102.773 29.4952 102.927 29.7858C103.082 30.0765 103.127 30.4132 103.053 30.734C102.979 31.0549 102.792 31.3385 102.526 31.5324C102.26 31.7264 101.933 31.8177 101.605 31.7897C97.3121 30.8072 92.9221 30.3121 88.5182 30.3139C73.6841 30.2911 59.4061 35.958 48.6251 46.1472C48.3701 46.39 48.0297 46.5225 47.6777 46.5161Z" fill="#F2F2F2"/>
<path d="M32.4501 109.968C32.1698 109.965 31.897 109.876 31.6689 109.713C31.4407 109.55 31.2682 109.321 31.1747 109.057C28.0135 100.221 26.9324 90.7743 28.0155 81.4523C29.0986 72.1302 32.3167 63.1835 37.4197 55.3074C37.6335 55.0501 37.9342 54.8802 38.2648 54.8298C38.5955 54.7795 38.9331 54.8521 39.2138 55.034C39.4945 55.2158 39.6987 55.4944 39.7878 55.8167C39.8769 56.1391 39.8447 56.483 39.6972 56.7832C34.8186 64.3086 31.7418 72.8579 30.706 81.7663C29.6703 90.6747 30.7036 99.702 33.7255 108.146C33.843 108.484 33.8229 108.855 33.6696 109.179C33.5162 109.503 33.2419 109.753 32.9056 109.877C32.7603 109.934 32.6061 109.964 32.4501 109.968Z" fill="#F2F2F2"/>
<path d="M88.4999 149.392C79.0926 149.424 69.8073 147.262 61.3826 143.075C52.958 138.889 45.6262 132.795 39.9705 125.277C39.8043 124.989 39.7489 124.651 39.8147 124.325C39.8805 123.999 40.0629 123.708 40.3277 123.507C40.5926 123.305 40.9217 123.208 41.2534 123.232C41.5851 123.256 41.8966 123.4 42.1296 123.638C47.5331 130.823 54.5391 136.647 62.59 140.648C70.6409 144.648 79.5145 146.714 88.5045 146.682C90.745 146.682 92.9837 146.554 95.2095 146.299C95.5408 146.305 95.8584 146.432 96.1034 146.655C96.3484 146.878 96.504 147.182 96.5413 147.511C96.5787 147.841 96.4951 148.172 96.3063 148.444C96.1174 148.716 95.8361 148.911 95.5147 148.991C93.1859 149.257 90.8439 149.391 88.4999 149.392Z" fill="#F2F2F2"/>
<path d="M119.939 140.423C119.65 140.414 119.371 140.314 119.142 140.136C118.914 139.959 118.747 139.713 118.667 139.435C118.587 139.157 118.598 138.861 118.697 138.589C118.796 138.317 118.979 138.083 119.219 137.922C127.641 132.719 134.589 125.444 139.398 116.79C144.206 108.137 146.716 98.3951 146.686 88.4955C146.733 88.1697 146.895 87.8717 147.144 87.6561C147.392 87.4404 147.71 87.3217 148.039 87.3217C148.368 87.3217 148.686 87.4404 148.935 87.6561C149.183 87.8717 149.345 88.1697 149.392 88.4955C149.423 98.8549 146.797 109.049 141.765 118.105C136.733 127.16 129.463 134.773 120.65 140.218C120.437 140.353 120.191 140.424 119.939 140.423Z" fill="#F2F2F2"/>
<path d="M145.128 71.4186C144.843 71.4158 144.566 71.3239 144.335 71.1556C144.105 70.9873 143.933 70.7512 143.844 70.4803C141.337 62.8168 137.27 55.7557 131.899 49.7419C126.528 43.7281 119.97 38.892 112.637 35.5385C112.359 35.3619 112.153 35.0906 112.059 34.7744C111.965 34.4583 111.988 34.1188 112.125 33.8185C112.261 33.5182 112.502 33.2774 112.802 33.1406C113.102 33.0038 113.442 32.9802 113.758 33.0742C121.433 36.5832 128.297 41.6447 133.919 47.9393C139.54 54.2339 143.796 61.6251 146.417 69.6467C146.524 69.988 146.493 70.3576 146.33 70.6761C146.168 70.9946 145.887 71.2366 145.547 71.3503C145.412 71.3954 145.271 71.4185 145.128 71.4186Z" fill="#F2F2F2"/>
</g>
<defs>
<clipPath id="clip0_31_1032">
<rect width="177" height="177" fill="white"/>
</clipPath>
</defs>
</svg>
