<svg width="257" height="257" viewBox="0 0 257 257" fill="none" xmlns="http://www.w3.org/2000/svg">
<g opacity="0.8" clip-path="url(#clip0_31_454)">
<path d="M154.016 92.62C153.625 92.6182 153.243 92.5009 152.918 92.2827C144.352 86.5112 134.019 83.9595 123.751 85.0802C123.476 85.1486 123.19 85.1572 122.911 85.1055C122.632 85.0537 122.368 84.9429 122.135 84.7804C121.903 84.6178 121.708 84.4074 121.564 84.1632C121.42 83.9191 121.33 83.6469 121.3 83.365C121.27 83.0831 121.3 82.7979 121.39 82.5289C121.479 82.2598 121.625 82.0131 121.818 81.8053C122.011 81.5974 122.246 81.4332 122.508 81.3239C122.769 81.2146 123.051 81.1627 123.335 81.1715C125.05 80.9863 126.774 80.8935 128.5 80.8937C137.987 80.8781 147.26 83.7097 155.121 89.0221C155.459 89.264 155.713 89.6063 155.847 90.0005C155.98 90.3947 155.986 90.8209 155.864 91.2187C155.742 91.6166 155.498 91.966 155.166 92.2174C154.834 92.4689 154.432 92.6097 154.016 92.62Z" fill="white"/>
<path d="M86.284 113.083C86.0274 113.081 85.7735 113.03 85.5366 112.931C85.0585 112.728 84.6792 112.345 84.4801 111.866C84.281 111.386 84.278 110.847 84.4718 110.365C86.9161 104.464 90.5157 99.1123 95.059 94.6235C99.6023 90.1348 104.997 86.6 110.927 84.2271C111.174 84.0894 111.447 84.0059 111.729 83.9824C112.01 83.9589 112.294 83.9958 112.56 84.0907C112.826 84.1855 113.069 84.3362 113.272 84.5325C113.476 84.7289 113.635 84.9664 113.739 85.2291C113.843 85.4919 113.89 85.7738 113.876 86.0561C113.862 86.3384 113.788 86.6145 113.659 86.8659C113.53 87.1173 113.349 87.3382 113.127 87.5139C112.906 87.6896 112.65 87.8159 112.375 87.8845C106.929 90.0581 101.973 93.2998 97.7984 97.4184C93.6241 101.537 90.3162 106.449 88.0697 111.866C87.9215 112.22 87.6739 112.523 87.357 112.739C87.0401 112.955 86.6674 113.075 86.284 113.083Z" fill="white"/>
<path d="M128.5 176.1C116.822 176.116 105.546 171.835 96.8199 164.073C88.0944 156.311 82.5292 145.61 81.1847 134.009C81.1924 133.528 81.3748 133.066 81.6981 132.709C82.0214 132.352 82.4634 132.125 82.9418 132.07C83.4201 132.015 83.9022 132.135 84.2981 132.41C84.694 132.684 84.9766 133.092 85.0934 133.56C85.9555 141.007 88.7211 148.107 93.1239 154.175C97.5266 160.243 103.418 165.075 110.231 168.205C117.043 171.335 124.547 172.658 132.019 172.046C139.491 171.434 146.68 168.908 152.892 164.711C153.322 164.495 153.817 164.444 154.283 164.566C154.749 164.688 155.154 164.975 155.424 165.374C155.693 165.774 155.809 166.257 155.748 166.735C155.687 167.213 155.455 167.652 155.094 167.971C147.241 173.279 137.978 176.11 128.5 176.1Z" fill="white"/>
<path d="M169.764 149.988C169.473 149.989 169.186 149.923 168.924 149.796C168.449 149.569 168.085 149.163 167.91 148.667C167.735 148.171 167.764 147.625 167.991 147.151C171.684 139.333 172.975 130.595 171.7 122.043C170.425 113.491 166.642 105.509 160.828 99.1082C160.612 98.9261 160.437 98.6998 160.315 98.4445C160.193 98.1892 160.127 97.9108 160.122 97.6279C160.116 97.345 160.171 97.0643 160.283 96.8045C160.395 96.5447 160.561 96.3118 160.771 96.1215C160.98 95.9312 161.228 95.7878 161.497 95.7011C161.766 95.6143 162.051 95.5862 162.332 95.6185C162.613 95.6508 162.884 95.7428 163.127 95.8884C163.369 96.034 163.578 96.2298 163.738 96.4627C170.077 103.44 174.203 112.141 175.592 121.465C176.981 130.789 175.572 140.315 171.543 148.837C171.385 149.178 171.135 149.467 170.82 149.67C170.505 149.874 170.139 149.984 169.764 149.988Z" fill="white"/>
<path d="M128.5 148.103C123.592 148.102 118.863 146.26 115.247 142.942C111.631 139.623 109.391 135.069 108.969 130.18C108.547 125.29 109.974 120.419 112.968 116.531C115.962 112.642 120.305 110.017 125.14 109.174C125.62 109.158 126.089 109.317 126.46 109.62C126.832 109.923 127.081 110.351 127.162 110.824C127.243 111.296 127.149 111.783 126.899 112.192C126.649 112.601 126.259 112.906 125.802 113.05C123.597 113.437 121.5 114.292 119.654 115.556C117.807 116.821 116.252 118.467 115.095 120.383C113.937 122.299 113.203 124.441 112.943 126.664C112.682 128.887 112.901 131.14 113.584 133.272C114.267 135.404 115.399 137.365 116.903 139.022C118.407 140.68 120.249 141.996 122.304 142.883C124.36 143.769 126.581 144.205 128.82 144.161C131.058 144.117 133.26 143.594 135.279 142.627C135.516 142.472 135.782 142.37 136.061 142.327C136.34 142.283 136.626 142.3 136.898 142.376C137.17 142.451 137.423 142.584 137.639 142.765C137.856 142.947 138.031 143.172 138.154 143.427C138.276 143.681 138.343 143.959 138.349 144.241C138.356 144.524 138.302 144.804 138.192 145.064C138.081 145.324 137.916 145.557 137.708 145.748C137.5 145.939 137.254 146.084 136.986 146.172C134.338 147.446 131.438 148.106 128.5 148.103Z" fill="white"/>
<path d="M145.339 135.788C145.137 135.787 144.936 135.756 144.744 135.696C144.249 135.535 143.838 135.186 143.598 134.725C143.358 134.263 143.308 133.726 143.46 133.229C144.324 130.492 144.421 127.57 143.74 124.782C143.059 121.994 141.626 119.446 139.598 117.415C139.306 117.034 139.162 116.559 139.194 116.079C139.225 115.6 139.43 115.148 139.769 114.808C140.108 114.468 140.56 114.262 141.039 114.23C141.519 114.197 141.994 114.34 142.376 114.631C144.916 117.169 146.71 120.357 147.562 123.845C148.415 127.333 148.293 130.989 147.211 134.413C147.083 134.81 146.833 135.156 146.497 135.403C146.161 135.65 145.756 135.785 145.339 135.788Z" fill="white"/>
<path d="M177.7 77.19C177.21 77.1852 176.739 76.9991 176.377 76.6674C169.321 70.1414 161.004 65.1283 151.937 61.9367C142.871 58.7452 133.247 57.4425 123.659 58.109C123.181 58.0755 122.731 57.8701 122.393 57.5309C122.054 57.1916 121.85 56.7414 121.818 56.2633C121.786 55.7852 121.927 55.3116 122.217 54.93C122.507 54.5483 122.925 54.2845 123.394 54.1871C133.52 53.4834 143.682 54.8583 153.257 58.2273C162.831 61.5962 171.615 66.888 179.069 73.7772C179.447 74.1341 179.67 74.625 179.69 75.1444C179.71 75.6639 179.525 76.1704 179.175 76.555C178.989 76.7601 178.761 76.9229 178.507 77.0324C178.252 77.142 177.977 77.1957 177.7 77.19Z" fill="white"/>
<path d="M62.7784 99.7761C62.4497 99.7711 62.1275 99.6845 61.8405 99.5241C61.5536 99.3636 61.3111 99.1343 61.1347 98.857C60.9583 98.5796 60.8536 98.2627 60.8299 97.9348C60.8063 97.6069 60.8645 97.2783 60.9993 96.9785C65.2197 88.002 71.1791 79.952 78.5323 73.2947C85.8856 66.6374 94.4865 61.5051 103.837 58.195C104.31 58.0887 104.805 58.1592 105.23 58.3931C105.654 58.627 105.978 59.0082 106.141 59.4646C106.304 59.9211 106.294 60.4213 106.113 60.871C105.932 61.3206 105.593 61.6886 105.16 61.9054C96.304 65.042 88.1581 69.9034 81.1933 76.2086C74.2286 82.5137 68.5833 90.1374 64.584 98.6386C64.4227 98.9805 64.1671 99.2692 63.8472 99.4708C63.5273 99.6723 63.1565 99.7782 62.7784 99.7761Z" fill="white"/>
<path d="M76.2045 180.696C75.94 180.698 75.6782 180.645 75.4348 180.541C75.1914 180.438 74.9717 180.286 74.7892 180.094C61.4337 166.245 53.9865 147.746 54.0217 128.507C54.0217 126.602 54.0945 124.671 54.24 122.779C54.2203 122.495 54.2621 122.21 54.3624 121.943C54.4626 121.677 54.6191 121.435 54.8212 121.234C55.0232 121.034 55.2661 120.879 55.5333 120.78C55.8006 120.682 56.0858 120.642 56.3698 120.664C56.6538 120.685 56.9297 120.768 57.179 120.905C57.4283 121.043 57.6449 121.233 57.8143 121.462C57.9837 121.691 58.1019 121.953 58.1607 122.232C58.2196 122.511 58.2177 122.799 58.1554 123.077C58.0231 124.869 57.9503 126.701 57.9503 128.507C57.9133 146.734 64.967 164.262 77.6199 177.383C77.8719 177.664 78.0384 178.012 78.0997 178.385C78.161 178.757 78.1146 179.14 77.966 179.487C77.8173 179.835 77.5726 180.132 77.2605 180.345C76.9485 180.558 76.5821 180.678 76.2045 180.69V180.696Z" fill="white"/>
<path d="M128.5 202.978C117.904 203.004 107.426 200.748 97.7788 196.364C97.3765 196.108 97.0802 195.714 96.9443 195.257C96.8083 194.799 96.8419 194.308 97.0388 193.873C97.2357 193.439 97.5828 193.089 98.0163 192.89C98.4498 192.69 98.9408 192.653 99.3992 192.786C111.666 198.329 125.261 200.249 138.584 198.322C151.906 196.394 164.399 190.699 174.592 181.907C174.779 181.695 175.01 181.527 175.268 181.412C175.526 181.297 175.806 181.239 176.088 181.241C176.371 181.243 176.65 181.305 176.906 181.423C177.163 181.542 177.391 181.713 177.576 181.927C177.761 182.141 177.898 182.392 177.978 182.663C178.058 182.933 178.079 183.218 178.04 183.498C178.001 183.778 177.903 184.046 177.752 184.285C177.601 184.524 177.401 184.728 177.165 184.883C163.64 196.558 146.367 202.981 128.5 202.978Z" fill="white"/>
<path d="M191.239 166.847C190.893 166.846 190.553 166.755 190.253 166.582C189.807 166.316 189.484 165.886 189.351 165.384C189.219 164.882 189.289 164.348 189.546 163.897C195.773 153.138 199.053 140.925 199.053 128.493C199.053 116.061 195.773 103.849 189.546 93.0896C189.357 92.6453 189.337 92.1475 189.489 91.6896C189.642 91.2316 189.955 90.8448 190.372 90.6015C190.789 90.3582 191.28 90.2752 191.754 90.368C192.227 90.4608 192.651 90.7229 192.945 91.1054C199.523 102.46 202.988 115.351 202.988 128.474C202.988 141.596 199.523 154.487 192.945 165.842C192.774 166.144 192.526 166.396 192.226 166.572C191.927 166.749 191.586 166.844 191.239 166.847Z" fill="white"/>
<path d="M73.1886 151.734C72.7927 151.732 72.4067 151.61 72.0802 151.386C71.7537 151.163 71.5017 150.846 71.3566 150.478C67.4348 140.256 66.3221 129.171 68.1342 118.374C69.9463 107.577 74.617 97.4626 81.6609 89.0816C81.8116 88.8406 82.0124 88.6348 82.2496 88.4781C82.4868 88.3214 82.7549 88.2176 83.0357 88.1736C83.3166 88.1295 83.6036 88.1463 83.8774 88.2228C84.1511 88.2994 84.4052 88.4338 84.6225 88.6171C84.8398 88.8004 85.0151 89.0283 85.1367 89.2853C85.2583 89.5423 85.3232 89.8223 85.3271 90.1065C85.331 90.3908 85.2737 90.6726 85.1593 90.9328C85.0448 91.193 84.8758 91.4255 84.6636 91.6147C78.0696 99.4603 73.6974 108.929 72.0016 119.036C70.3058 129.144 71.3483 139.521 75.0206 149.089C75.2028 149.575 75.1872 150.113 74.9769 150.588C74.7667 151.063 74.3787 151.437 73.8963 151.629C73.6693 151.708 73.4291 151.744 73.1886 151.734Z" fill="white"/>
<path d="M128.5 189.711C118.818 189.692 109.278 187.384 100.657 182.976C92.0366 178.568 84.5802 172.185 78.8963 164.347C78.701 164.142 78.5519 163.897 78.459 163.63C78.3661 163.362 78.3315 163.078 78.3576 162.796C78.3837 162.514 78.4699 162.241 78.6103 161.995C78.7508 161.749 78.9422 161.536 79.1718 161.37C79.4015 161.204 79.6639 161.09 79.9415 161.034C80.2192 160.978 80.5056 160.982 80.7815 161.046C81.0574 161.11 81.3164 161.232 81.5411 161.405C81.7658 161.577 81.9509 161.795 82.0842 162.045C87.4051 169.382 94.3854 175.357 102.455 179.482C110.525 183.608 119.457 185.766 128.52 185.782C128.801 185.742 129.088 185.763 129.361 185.843C129.633 185.924 129.885 186.062 130.1 186.248C130.315 186.434 130.487 186.664 130.605 186.923C130.723 187.182 130.784 187.462 130.784 187.747C130.784 188.031 130.723 188.312 130.605 188.57C130.487 188.829 130.315 189.059 130.1 189.245C129.885 189.432 129.633 189.57 129.361 189.65C129.088 189.73 128.801 189.751 128.52 189.711H128.5Z" fill="white"/>
<path d="M161.338 179.79C160.922 179.779 160.521 179.637 160.19 179.385C159.86 179.133 159.617 178.783 159.495 178.386C159.374 177.988 159.381 177.563 159.514 177.169C159.648 176.776 159.902 176.434 160.24 176.192C168.102 170.966 174.548 163.875 179.005 155.552C183.462 147.23 185.79 137.934 185.782 128.493C185.782 127.967 185.991 127.462 186.363 127.09C186.736 126.718 187.24 126.509 187.766 126.509C188.293 126.509 188.797 126.718 189.169 127.09C189.542 127.462 189.751 127.967 189.751 128.493C189.758 138.581 187.269 148.513 182.507 157.406C177.744 166.298 170.856 173.875 162.455 179.46C162.126 179.682 161.735 179.798 161.338 179.79Z" fill="white"/>
<path d="M185.161 113.083C184.74 113.08 184.331 112.943 183.994 112.692C183.656 112.441 183.407 112.089 183.282 111.688C180.389 102.376 175.181 93.9495 168.147 87.197C161.112 80.4444 152.48 75.586 143.057 73.0761C142.614 72.8926 142.252 72.5547 142.039 72.125C141.825 71.6953 141.775 71.2028 141.897 70.7388C142.018 70.2747 142.304 69.8705 142.701 69.6011C143.098 69.3316 143.579 69.2151 144.056 69.2731C154.127 71.9519 163.355 77.1428 170.873 84.3596C178.392 91.5765 183.956 100.583 187.046 110.537C187.192 111.038 187.135 111.576 186.888 112.035C186.64 112.494 186.222 112.838 185.723 112.991C185.541 113.049 185.352 113.08 185.161 113.083Z" fill="white"/>
<path d="M102.534 77.19C102.099 77.1739 101.681 77.015 101.345 76.7377C101.009 76.4605 100.773 76.0804 100.675 75.6561C100.576 75.2318 100.62 74.7869 100.8 74.39C100.979 73.993 101.284 73.6662 101.668 73.4598C109.691 69.5328 118.483 67.4257 127.415 67.2891C127.942 67.2803 128.45 67.481 128.828 67.8469C129.206 68.2128 129.424 68.714 129.433 69.2402C129.441 69.7664 129.241 70.2746 128.875 70.6529C128.509 71.0312 128.008 71.2486 127.481 71.2574C119.125 71.3803 110.9 73.3498 103.394 77.0247C103.124 77.1458 102.83 77.2024 102.534 77.19Z" fill="white"/>
<path d="M154.982 112.607C154.661 112.605 154.345 112.525 154.062 112.374C153.778 112.223 153.536 112.006 153.355 111.741C150.024 106.828 145.311 103.012 139.813 100.775C134.314 98.5386 128.276 97.9816 122.462 99.1743C122.195 99.2658 121.911 99.2993 121.631 99.2727C121.35 99.246 121.078 99.1598 120.833 99.0197C120.588 98.8797 120.376 98.689 120.211 98.4604C120.045 98.2318 119.93 97.9706 119.874 97.6942C119.818 97.4178 119.821 97.1326 119.883 96.8575C119.946 96.5824 120.066 96.3238 120.237 96.099C120.407 95.8742 120.624 95.6882 120.871 95.5536C121.119 95.419 121.393 95.3389 121.675 95.3184C128.248 93.9751 135.071 94.6095 141.284 97.1415C147.497 99.6735 152.821 103.99 156.582 109.545C156.868 109.978 156.972 110.506 156.874 111.015C156.775 111.525 156.48 111.975 156.053 112.27C155.737 112.486 155.364 112.603 154.982 112.607Z" fill="white"/>
<path d="M107.428 154.453C106.942 154.462 106.469 154.287 106.106 153.963C102.389 150.699 99.4323 146.662 97.4421 142.134C95.452 137.606 94.4769 132.697 94.5853 127.752C94.6937 122.807 95.883 117.946 98.0697 113.51C100.256 109.073 103.387 105.169 107.243 102.071C107.437 101.863 107.674 101.7 107.937 101.591C108.2 101.483 108.483 101.433 108.767 101.443C109.051 101.454 109.33 101.525 109.584 101.653C109.838 101.781 110.061 101.962 110.24 102.183C110.418 102.405 110.546 102.662 110.616 102.938C110.686 103.213 110.696 103.501 110.645 103.781C110.594 104.06 110.484 104.326 110.321 104.559C110.159 104.793 109.948 104.989 109.704 105.133C106.295 107.873 103.528 111.325 101.595 115.247C99.6621 119.17 98.6109 123.468 98.5152 127.839C98.4194 132.211 99.2812 136.551 101.04 140.554C102.799 144.557 105.413 148.127 108.698 151.014C108.989 151.283 109.193 151.634 109.282 152.02C109.372 152.406 109.344 152.811 109.201 153.181C109.059 153.551 108.809 153.87 108.483 154.097C108.158 154.324 107.772 154.447 107.375 154.453H107.428Z" fill="white"/>
<path d="M131.37 162.27C130.892 162.227 130.446 162.011 130.115 161.664C129.784 161.316 129.589 160.861 129.568 160.381C129.547 159.901 129.701 159.43 130.001 159.055C130.3 158.68 130.726 158.427 131.198 158.342C138.667 157.714 145.624 154.291 150.679 148.758C155.734 143.225 158.515 135.988 158.467 128.493C158.529 128.015 158.763 127.576 159.125 127.258C159.487 126.94 159.953 126.765 160.435 126.765C160.917 126.765 161.382 126.94 161.744 127.258C162.106 127.576 162.34 128.015 162.402 128.493C162.442 136.968 159.289 145.147 153.572 151.403C147.855 157.659 139.993 161.534 131.549 162.257L131.37 162.27Z" fill="white"/>
<path d="M33.2014 99.4851C32.9952 99.484 32.7902 99.4528 32.593 99.3925C32.0991 99.2276 31.6898 98.8751 31.4535 98.4111C31.2172 97.9471 31.1727 97.4088 31.3297 96.9124C37.6607 77.4647 49.6795 60.3631 65.8324 47.8181C81.9852 35.2731 101.53 27.8615 121.939 26.5412C122.217 26.484 122.504 26.4872 122.781 26.5504C123.057 26.6135 123.317 26.7353 123.543 26.9075C123.768 27.0796 123.954 27.2982 124.088 27.5484C124.222 27.7986 124.301 28.0746 124.319 28.3578C124.337 28.641 124.294 28.9248 124.194 29.1901C124.093 29.4553 123.936 29.6958 123.734 29.8954C123.533 30.0949 123.29 30.2489 123.024 30.3469C122.758 30.4448 122.473 30.4845 122.19 30.4633C82.3884 32.9831 47.3748 60.1725 35.0533 98.1293C34.9231 98.5193 34.675 98.8593 34.3433 99.1021C34.0115 99.345 33.6125 99.4789 33.2014 99.4851Z" fill="white"/>
<path d="M95.2457 224.989C95.0206 224.988 94.7972 224.95 94.5843 224.877C75.7127 218.261 59.2034 206.241 47.1108 190.314C35.0183 174.386 27.8766 155.254 26.5743 135.299C26.609 134.821 26.8153 134.372 27.1551 134.035C27.4948 133.697 27.9452 133.494 28.4231 133.463C28.9009 133.431 29.374 133.574 29.7551 133.864C30.1361 134.154 30.3994 134.572 30.4963 135.041C31.7483 154.23 38.6157 172.627 50.2437 187.943C61.8717 203.259 77.747 214.817 95.8938 221.18C96.3147 221.349 96.6647 221.658 96.8855 222.054C97.1063 222.451 97.1845 222.911 97.1072 223.358C97.0298 223.805 96.8015 224.212 96.4604 224.511C96.1193 224.811 95.6859 224.984 95.2325 225.002L95.2457 224.989Z" fill="white"/>
<path d="M128.5 230.637C128.219 230.677 127.932 230.657 127.659 230.576C127.387 230.496 127.135 230.358 126.92 230.172C126.705 229.985 126.533 229.755 126.415 229.497C126.297 229.238 126.236 228.957 126.236 228.673C126.236 228.389 126.297 228.108 126.415 227.849C126.533 227.591 126.705 227.361 126.92 227.174C127.135 226.988 127.387 226.85 127.659 226.77C127.932 226.689 128.219 226.669 128.5 226.709C150.471 226.758 171.82 219.42 189.118 205.874C206.416 192.328 218.658 173.36 223.878 152.019C224.056 151.574 224.388 151.209 224.814 150.99C225.239 150.772 225.73 150.714 226.195 150.829C226.659 150.943 227.067 151.221 227.343 151.613C227.618 152.004 227.743 152.482 227.694 152.958C222.235 174.905 209.68 194.436 191.979 208.514C173.965 222.917 151.565 230.724 128.5 230.637Z" fill="white"/>
<path d="M228.303 139.201H228.131C227.613 139.151 227.137 138.899 226.803 138.501C226.469 138.103 226.304 137.59 226.345 137.072C226.59 134.241 226.709 131.357 226.709 128.474C226.716 114.23 223.623 100.157 217.642 87.2299C211.662 74.3032 202.939 62.8336 192.079 53.6183C191.84 53.4657 191.637 53.2638 191.483 53.0262C191.329 52.7886 191.227 52.5208 191.185 52.2407C191.144 51.9607 191.162 51.6748 191.24 51.4025C191.317 51.1301 191.452 50.8776 191.636 50.6618C191.819 50.446 192.047 50.272 192.303 50.1514C192.559 50.0308 192.838 49.9665 193.121 49.9628C193.405 49.959 193.685 50.0159 193.945 50.1297C194.204 50.2434 194.436 50.4114 194.625 50.6222C205.925 60.2074 215.002 72.1386 221.224 85.5864C227.447 99.0341 230.666 113.676 230.657 128.493C230.657 131.463 230.525 134.446 230.274 137.402C230.228 137.893 230 138.35 229.636 138.683C229.271 139.015 228.796 139.2 228.303 139.201Z" fill="white"/>
<path d="M179.142 44.0084C178.793 44.0093 178.45 43.9156 178.15 43.7372C167.102 37.2403 154.879 32.99 142.184 31.2305C141.901 31.2291 141.622 31.1672 141.365 31.049C141.108 30.9308 140.879 30.759 140.694 30.5452C140.509 30.3314 140.372 30.0805 140.292 29.8093C140.211 29.5381 140.19 29.2529 140.229 28.9728C140.268 28.6926 140.366 28.4241 140.518 28.1851C140.669 27.9461 140.87 27.7423 141.106 27.5872C141.343 27.4321 141.609 27.3293 141.889 27.2858C142.168 27.2423 142.454 27.2591 142.726 27.335C155.934 29.1663 168.649 33.5897 180.141 40.3509C180.499 40.5784 180.774 40.9144 180.927 41.3097C181.08 41.7051 181.102 42.1391 180.99 42.548C180.879 42.9569 180.639 43.3193 180.306 43.5821C179.974 43.8449 179.566 43.9943 179.142 44.0084Z" fill="white"/>
<path d="M50.146 31.1048C49.7414 31.0963 49.349 30.9642 49.0216 30.7263C48.6942 30.4884 48.4474 30.1561 48.3142 29.7739C48.181 29.3917 48.1679 28.978 48.2767 28.5881C48.3854 28.1983 48.6107 27.851 48.9224 27.5929C67.9349 12.6144 90.7873 3.30326 114.854 0.729407C138.921 -1.84445 163.225 2.42339 184.975 13.0425C185.246 13.1304 185.494 13.2754 185.704 13.4677C185.913 13.66 186.079 13.8952 186.19 14.1571C186.3 14.4191 186.353 14.7018 186.345 14.986C186.337 15.2703 186.268 15.5495 186.143 15.8047C186.017 16.0599 185.838 16.2852 185.618 16.4653C185.398 16.6453 185.142 16.7759 184.867 16.8483C184.592 16.9206 184.304 16.933 184.024 16.8846C183.744 16.8362 183.477 16.7281 183.243 16.5676C162.157 6.27808 138.596 2.14595 115.268 4.64611C91.9391 7.14627 69.7892 16.1773 51.3629 30.7014C51.0131 30.9668 50.5851 31.1087 50.146 31.1048Z" fill="white"/>
<path d="M1.97092 130.464C1.44469 130.464 0.940048 130.255 0.567948 129.883C0.195848 129.511 -0.0132244 129.006 -0.0132244 128.48C-0.0345481 104.508 6.66772 81.0096 19.3322 60.6554C19.4404 60.3858 19.6065 60.1433 19.8188 59.945C20.031 59.7467 20.2842 59.5973 20.5604 59.5076C20.8367 59.4178 21.1293 59.3899 21.4176 59.4256C21.7058 59.4614 21.9827 59.5599 22.2287 59.7144C22.4747 59.8689 22.6838 60.0755 22.8412 60.3196C22.9986 60.5638 23.1004 60.8395 23.1395 61.1273C23.1787 61.4151 23.1542 61.708 23.0677 61.9853C22.9812 62.2626 22.8349 62.5176 22.6391 62.7321C10.3672 82.4647 3.87359 105.243 3.89557 128.48C3.8958 128.996 3.69495 129.492 3.33563 129.863C2.97631 130.233 2.48677 130.449 1.97092 130.464Z" fill="white"/>
<path d="M95.2457 252.582C95.0713 252.58 94.8978 252.556 94.7298 252.509C73.8993 246.812 54.836 235.968 39.2937 220.975C23.7513 205.982 12.2291 187.32 5.78711 166.708C5.66421 166.451 5.59808 166.171 5.59319 165.886C5.5883 165.601 5.64476 165.319 5.75878 165.058C5.87279 164.797 6.04168 164.563 6.25392 164.373C6.46617 164.183 6.7168 164.041 6.98882 163.957C7.26084 163.873 7.54787 163.848 7.83036 163.884C8.11285 163.92 8.3842 164.017 8.62596 164.168C8.86773 164.318 9.07425 164.519 9.23148 164.757C9.38871 164.994 9.49295 165.263 9.53714 165.544C22.0637 205.796 55.0998 237.635 95.7616 248.72C96.1986 248.866 96.5712 249.159 96.8154 249.55C97.0596 249.94 97.1603 250.404 97.1 250.861C97.0398 251.318 96.8225 251.739 96.4853 252.053C96.1482 252.367 95.7123 252.554 95.2523 252.582H95.2457Z" fill="white"/>
<path d="M128.5 256.993C128.219 257.034 127.932 257.013 127.659 256.932C127.387 256.852 127.135 256.714 126.92 256.528C126.705 256.342 126.533 256.111 126.415 255.853C126.297 255.594 126.236 255.313 126.236 255.029C126.236 254.745 126.297 254.464 126.415 254.205C126.533 253.947 126.705 253.717 126.92 253.53C127.135 253.344 127.387 253.206 127.659 253.126C127.932 253.046 128.219 253.025 128.5 253.065C149.468 253.113 170.106 247.849 188.488 237.762C206.87 227.676 222.397 213.097 233.62 195.386C233.736 195.124 233.906 194.891 234.121 194.701C234.335 194.512 234.587 194.371 234.861 194.288C235.135 194.205 235.423 194.183 235.706 194.222C235.99 194.261 236.261 194.361 236.502 194.515C236.743 194.669 236.948 194.873 237.103 195.113C237.258 195.353 237.359 195.624 237.399 195.908C237.44 196.191 237.418 196.479 237.337 196.753C237.255 197.027 237.116 197.28 236.927 197.495C225.351 215.764 209.335 230.802 190.375 241.206C171.415 251.611 150.127 257.042 128.5 256.993Z" fill="white"/>
<path d="M249.348 168.09C249.15 168.092 248.953 168.061 248.766 167.998C248.266 167.845 247.846 167.501 247.598 167.04C247.35 166.579 247.295 166.039 247.443 165.537C254.643 142.328 254.908 117.52 248.203 94.1619C241.499 70.8039 228.118 49.9127 209.705 34.0546C209.389 33.6948 209.214 33.2332 209.212 32.7548C209.21 32.2764 209.381 31.8133 209.694 31.4509C210.006 31.0886 210.439 30.8513 210.913 30.7828C211.386 30.7144 211.868 30.8193 212.271 31.0783C231.262 47.4387 245.063 68.9889 251.979 93.0829C258.894 117.177 258.624 142.766 251.2 166.708C251.074 167.103 250.828 167.449 250.496 167.697C250.164 167.945 249.762 168.082 249.348 168.09Z" fill="white"/>
<path d="M28.9355 185.366C28.5844 185.363 28.2402 185.268 27.9381 185.089C27.636 184.91 27.3868 184.654 27.2159 184.347C19.7674 170.821 15.101 155.94 13.4913 140.583C11.8816 125.225 13.3613 109.701 17.8432 94.924C22.3251 80.147 29.7186 66.4163 39.5882 54.5405C49.4579 42.6647 61.6041 32.8839 75.3116 25.7741C75.7642 25.6101 76.2609 25.6161 76.7093 25.7912C77.1577 25.9662 77.5271 26.2983 77.7489 26.7255C77.9706 27.1528 78.0294 27.646 77.9144 28.1135C77.7994 28.5809 77.5184 28.9905 77.1238 29.2661C63.8783 36.13 52.1408 45.5761 42.6032 57.0475C33.0656 68.5189 25.9209 81.7835 21.5902 96.0594C17.2595 110.335 15.8305 125.334 17.3873 140.171C18.9442 155.008 23.4554 169.383 30.6551 182.449C30.894 182.904 30.9469 183.434 30.8025 183.928C30.6582 184.421 30.3279 184.84 29.8813 185.094C29.5946 185.265 29.2688 185.358 28.9355 185.366Z" fill="white"/>
<path d="M128.5 244.156C98.8719 244.205 70.3644 232.835 48.9026 212.41C48.6743 212.243 48.4841 212.03 48.3448 211.785C48.2054 211.539 48.1202 211.266 48.0947 210.985C48.0692 210.704 48.104 210.42 48.1969 210.153C48.2897 209.887 48.4384 209.643 48.6331 209.438C48.8278 209.234 49.0639 209.073 49.3257 208.967C49.5875 208.861 49.8689 208.812 50.1511 208.823C50.4333 208.835 50.7098 208.906 50.9621 209.033C51.2145 209.16 51.4368 209.339 51.6143 209.559C65.0036 222.237 81.3169 231.412 99.1051 236.268C116.893 241.124 135.606 241.512 153.58 237.397C154.06 237.35 154.54 237.48 154.931 237.762C155.323 238.043 155.598 238.458 155.706 238.928C155.813 239.398 155.746 239.891 155.517 240.315C155.288 240.739 154.912 241.066 154.459 241.233C145.943 243.177 137.235 244.158 128.5 244.156Z" fill="white"/>
<path d="M200.234 218.686C199.832 218.677 199.442 218.546 199.117 218.311C198.791 218.075 198.545 217.747 198.41 217.368C198.275 216.99 198.258 216.579 198.362 216.191C198.466 215.803 198.685 215.455 198.99 215.194C211.898 204.735 222.303 191.52 229.44 176.518C236.578 161.516 240.268 145.107 240.241 128.493C240.233 122.096 239.682 115.71 238.594 109.406C238.509 109.136 238.482 108.85 238.517 108.569C238.551 108.288 238.646 108.018 238.793 107.776C238.941 107.534 239.139 107.327 239.373 107.168C239.608 107.009 239.873 106.902 240.153 106.854C240.432 106.807 240.718 106.819 240.992 106.892C241.266 106.964 241.521 107.094 241.741 107.273C241.96 107.452 242.139 107.676 242.264 107.93C242.39 108.184 242.46 108.461 242.469 108.745C243.59 115.274 244.152 121.888 244.149 128.513C244.178 145.711 240.359 162.697 232.97 178.227C225.582 193.756 214.812 207.436 201.451 218.263C201.105 218.538 200.676 218.687 200.234 218.686Z" fill="white"/>
<path d="M223.739 68.3473C223.412 68.3456 223.091 68.2632 222.804 68.1074C222.516 67.9516 222.272 67.7273 222.092 67.4543C211.955 51.8721 198.083 39.0726 181.736 30.2208C165.39 21.369 147.089 16.7459 128.5 16.7726C121.91 16.77 115.333 17.3455 108.844 18.4922C108.368 18.5026 107.905 18.3417 107.538 18.039C107.171 17.7362 106.925 17.3117 106.845 16.8428C106.765 16.3739 106.855 15.8919 107.101 15.4845C107.347 15.077 107.73 14.7713 108.182 14.6231C114.899 13.4347 121.706 12.8372 128.526 12.8374C147.762 12.8201 166.696 17.6108 183.609 26.774C200.521 35.9371 214.875 49.1821 225.366 65.3048C225.554 65.6027 225.659 65.9453 225.671 66.2973C225.683 66.6493 225.6 66.9981 225.433 67.3079C225.265 67.6176 225.018 67.8771 224.717 68.0598C224.416 68.2424 224.071 68.3417 223.719 68.3473H223.739Z" fill="white"/>
<path d="M69.2269 67.5404C68.8387 67.5273 68.4629 67.4007 68.1461 67.1761C67.8292 66.9515 67.5853 66.6388 67.4444 66.2769C67.3036 65.9149 67.2721 65.5196 67.3538 65.1399C67.4355 64.7602 67.6269 64.4129 67.9041 64.141C84.2865 48.656 105.984 40.0443 128.526 40.0799C135.217 40.0794 141.886 40.8337 148.408 42.3285C148.854 42.4998 149.223 42.8264 149.448 43.2484C149.673 43.6703 149.738 44.1592 149.631 44.6252C149.524 45.0911 149.252 45.5027 148.866 45.7844C148.479 46.066 148.004 46.1986 147.528 46.1579C141.295 44.7313 134.921 44.0125 128.526 44.015C106.988 43.982 86.2564 52.2101 70.6026 67.0047C70.2323 67.3572 69.7381 67.5496 69.2269 67.5404Z" fill="white"/>
<path d="M47.1169 159.671C46.7098 159.667 46.3138 159.538 45.9825 159.301C45.6512 159.065 45.4007 158.732 45.265 158.348C40.675 145.518 39.1053 131.802 40.6779 118.267C42.2506 104.731 46.9232 91.741 54.3326 80.305C54.643 79.9315 55.0796 79.6848 55.5596 79.6117C56.0397 79.5385 56.53 79.644 56.9376 79.908C57.3451 80.1721 57.6417 80.5765 57.771 81.0446C57.9004 81.5127 57.8536 82.012 57.6395 82.4479C50.5558 93.3746 46.0883 105.788 44.5845 118.723C43.0806 131.658 44.5809 144.765 48.9688 157.025C49.1393 157.517 49.1101 158.055 48.8875 158.525C48.6648 158.996 48.2665 159.359 47.7783 159.539C47.5672 159.621 47.3434 159.666 47.1169 159.671Z" fill="white"/>
<path d="M128.5 216.914C114.841 216.961 101.359 213.821 89.1263 207.742C76.8938 201.664 66.2483 192.815 58.0363 181.9C57.7951 181.482 57.7146 180.99 57.8101 180.516C57.9056 180.043 58.1705 179.621 58.555 179.329C58.9396 179.037 59.4175 178.895 59.8991 178.93C60.3807 178.965 60.833 179.174 61.1712 179.519C69.017 189.951 79.1895 198.409 90.8793 204.217C102.569 210.026 115.453 213.026 128.507 212.978C131.76 212.979 135.01 212.793 138.242 212.423C138.723 212.432 139.184 212.616 139.54 212.939C139.896 213.263 140.122 213.705 140.176 214.183C140.23 214.661 140.109 215.142 139.835 215.538C139.56 215.933 139.152 216.215 138.685 216.332C135.304 216.718 131.903 216.912 128.5 216.914Z" fill="white"/>
<path d="M174.149 203.891C173.729 203.878 173.324 203.732 172.992 203.475C172.66 203.217 172.418 202.86 172.302 202.456C172.186 202.053 172.201 201.622 172.345 201.228C172.489 200.833 172.755 200.494 173.104 200.26C185.333 192.705 195.42 182.141 202.402 169.577C209.384 157.012 213.028 142.867 212.985 128.493C213.052 128.02 213.288 127.588 213.649 127.275C214.01 126.962 214.472 126.789 214.949 126.789C215.427 126.789 215.889 126.962 216.25 127.275C216.61 127.588 216.846 128.02 216.914 128.493C216.959 143.535 213.146 158.337 205.84 171.485C198.533 184.633 187.977 195.688 175.18 203.593C174.872 203.79 174.514 203.893 174.149 203.891Z" fill="white"/>
<path d="M210.723 103.698C210.309 103.694 209.906 103.561 209.572 103.316C209.237 103.072 208.988 102.729 208.858 102.336C205.218 91.2086 199.313 80.956 191.514 72.2241C183.716 63.4922 174.193 56.4704 163.547 51.6011C163.142 51.3447 162.844 50.9507 162.707 50.4917C162.57 50.0327 162.604 49.5397 162.802 49.1037C163.001 48.6677 163.35 48.3181 163.786 48.1194C164.222 47.9208 164.714 47.8865 165.174 48.023C176.318 53.118 186.285 60.4671 194.447 69.6068C202.609 78.7464 208.788 89.4782 212.595 101.125C212.75 101.621 212.704 102.158 212.468 102.62C212.232 103.082 211.824 103.434 211.332 103.599C211.135 103.664 210.93 103.698 210.723 103.698Z" fill="white"/>
</g>
<defs>
<clipPath id="clip0_31_454">
<rect width="257" height="257" fill="white"/>
</clipPath>
</defs>
</svg>
